<?xml version="1.0" standalone="no"?>
<!DOCTYPE svg PUBLIC "-//W3C//DTD SVG 1.1//EN" "http://www.w3.org/Graphics/SVG/1.1/DTD/svg11.dtd" >
<svg xmlns="http://www.w3.org/2000/svg" xmlns:xlink="http://www.w3.org/1999/xlink" version="1.1">
<metadata></metadata>
<defs>
<font id="greggiefontregular" horiz-adv-x="661" >
<font-face units-per-em="2048" ascent="1638" descent="-410" />
<missing-glyph horiz-adv-x="303" />
<glyph horiz-adv-x="0" />
<glyph horiz-adv-x="0" />
<glyph unicode="&#xd;" horiz-adv-x="303" />
<glyph unicode=" "  horiz-adv-x="303" />
<glyph unicode="&#x09;" horiz-adv-x="303" />
<glyph unicode="&#xa0;" horiz-adv-x="303" />
<glyph unicode="!" horiz-adv-x="376" d="M79 1603.5q0 12.5 2.5 23t10.5 18.5q6 -8 32.5 -10.5t57 -2.5t56.5 1t32 1q16 -37 12.5 -71.5t-12.5 -71.5q8 -42 9.5 -85t1.5 -85q0 -29 -5.5 -57.5t-5.5 -57.5q8 -60 3 -109t-11 -100q-4 -38 -4.5 -89.5t1 -104t4.5 -100t7 -78.5v-209q-35 0 -76 1t-83 7q-4 9 -7 28.5 t-5.5 44.5t-3.5 52.5t-0.5 53t1.5 46t4 31.5q-6 87 -7 176t-1 176q-7 36 5 76q12 39 3 70q0 7 -1 20.5t-3 33.5t-3 37t-1 31q2 36 -1 67.5t-6.5 61t-5 59t2.5 62.5q0 14 -1.5 27.5t-1.5 26zM87 208q0 29 3 51.5t10 31.5q24 -4 48 -3t46.5 3t44 3t42.5 -3q-3 -10 -5 -31 t-2.5 -48t0 -57t3 -57.5t6 -50t8.5 -35.5q-14 0 -44.5 -1t-63 -0.5t-59 5.5t-32.5 17q2 18 0 56q-1 27 -3 58.5t-2 60.5z" />
<glyph unicode="&#x22;" horiz-adv-x="561" d="M35 1634h194l-8 -608h-178zM326 1634h198l-8 -608h-182z" />
<glyph unicode="#" horiz-adv-x="741" d="M12 553l17 154h139q2 22 4 41.5t4 37.5q4 31 6 57.5t4 30.5h-147l14 154h150q0 3 2.5 27t6 61t8.5 83t9 93q5 57 11 119.5t14 132.5h129l-51 -516h125q0 3 2 27t5.5 61t8 83.5t8.5 92.5q4 57 9.5 119.5t13.5 132.5h131q-7 -70 -13.5 -132.5t-11.5 -119.5q-4 -47 -9 -93 t-8.5 -83t-6 -61t-2.5 -27h141l-14 -154h-144q-2 -4 -4 -30.5t-6 -57.5q-2 -19 -4 -38.5t-4 -40.5h149l-12 -154h-154l-53 -569h-129l56 569h-123l-56 -569h-127l54 569h-142zM299 707h123q2 22 4 41.5t4 37.5q4 31 6 57.5t4 30.5h-123z" />
<glyph unicode="$" horiz-adv-x="735" d="M26.5 382.5q0.5 37.5 0.5 66.5h198q0 -12 0.5 -32t1.5 -41t1.5 -39.5t0.5 -29.5q11 -99 93 -121v547q-13 13 -26.5 25t-29.5 24q-48 50 -84 91t-62 78t-43.5 73t-27.5 75.5t-14 85t-4 101.5q0 71 17 129t51.5 100.5t87 68.5t124.5 32v39h119v-41q65 -7 110.5 -30 t75.5 -57t47 -77.5t25 -92t10 -101t2 -103.5h-200q0 45 -1 86t-3 61q-4 47 -19.5 81t-56.5 49v-490q10 -10 22.5 -21.5t24.5 -21.5q68 -66 114.5 -118.5t75 -109.5t40.5 -128t12 -176q0 -155 -72.5 -244.5t-206.5 -106.5v-112h-119v110q-69 6 -120 29t-85.5 62t-53.5 92.5 t-24 120.5q-2 29 -1.5 66.5zM231 1290q0 -39 5 -71.5t16 -61.5t28.5 -57t41.5 -58v394q-49 -10 -70 -45t-21 -101zM420 193q37 14 59.5 51t22.5 108q0 52 -3 90.5t-11.5 70.5t-24.5 61t-43 63v-444z" />
<glyph unicode="%" horiz-adv-x="1132" d="M30 1187.5q1 53.5 9 86.5v78q0 18 3 45t8.5 54.5t12.5 51t15 33.5q10 15 21 32.5t25 33t31.5 26.5t39.5 14q14 8 34.5 9.5t42.5 1.5q80 2 128.5 -17.5t75 -56t36 -86t12 -107.5t3 -121.5t8.5 -127.5q8 -44 -8 -93.5t-46.5 -93t-70.5 -75t-80 -39.5q-3 0 -11.5 1.5 t-19.5 4.5t-23.5 6.5t-23.5 7.5q-43 8 -80 12t-68 25q-29 27 -45 77t-23 107t-6 110.5zM172 1085.5q6 -36.5 23 -65.5v-10q14 -12 29.5 -25.5t37.5 -21.5h29q23 8 47 16t41 20q10 15 13 34t3.5 39t-0.5 42t2 43q4 33 5 85t-4.5 106t-19.5 101t-40 69q-12 6 -27.5 8t-38.5 10 q-16 -8 -30.5 -11t-28.5 -18q-17 -15 -25.5 -41t-12 -57.5t-3 -66t1.5 -68.5t2 -64.5t-2 -52.5q-8 -35 -2 -71.5zM195 0q20 35 37.5 77t39.5 77q23 59 40.5 116t45.5 109q8 15 12.5 31t8 33.5t7.5 35t11 35.5q37 66 68 139t59 154q8 14 15.5 33.5t15.5 36.5q12 29 15 57.5 t12 58.5q4 6 10 16.5l14 24.5q15 29 6 45q23 40 40 82t31 85.5t27.5 89.5t28.5 94q7 18 17.5 35t20.5 34.5t18 36.5t10 41q16 6 35.5 8t33.5 10q8 -8 16.5 -9t24.5 -1q-8 -30 -20 -60.5t-26 -60.5t-28 -58t-26 -54q-20 -45 -36.5 -92.5t-39.5 -92.5q-19 -41 -33 -83 t-26.5 -84t-25.5 -83.5t-31 -80.5q-51 -118 -96.5 -237t-88.5 -230q-31 -75 -55.5 -141t-52.5 -132q-6 -29 -18.5 -51t-20.5 -45h-96zM597 446q1 58 9.5 113.5t26.5 105t49 85.5q15 15 31 22.5t32.5 12.5t34 9.5t35.5 12.5q30 -8 59 -10t56 -6.5t50.5 -15t41.5 -36.5 q33 -43 48.5 -107.5t18.5 -136t-3 -143t-17 -129.5q-4 -22 -4.5 -44t-2 -42t-6 -37.5t-16.5 -31.5q-15 -19 -38.5 -33.5t-51.5 -25t-58 -18t-56 -11.5q-23 0 -44.5 6t-43.5 14q-6 8 -18.5 10t-20.5 8q-25 12 -42 30t-27.5 41.5t-16.5 52t-11 61.5q-4 28 -7.5 60t-5.5 70 q-3 55 -2 113zM722.5 328.5q1.5 -53.5 7.5 -98t18 -66.5q16 -14 40.5 -26.5t47.5 -20.5q26 -7 49 0t40 24t27.5 41.5t10.5 50.5q-2 28 0.5 70t4.5 89.5t0 96t-13 89t-34.5 68.5t-64.5 34q-16 -4 -30 -5t-26 -4.5t-22.5 -11.5t-19.5 -26q-7 -14 -12.5 -37t-10.5 -55 q-7 -46 -10.5 -102.5t-2 -110z" />
<glyph unicode="&#x26;" horiz-adv-x="931" d="M27 321q-15 117 14 226q16 66 46.5 119t62.5 96q5 6 9.5 18t10.5 24t14 21t19 9q6 0 16 -5q2 14 -5 36t-17 46t-20.5 46t-16.5 36q-16 43 -25.5 86t-25.5 88q-10 45 -10.5 98.5t8.5 107.5t26.5 103.5t42.5 86.5q7 10 21 22.5t32 23.5t37.5 18.5t35.5 7.5q12 0 22 -5 q12 4 23 9.5t22 9.5t23.5 5t27.5 -3q57 -10 96.5 -39.5t65 -74t39.5 -102t20 -122.5q0 -61 -27 -117q0 -23 -5 -44.5t-5 -43.5q-29 -78 -76.5 -150.5t-107.5 -138.5v-10q12 -4 18 -12t9 -17.5t5 -19.5t5 -19q23 -43 47 -93t53 -101q7 -10 17 -22.5t20 -27.5t18 -31t11 -34 h10q7 36 12.5 71t9 71.5t5.5 77.5t2 89q43 -8 87 -9t87 -1q0 -105 -18.5 -207.5t-51.5 -208.5q-16 -44 -16 -86q14 -12 38 -40.5t47 -64.5t44.5 -71t33.5 -55h-27h-45t-53 0.5t-52 1t-41.5 2t-22.5 2.5q-8 31 -20.5 53.5t-18.5 44.5q-15 -21 -29.5 -36.5t-30.5 -28t-34 -24 t-41 -25.5h-70q-34 -6 -66 -6q-64 0 -118 22t-105 59q-8 6 -20.5 13.5t-16.5 15.5q-60 112 -75 229zM195.5 337.5q0.5 -57.5 17 -104.5t53.5 -71q16 -13 37 -18.5t44 -5.5q30 0 60.5 9t55 25t40 38t15.5 48q-11 2 -20 18t-16.5 37.5t-15.5 44t-17 37.5q-15 29 -28 55.5 t-27.5 53t-31.5 53.5t-38 57q-8 16 -10.5 33t-10.5 25l-8 12q-30 -42 -56 -114q-19 -53 -31.5 -114t-12 -118.5zM269.5 1287q1.5 -38 7.5 -74.5t16 -70.5t20 -61q4 -15 8 -26t7 -22t4.5 -23t1.5 -27q6 8 7 5t1 5q23 37 53.5 74t53.5 80q6 23 12 39t6 39q8 23 9 38t1 31 q0 36 -4.5 67.5t-15 55.5t-29 40t-47.5 20q-12 -4 -21 -6.5t-17 -5.5t-15 -9t-15 -18q-29 -34 -38 -79q-7 -34 -5.5 -72z" />
<glyph unicode="'" horiz-adv-x="333" d="M39 1208q12 20 18.5 39t12.5 37t13 35.5t19 32.5v20q-16 -7 -25 -7t-18 7v154q0 33 -5 58t-5 56h197q0 -48 5 -91.5t5 -82.5q0 -33 5 -57.5t5 -46.5q0 -5 -9.5 -22t-23.5 -39t-31.5 -47.5t-33.5 -47.5t-29 -39t-18 -22q-23 16 -41.5 31.5t-40.5 31.5z" />
<glyph unicode="(" horiz-adv-x="419" d="M40.5 691q-0.5 28 0.5 58t4 56t7 44.5t9 22.5q-5 32 -6 56q-4 23 -5 40t-1 21q23 81 35 160t35 160q6 29 7.5 47t10.5 41q5 14 10 26t9 23q6 18 11 34.5t1 20.5q9 9 17.5 26.5t14.5 37t9.5 39t3.5 32.5q15 4 30 3.5t28.5 -1t25.5 0.5t22 8h80q-49 -157 -82 -320t-55 -326 q-4 -29 -6 -52t-2 -27q0 -23 -5 -46.5t-5 -52.5q0 -43 -1 -84t0 -79.5t5 -74.5t14 -69q7 -33 9.5 -64.5t4.5 -60.5t5 -56.5t12 -53.5q4 0 6 -21.5t6 -46.5q5 -28 6 -66q15 -33 26.5 -70t22 -75t22 -75t26.5 -70q-32 0 -70 -2t-73 -2q-17 0 -32.5 1t-27.5 3 q-14 37 -23.5 72.5t-25.5 70.5v23q-3 18 -6.5 33l-7 30t-7.5 32t-8 38q-10 33 -21.5 73t-21.5 80.5t-16.5 78.5t-6.5 67q3 0 1.5 15.5t-4.5 35.5t-6 39.5t-3 27.5v37q-4 9 -6 31t-2.5 50z" />
<glyph unicode=")" horiz-adv-x="419" d="M23 1632v10q7 0 19.5 -1.5t25 -2t21.5 0t9 3.5q31 0 59.5 -5t57.5 -5q4 -12 9.5 -27t11 -30.5t10 -30.5t6.5 -26q8 -14 9.5 -35t10.5 -43q8 -20 9.5 -37t1.5 -39q14 -33 20.5 -62.5t11 -60.5t10 -64.5t17.5 -72.5q4 -54 11 -103t16 -100q-8 -8 -9.5 -15t-1.5 -14 q4 -10 7.5 -29t4.5 -41t-1.5 -44t-10.5 -39q8 -18 12 -39.5t4.5 -43t-3.5 -42.5t-13 -39v-96q-9 -31 -13 -61t-7 -57.5t-8.5 -54t-18.5 -50.5v-50q-7 -28 -14.5 -61t-15 -66.5t-16.5 -65t-19 -56.5q-4 -7 -7 -18.5t-7 -23.5t-10 -24t-17 -21q-12 -5 -26 -6.5t-28 -1.5 q-29 0 -59 4t-59 4q43 132 77.5 285t55.5 314q4 26 6.5 48.5l5 45t6.5 46.5t11 52q0 16 5 23.5t5 13.5q0 9 -2 23t-5 28.5t-6 27t-6 17.5v41q-4 24 -6.5 49t-5 49.5t-6.5 48.5t-12 46v75q-6 60 -17.5 115t-19.5 109q-23 87 -45.5 165.5t-50.5 159.5z" />
<glyph unicode="*" horiz-adv-x="763" d="M70 1380q4 11 6 28.5t6 33.5t10.5 27.5t18.5 11.5q2 0 10.5 -3t21 -7.5t28 -10t30.5 -10.5l82 -29q-10 0 -11 -10q8 4 15 3t14 -3t14.5 -3t16.5 3q-8 14 -12.5 45t-5.5 67t1 71.5t7 58.5h30q8 0 38 3q29 3 46 -14q8 -12 9 -47t0 -75.5t-2 -77t3 -51.5q30 8 58.5 23t55 31 t51 29t46.5 17q4 -12 11 -30.5t13.5 -37t11.5 -33.5t5 -20q-16 -16 -45.5 -28t-62.5 -21.5t-64 -18t-51 -16.5q0 -13 13 -34.5t31 -45t37.5 -46t31.5 -36.5q0 -4 4.5 -12t9 -16.5t7.5 -14.5t-1 -6q-4 -8 -12.5 -18.5t-19 -21t-21 -19t-18.5 -12.5q0 8 -1 5t-10 5 q-23 14 -39 36t-31 46t-32 48t-41 42h-10q-31 -48 -67 -91t-75 -91q-23 16 -50 37.5t-50 43.5q0 3 3.5 7t6.5 4q10 27 28.5 48.5t39.5 42.5t41 44.5t33 54.5q-9 9 -37.5 23t-62.5 28t-66 26.5t-47 16.5z" />
<glyph unicode="+" d="M25 737v158h219v244h174v-244h219v-158h-219v-243h-174v243h-219z" />
<glyph unicode="," horiz-adv-x="399" d="M75 99.5q0 23.5 1.5 45t4 39.5t5.5 27v100h18.5t33.5 1t34.5 3.5t22.5 6.5q23 -8 46 -9.5t46 -1.5q3 -22 4.5 -51t3 -59.5t4 -61t6.5 -57.5v-70q-23 -31 -40 -56.5t-40 -53.5q-6 -12 -15 -27.5t-20.5 -30.5t-25.5 -27t-29 -16q-16 8 -29.5 15.5t-29.5 15.5q8 19 15.5 41 t17 43t21 41t26.5 35q0 8 -5.5 10t-5.5 10q-4 -4 -12 -6t-17 -2q-20 0 -30 8q-9 15 -10 43q-1 21 -1 44.5z" />
<glyph unicode="-" horiz-adv-x="548" d="M18 702v211h512v-211h-512z" />
<glyph unicode="." horiz-adv-x="399" d="M82 158q0 78 8 151h217q4 -5 6 -27t3 -52.5t1 -65t-0.5 -65.5t-1 -54t-0.5 -31h-225q-8 66 -8 144z" />
<glyph unicode="/" horiz-adv-x="370" d="M-43 -330l295 1966h127l-297 -1966h-125z" />
<glyph unicode="0" horiz-adv-x="757" d="M37 922q7 33 8 64t0 60t-1.5 56.5t3.5 52.5q8 47 8 95t3 95.5t12.5 92.5t35.5 86q18 26 43.5 46t55.5 35t62 26t61 18h59q23 -6 47.5 -4t40.5 -5q20 -4 46 -16t52.5 -28.5t49.5 -35t36 -36.5q12 -22 21 -55t15 -72t9.5 -81t4 -82t-1.5 -76t-7 -62q0 -49 4.5 -100 t4.5 -105q0 -43 -4.5 -81t-4.5 -83v-39q6 -29 3 -56.5t-3 -49.5v-138q0 -42 -1 -90t-11 -90q-6 -29 -18.5 -58.5t-22.5 -60.5q-2 -2 -4 0q-4 0 -4 9q0 -15 -5 -26.5t-12.5 -20.5t-16 -16t-15.5 -13q-34 -50 -78.5 -67.5t-97.5 -17.5q-41 0 -84 7t-88 16q-4 -4 -19.5 4 t-32.5 19.5t-31 23t-14 15.5q-10 0 -11 3t-1 -3q-18 32 -29.5 67.5t-20.5 73.5t-17 76t-19 74q-4 10 -3.5 28.5t3 39t5.5 39.5t3 30q-3 17 -6 38.5t-5 47.5q-3 39 -5 82.5t-1.5 84.5t3 75.5t6.5 56.5q0 10 -1 16t-9 15zM231.5 1043.5q1.5 -63.5 4.5 -120.5t6 -98 q4 -41 2.5 -75t-4 -65.5t-3.5 -63t5 -68.5q8 -43 6.5 -83.5t-3 -80t0.5 -78.5t16 -78q16 -40 43.5 -57t58.5 -17q39 0 75 23.5t53 61.5q10 57 16 109.5t6 101.5q0 33 0.5 81t2 98t4.5 96t9 75q0 12 -1 25.5t-2.5 27t-3 25.5t-1.5 20q0 72 -4 149.5t-4 149.5q6 44 1 94 t-22.5 92t-48.5 69.5t-77 27.5q-28 -22 -54 -33q-27 -11 -41 -47q-23 -40 -32 -115q-6 -55 -8 -119t-0.5 -127.5z" />
<glyph unicode="1" horiz-adv-x="526" d="M14 1454q0 14 2 25.5t7 15.5q11 11 30 17t41 10.5l44 9t40 12.5q16 14 37 27.5t43 21.5q6 14 13.5 22.5t15.5 16.5q7 3 19 3.5t25.5 1.5t27.5 4t26 10q14 -8 18.5 -9.5t18.5 -1.5q0 -99 2.5 -199t3.5 -201t-1.5 -202.5t-12.5 -203.5q0 -5 0.5 -16.5t1.5 -27t2.5 -33.5 t3.5 -36q2 -20 4.5 -42.5t5.5 -47.5q0 -29 -1 -52.5t-9 -46.5q0 -66 4 -125t-4 -116q0 -23 1 -43.5t9 -36.5q0 -18 1.5 -42.5t2.5 -53t0.5 -60.5t-4.5 -65h-194q-4 33 -4.5 72.5t0.5 80t2.5 79.5t1.5 69q17 146 0 309q-8 52 -6 108t6 112.5t6 111.5t-6 106q-8 36 -5 88 t8 102t6.5 89.5t-9.5 50.5q-18 -3 -44 -4.5t-55 -2.5t-59 -1h-57v8q0 5 -0.5 12t-2.5 17q-3 12 -4.5 27.5t-1.5 29.5z" />
<glyph unicode="2" horiz-adv-x="729" d="M37 178q59 133 137 223q6 14 12.5 33t14.5 35q45 43 71.5 92t55.5 101q33 47 53.5 97t36 102t29.5 104.5t34 103.5q8 17 12.5 47.5t6 67.5t-0.5 76.5t-6.5 75t-11.5 62.5t-16 40q-5 8 -13.5 12t-18.5 6.5t-20 4.5t-18 5q-16 9 -35 9q-18 0 -32 -9q-41 -10 -58.5 -26.5 t-23.5 -38t-7 -49t-10 -60.5q0 -4 1.5 -16l3.5 -28t4 -33.5t2 -31.5t-2.5 -22.5t-8.5 -5.5q-42 -6 -90.5 -7t-93.5 -1q-4 13 -5.5 35.5t-1.5 47t1.5 47t5.5 36.5v114q20 44 44 78t54 60.5t66.5 47t79.5 38.5q40 0 82.5 -4t84.5 -13.5t81.5 -24.5t72.5 -36q10 -8 20.5 -24.5 t22 -33.5t24.5 -31t28 -18v-86q0 -2 -0.5 -13t-1 -27.5t-1.5 -37.5l-2 -42q-1 -26 -2 -54t-2 -59q0 -3 -3.5 -20t-8.5 -41t-10.5 -51t-10 -50t-6.5 -38t0 -15q-66 -161 -149.5 -309.5t-171.5 -288.5q-12 -18 -22.5 -39.5t-21 -42.5t-21 -40t-21.5 -34q0 -10 10 -10 q8 5 19.5 6.5t24.5 1.5q12 0 23.5 -1.5t18.5 -6.5q12 3 24.5 4t24.5 1q23 0 45 -2.5t41 -2.5q54 8 104 9t101 1v-37.5t-1 -57.5t-3 -53.5t-6 -25.5q-4 -4 -22.5 -6t-42.5 -2q-26 0 -51 2t-40 6q-49 2 -111.5 3.5t-127 2.5t-126 1.5t-110.5 0.5q0 45 -1 83t-7 83z" />
<glyph unicode="3" horiz-adv-x="727" d="M23.5 392q0.5 11 2.5 23t3 24.5t-2 27.5q18 -4 39 -3t44 4t46.5 6t44.5 3q-4 -18 -4 -42.5t2.5 -50.5t7.5 -50t12 -41q4 -12 3.5 -23t-1.5 -22.5t0 -24t8 -26.5q14 -26 34.5 -36.5t45.5 -10.5q18 0 37 4.5t39 11.5q16 0 29.5 2t27.5 18q16 12 27.5 40.5t19 65.5 t11.5 79.5t4.5 83.5t-2.5 77t-10 60q-13 72 -58 117q-18 29 -46 42t-60 17t-65 2t-62 -2v174h78q66 4 105.5 29.5t60 66t25.5 93t1 110.5q-4 22 -4 46.5t0.5 49t-2 47.5t-12.5 41q-18 29 -43.5 42t-54.5 13t-57.5 -14.5t-47.5 -40.5q-14 -23 -20.5 -55.5t-9 -67.5t-2 -71 t0.5 -66q-33 0 -56.5 -4.5t-49.5 -4.5q-13 0 -27 2t-31 7q-4 90 -0.5 172t29 146t80 105.5t151.5 51.5q17 5 35.5 6.5t36.5 1.5q42 0 79.5 -8.5t63.5 -19.5q14 -14 32 -28.5t28 -28.5h8q11 -19 18 -33t13.5 -29t13 -32.5t14.5 -43.5q0 -35 -1 -66.5t-9 -68.5q0 -36 2 -75 t0.5 -78t-10.5 -77t-31 -71q-12 -18 -27.5 -32t-31.5 -25.5t-31 -21t-26 -17.5q-8 0 -19.5 -1t-19.5 -7q-4 -4 -4.5 -6.5t-0.5 -4t-0.5 -4t-5.5 -6.5h11q14 0 28.5 -1t28.5 -9q23 -8 43 -11t37 -18h8q29 -33 42.5 -61.5t20 -59t11 -67t14.5 -84.5q6 -35 11 -73t-3 -83 q-4 -13 -8.5 -39t-9 -52.5t-7.5 -47t-3 -22.5q4 -14 -0.5 -37.5t-13.5 -47.5t-21 -44t-23 -27q-55 -45 -126 -68.5t-143 -23.5q-82 0 -153.5 33.5t-111.5 105.5q-17 26 -24.5 55t-10.5 59.5t-4.5 62.5t-7.5 65q-4 12 -3.5 23z" />
<glyph unicode="4" horiz-adv-x="763" d="M4 559q16 29 29.5 57.5t29.5 57.5q6 43 17.5 81t19.5 74q5 0 10 11t10.5 26t10.5 30t8 22q15 39 29.5 81t28 83.5t25.5 80.5t24 72q16 29 24.5 63.5t14.5 63.5q4 0 6 6t4 14.5t4 16.5t6 12q3 0 5.5 3.5t2.5 6.5q7 25 16.5 52t21.5 58q25 62 32 101q6 8 13 10.5t16 10.5 q8 -8 39 -12t67 -6t67 -2.5t40 -0.5v-115.5t-1 -120.5t-3 -118t-7 -109q0 -31 5.5 -57.5t5.5 -48.5q0 -8 -1.5 -22.5t-4 -30t-4 -28t-1.5 -15.5v-127q0 -45 5.5 -93t5.5 -102q0 -11 1 -25t3 -30q4 -33 -4 -41q0 -8 1 -10t9 -11q12 8 24.5 10.5t25.5 2.5t26.5 -1t27.5 -1 q0 -8 1 -19.5t10 -19.5v-127h-11q-8 2 -18 3t-21 1q-28 0 -54 -6t-32 -15q5 -12 8 -34t4 -50t1 -58.5t-0.5 -59t-1 -52t-0.5 -36.5q-4 -12 -3.5 -21.5t1.5 -18t0 -16t-9 -14.5q-20 6 -51 12t-65 6q-15 0 -30.5 -1.5t-29.5 -6.5v8q0 23 -1 45.5t-5 44.5v58.5t1 71t2 70.5 t3 58h-6q-11 5 -24.5 5.5t-27.5 0.5t-28 0.5t-28 4.5q-19 0 -44 1.5t-53 3.5t-56.5 3.5t-54.5 1.5t-47.5 -2.5t-35.5 -7.5h-8q0 17 -3.5 42t-7 51t-7 51t-3.5 42zM186 539h246q4 8 6 9t11 1q-6 23 -7 41.5t-0.5 35.5t0.5 33.5t-4 34.5q-2 26 -3 54t-1 56.5t1 55t3 47.5 q0 23 -3 44.5t-3 41.5q2 15 3 32.5t2 34t1 30v20.5q-2 19 -1.5 38.5t2.5 41.5q4 43 -7 65q-8 -16 -10 -35.5t-10 -41.5q-29 -66 -47.5 -126.5t-40.5 -125.5q-18 -47 -33 -95t-31 -96t-33.5 -95t-40.5 -91v-10z" />
<glyph unicode="5" horiz-adv-x="729" d="M45 310.5q0 31.5 8 54.5q4 12 4.5 25.5t0.5 26t0.5 22.5t4.5 14q9 0 34 -0.5t52.5 -2t50 -3.5t25.5 -5q-12 -32 -12.5 -68.5t8 -71t24.5 -63.5t38 -46q16 -14 34 -20.5t38 -6.5t40 6t37.5 16.5t31.5 23.5t21 28t8 30t0 30t-1.5 31t2.5 34q8 38 8.5 81t-2.5 87.5t-8 88 t-7 80.5q-4 17 -4 39.5t-0.5 45t-3 43t-12.5 34.5q-17 25 -49 38t-65 13q-24 0 -45 -7t-34 -23q-8 -12 -12 -25.5t-6.5 -28t-4.5 -28t-5 -25.5q-4 0 -19 -0.5t-34.5 -1.5t-41 -1.5t-40.5 -0.5t-31.5 1t-14.5 3v240q0 23 -1 48.5t-9 47.5q0 10 3 17.5t5.5 14t3.5 14.5t-2 20 q-16 107 0 192q0 14 -5 33.5t-5 34.5q8 45 9 92t1 98q27 3 61 2.5t70.5 -2t72.5 -3.5t67 -2q19 0 35 1t28 4q23 8 57 9q17 1 26.5 1h13.5q11 -5 22 -6.5t22 -1.5q19 0 36.5 2.5t34.5 2.5q10 0 19.5 -1t18.5 -6q0 -43 -5 -85t-5 -87h-412q4 -40 8.5 -88t7 -94t2 -86.5 t-6.5 -65.5v-28.5t0.5 -41t2.5 -35t5 -11.5v-11q6 30 27.5 47.5t53.5 26t71 10.5t79 2q32 4 64 -10.5t59 -40.5t45.5 -60t22.5 -69q8 -62 8.5 -132t-0.5 -141.5t0.5 -139.5t11.5 -125v-115q0 -18 -9 -47t-21 -56t-23.5 -45t-16.5 -14q-2 0 -6 -3.5t-4 -6.5 q-20 -16 -41.5 -33.5t-42.5 -24.5q-15 -8 -32 -12t-35 -6.5t-35.5 -4.5t-32.5 -5q-18 -4 -33.5 0.5t-29.5 10.5t-26.5 9.5t-25.5 -2.5q-8 0 -23.5 5t-23.5 5t-18 3t-19 8.5t-15.5 12t-6.5 13.5q-13 -6 -12 -6q-1 0 -1.5 1.5t-5.5 4.5q-16 23 -33.5 35t-33.5 31 q-10 23 -18.5 55.5t-12.5 66.5t-4 65.5z" />
<glyph unicode="6" horiz-adv-x="755" d="M55 1083q0 24 2 46t6 40q0 4 1.5 21.5t3 38t1 39.5t-5.5 26q7 29 12 55.5t11.5 52t16.5 50.5t28 49q10 18 28 36.5t39.5 36t44 31.5t40.5 21q12 3 27 4.5t30.5 3.5t30 4.5t24.5 6.5q18 -4 37.5 -6.5t38.5 -6t36 -9.5t32 -17q80 -58 117 -161q38 -105 16 -218 q-43 -8 -81 -9t-81 -1q0 36 -4 71t-16.5 64t-35 51t-59.5 33q-11 5 -22.5 8t-23.5 3q-19 0 -38 -11q-15 -7 -24 -17.5t-16 -24t-13 -29.5t-14 -34q-5 -26 -6 -92q-1 -67 -3 -141q-1 -37 -0.5 -71t1.5 -65q1 -62 8 -77q0 10 10 10q9 23 27.5 40t43.5 28.5t53.5 17t56.5 5.5 q29 0 56.5 -6t47.5 -19q4 -3 12 -6t17 -7t16.5 -7.5t11.5 -8.5q34 -41 55.5 -103.5t32 -134.5t11.5 -148t-5 -145q-4 -28 -3.5 -56.5t1.5 -55t0 -51t-8 -45.5q-10 -18 -22.5 -38.5t-26.5 -40.5t-30 -39t-34 -34q-21 -15 -44.5 -23t-50.5 -12.5t-57.5 -6.5t-66.5 -5 q-12 0 -22.5 3t-20 5.5t-17.5 3t-16 -3.5q-23 16 -42 23.5t-33 15.5v18q-14 14 -33 29.5t-33 38.5q-29 43 -40 97.5t-13.5 114.5t-1 122.5t-2.5 120.5q-4 35 -8 80.5t-6 93t-1.5 91.5t4.5 77q0 29 -3 62q-2 23 -3.5 48t-1.5 49zM238.5 485q0.5 -31 1 -57t2 -45.5t2.5 -28.5 q8 -39 10 -72.5t9 -59t23.5 -43t53.5 -25.5q14 0 27.5 1t27.5 9q42 10 66 31.5t35.5 52.5t13.5 68t0.5 77t-3 81t2.5 79q6 47 2.5 95t-20 86.5t-47 62.5t-76.5 22q-21 -7 -36.5 -16t-28 -19.5t-24 -23t-26.5 -27.5q-3 -7 -5.5 -25t-4.5 -42.5t-3 -55t-2 -62.5t-0.5 -63z" />
<glyph unicode="7" horiz-adv-x="638" d="M0 1595.5q-2 22.5 2 26.5q16 0 23.5 1t15.5 9h68q23 0 42 -6t33 -14q39 -3 77.5 -1t76 5t75 6.5t74.5 3.5q30 0 60 -3t61 -11q0 -29 5 -57.5t5 -57.5q-23 -148 -55.5 -276t-68.5 -252q-8 -54 -15.5 -109t-23.5 -104q-12 -55 -21.5 -111t-20 -110t-23 -105.5t-30.5 -97.5 q-10 -33 -15 -62.5t-9 -58t-9 -58t-16 -61.5q-5 -12 -5.5 -25t-1 -24.5t-2.5 -22t-9 -18.5h-205v10q3 3 8 17t11.5 34t12.5 42.5t10.5 42t6.5 33.5t0 16q7 7 17 32t18 52.5t12 51t0 27.5q12 24 16.5 49t7.5 50.5t5.5 51t9.5 52.5l15 65t19.5 81t21 82.5t20.5 68.5 q8 26 13 54t9.5 57.5t11 58t17.5 53.5q8 23 5 43.5t5 42.5q14 66 27.5 131t30.5 140q-10 0 -10 10q-47 0 -97 0.5t-101 0.5t-101 -2.5t-97 -8.5q-10 0 -10 10q4 14 3 41t-2 55q-1 27 -3 49.5z" />
<glyph unicode="8" horiz-adv-x="749" d="M27.5 397.5q-0.5 37.5 0.5 71.5t4 63t7 48v77q2 36 16 74.5t36 72t50.5 59t59.5 34.5v21q-31 -3 -53 11.5t-36 40t-22.5 59.5t-12.5 69.5t-6 70t-3 62.5q-4 50 -0.5 105t18.5 106t42.5 93.5t72.5 68.5q23 16 43 23t43 18q16 0 27.5 4t21.5 4q29 0 56.5 -5.5t56.5 -15.5 q23 0 42 -4t35 -4q61 -25 88.5 -64.5t39 -89t14 -105.5t12.5 -114q3 -21 2 -38t-4 -32.5t-5.5 -31t-2.5 -33.5q0 -14 -5.5 -32.5t-5.5 -32.5q-14 -23 -24 -47.5t-33 -40.5q-13 -22 -42 -36q-28 -13 -34 -30v-8q59 -18 91.5 -40t49.5 -54.5t25 -79.5t17 -115 q-8 -37 -10.5 -67.5t-10.5 -65.5q4 -12 6 -29t2 -36t-2 -37.5t-6 -32.5v-115q-7 -39 -24.5 -72.5t-44 -59.5t-60 -43.5t-72.5 -25.5q-15 -4 -30.5 -10.5t-32 -12t-32 -7.5t-30.5 2q-87 6 -152 29.5t-114 74.5q-15 12 -25.5 35.5t-18.5 54t-13 66.5t-8 74t-3.5 75.5zM226 577 q-1 -46 0.5 -90t4.5 -83t7 -64v-31.5t1.5 -33t6 -31.5t12.5 -27q10 -14 25.5 -21t32 -11t32 -6.5t25.5 -8.5q14 0 27.5 4t19.5 4q0 5 12 7.5t17 2.5q15 12 23 26t13 29.5t9.5 32.5t11.5 35q7 27 11 66.5t5 86t-1 95t-7.5 92t-14.5 78t-22 53.5q-14 14 -35.5 25.5t-50.5 11.5 q-6 0 -13 -1t-16 -7q-21 -4 -37 -10t-29 -15t-24 -22t-22 -31q-15 -18 -20 -72q-3 -38 -4 -84zM245.5 1183.5q-1.5 -37.5 1.5 -72.5t10.5 -64.5t21.5 -45.5q6 -6 23 -10t35.5 -6.5t34 -5t19.5 -6.5q12 7 22.5 11t20.5 8t18.5 10t16.5 18q6 13 12.5 42t11 62.5t6 65.5 t-0.5 51v86q0 16 -1 29.5t-10 36.5q-10 26 -21.5 41.5t-26 24.5t-33 13.5t-44.5 8.5q-15 -7 -27.5 -11t-23 -8.5t-18.5 -10.5t-14 -17q-16 -31 -18.5 -58.5t-2.5 -56.5q-2 -11 -4 -28t-4 -39q-3 -31 -4.5 -68.5z" />
<glyph unicode="9" horiz-adv-x="743" d="M36 1098q0 51 7 80q6 51 10 106t13.5 107.5t28 100.5t55.5 85q29 27 71.5 40t71.5 36h67q43 -10 82 -19.5t73 -24t63.5 -36t54.5 -57.5q20 -37 29.5 -82t13.5 -93.5t6 -97.5t8 -92q6 -58 6 -128q0 -27 -2 -92t-7 -171.5t-5.5 -163t-0.5 -65.5q0 -92 9 -166q0 -16 -1 -31 t-7 -37v-11q0 -24 -8 -56.5t-24.5 -68.5t-37 -67t-39.5 -49q-18 -23 -46.5 -33t-61.5 -15t-65.5 -9t-59.5 -11q-13 -2 -25 -2q-29 0 -59.5 12.5t-58.5 28.5q-6 0 -11 2.5t-7 2.5q-3 0 -3 -5q-43 35 -66.5 80t-39.5 105q-5 18 -10 43.5t-8.5 49t-3.5 42.5q0 5 0.5 19t12.5 30 q35 8 78 9t88 1v-10q4 -31 5 -55q0 -8 -1 -19t-1 -25t1.5 -33.5t16 -43t55.5 -49.5q16 -6 25.5 -9t13.5 -3q15 0 39 12q0 -4 9 -4t21.5 2t22.5 6t15 8q16 8 23 20.5t15 28.5q-4 20 -4 39q0 23 7.5 55.5t7.5 79.5q2 37 3.5 73t1.5 64q0 15 -0.5 43.5t-4.5 68.5t-11 69v10 q-23 -23 -39 -37t-38 -31q-29 -23 -59.5 -28.5t-53.5 -5.5q-15 0 -41.5 3t-61 18t-55.5 42q-16 23 -34.5 45.5t-34.5 50.5q-6 18 -14.5 70.5t-13.5 114.5q-5 61 -5.5 94t-0.5 39zM212 1072q0 -36 1.5 -83t8.5 -98t22 -80q16 -16 40.5 -24.5t47.5 -14.5q11 -2 21 -2 q16 0 36.5 5t44 18.5t39.5 31t25 35.5v66q10 37 10.5 79.5t0.5 53.5q0 65 -5.5 140t-20 145.5t-34.5 95.5q-14 23 -39 26.5t-50 12.5q-29 -16 -46 -20.5t-40 -18.5q-29 -37 -39 -83t-18 -91v-68q-4 -37 -4.5 -72.5t-0.5 -53.5z" />
<glyph unicode=":" horiz-adv-x="380" d="M78 1006.5q2 33.5 10 62.5q51 0 101.5 -5t95.5 -5q0 -69 1 -133.5t9 -130.5h-207q0 33 -2 68t-6 73q-4 37 -2 70.5zM85 201.5q-5 27.5 3 48.5q36 7 71.5 12t72.5 5q16 0 31.5 -1.5t31.5 -3.5q0 -75 1 -141t7 -135h-205q0 18 -1.5 31.5t-3.5 25.5t-3.5 24t-1.5 27 q0 6 1 19.5t9 27.5q-8 33 -13 60.5z" />
<glyph unicode=";" horiz-adv-x="380" d="M84 -147q4 12 11 23t14.5 21t14 19t9.5 16q4 5 4.5 9t0.5 7.5t0.5 7t4.5 7.5q8 8 19.5 20.5t19.5 26.5q-10 0 -10 10q-14 -8 -30.5 -9t-39.5 -1v10q0 15 -2.5 44.5t-5 59.5t-3.5 54.5t3 30.5q0 4 -1 12.5t-3 22.5q-4 25 4 35h22.5t34 0.5t32.5 2.5t18 5q17 -5 35.5 -9 t35.5 -4q8 0 15 1t14 4q8 -66 9 -134.5t1 -134.5q-16 -29 -35.5 -58.5t-33.5 -57.5q-7 -7 -14.5 -21.5t-17.5 -29.5t-21.5 -26.5t-26.5 -11.5q-14 14 -35 23.5t-43 24.5zM94 1075q6 -4 23.5 -6t37.5 -2q22 0 41 2t27 6q23 0 39.5 -1t38.5 -9q0 -66 1 -132.5t9 -133.5h-209 q-6 69 -7 139.5t-1 136.5z" />
<glyph unicode="&#x3c;" horiz-adv-x="747" d="M35 684v184l665 256v-170l-501 -178l501 -184v-168z" />
<glyph unicode="=" horiz-adv-x="663" d="M31 596v152h602v-152h-602zM31 877v153h602v-153h-602z" />
<glyph unicode="&#x3e;" horiz-adv-x="747" d="M43 424v168l500 184l-500 180v170l664 -258v-184z" />
<glyph unicode="?" horiz-adv-x="690" d="M27 1210q0 48 2 93.5t6 91.5q7 90 59 155q19 22 47 39t62 29t71.5 18.5t74.5 6.5q56 0 104 -15h51q41 -23 71.5 -66.5t53.5 -88.5q8 -22 13 -62t7 -82.5t2 -80.5t-2 -58q-10 -42 -16 -80.5t-15 -73.5q-34 -58 -86 -122q-50 -64 -79 -130q-29 -81 -49.5 -175t-26.5 -212 q-5 0 -16.5 -1.5t-25.5 -3t-29.5 -3t-29.5 -1.5t-23.5 2t-12.5 7q-11 21 -15 51.5t-3 64.5t6 67.5t12 58.5q4 21 11.5 49t17 58t22 60t26.5 56q23 43 54.5 93.5t52.5 101.5q8 35 15 71.5t14 73.5q8 14 8 40t-8 54q-3 15 -2 32t2 33.5t0 32t-9 29.5q-10 35 -36.5 52.5 t-59.5 17.5q-46 0 -88 -31q-33 -18 -43 -47t-11 -63t1 -68t-6 -63q-25 0 -46 -1.5t-41 -4t-40.5 -4t-46.5 -1.5zM201 162q4 11 3.5 27l-1 32t0.5 29.5t7 19.5q45 0 83 5.5t83 13.5q4 -5 7 -5h4.5t8.5 -5q2 -10 2.5 -33t1 -53t0.5 -62.5t-0.5 -62t-1.5 -51t-2 -29.5h-186 q4 18 3 40.5t-4 46t-6 46t-3 41.5z" />
<glyph unicode="@" horiz-adv-x="1232" d="M57 928q4 49 13 94q6 35 8 76.5t10 83.5q39 139 124 225t224 133q33 4 66 7t65 18q36 9 74 9q60 0 116.5 -15.5t98.5 -28.5q33 -12 67.5 -23.5t55.5 -38.5q27 -27 52.5 -63t47 -76.5t39 -83t27.5 -82.5q0 -27 1 -56.5t7 -57.5q-6 -27 -10 -57.5t2 -65.5q2 -33 3 -73 t1 -79t-1 -72.5t-3 -54.5q0 -12 1 -29.5t7 -31.5q-5 -30 -4.5 -66.5t3 -75.5t6 -79.5t4.5 -79.5q2 -39 0 -75.5t-9.5 -68t-22 -56.5t-38.5 -42q-32 -22 -67 -31.5t-70 -9.5q-37 0 -73 10.5t-66.5 29t-54.5 45.5t-38 60q-10 20 -12.5 42.5t-4 45t-4 42.5t-12.5 36h-10 q-25 -37 -73 -59.5t-99 -25.5q-25 -1 -50.5 2.5t-48 14t-40.5 27.5t-29 41q-14 35 -19.5 71t1.5 71q0 33 -7.5 66.5t-1.5 72.5q6 20 8.5 38.5t10.5 31.5q18 49 55 80.5t85 52.5t102 34t106 25q0 36 4 81.5t1 87.5t-18.5 73.5t-54.5 38.5q-47 10 -73.5 -8.5t-40 -52.5 t-16.5 -76t-3 -80q-33 0 -66.5 -5.5t-72.5 -5.5v75t3.5 75t12.5 70.5t27 60.5q25 33 79 56.5t117 30.5q31 3 62 2t58.5 -7t50 -17.5t36.5 -29.5q19 -24 26.5 -54.5t11 -66t5.5 -74t9 -78.5q10 -72 10.5 -144.5t-2 -144t-4.5 -139.5t4 -131q4 -33 4.5 -67.5t5 -63.5 t17.5 -50.5t42 -27.5q9 -6 29 -6q8 0 15.5 1.5t11.5 4.5q12 10 17.5 21.5t8 25.5t3.5 30.5t4 37.5q2 23 3 57.5t-1 74.5t-5.5 81t-5.5 74q0 27 -5 53.5t-5 50.5q4 17 4 42t-1.5 51t-3 50.5t0.5 40.5q6 108 4 197t-29.5 158t-88.5 118.5t-173 77.5q-20 5 -40.5 9t-46.5 4 q-11 0 -21.5 -1t-22.5 -3q-43 -13 -82 -26.5t-75 -30t-69.5 -37t-64.5 -48.5q-12 -16 -25.5 -54t-25 -82.5t-19 -88t-7.5 -70.5q0 -35 -4.5 -66.5t-4.5 -64.5v-131q0 -29 -0.5 -72.5t0.5 -91.5t5 -95t14 -83q3 -19 3.5 -35t1.5 -30t3 -27.5t8 -28.5q20 -29 38 -53t32 -53 q39 -44 103 -53q31 -5 62.5 -9t63.5 -8q25 0 54 17q28 16 43 10q12 -6 22 -18t18.5 -25.5t15.5 -25t13 -17.5v-10q-18 0 -18 -9v-8q-38 -26 -87 -38t-103 -12q-49 0 -98.5 9.5t-93 27t-78.5 43t-56 56.5q-25 37 -43 101t-29 136t-14.5 142t0.5 119q0 29 -5.5 53.5t-5.5 52.5 v131q-6 48 -2 97zM465.5 536.5q-0.5 -35.5 6 -68t19.5 -57.5t33 -34q16 -8 35 -8q20 0 42 7t42 18t35 25t20 27q-6 39 -7 83t-1 83q-4 11 -5 30t-1 38.5v35t-4 19.5q-6 6 -8 7t-8 1q-23 -10 -44.5 -16t-41.5 -13.5t-38 -18.5t-34 -31q-23 -18 -33 -61q-7 -31 -7.5 -66.5z " />
<glyph unicode="A" horiz-adv-x="796" d="M8 20l10 11q-4 2 -3.5 18t3.5 36t6 39.5t3 29.5q16 66 29.5 135t27.5 135q16 124 37.5 240.5t50.5 240.5q0 43 4 87t4 87q10 54 19.5 114t19.5 119.5t21.5 116t25.5 103.5q0 23 5 49.5t5 54.5q16 0 28 -2.5t24 -2.5q6 0 12 1t14 4q51 0 100.5 -5t92.5 -5q7 -15 9.5 -29 t3.5 -28.5t1.5 -28.5t3.5 -29q16 -109 30.5 -221t37.5 -221v-96q23 -78 38 -159.5t29 -168.5q6 -39 9 -72.5t5.5 -66t5.5 -66t9 -73.5q14 -72 23.5 -144.5t23.5 -144.5q0 -14 5 -32.5t5 -35.5q-13 3 -31 2.5t-37.5 -2t-40 -3.5t-39.5 -2q-13 0 -24 1t-20 4q-14 60 -23.5 131 t-23.5 131q-6 18 -6 41t-0.5 44.5t-4.5 38t-18 20.5q-2 -2 -20 -4.5t-43.5 -5t-56 -4.5t-59 -3.5t-50.5 -2.5t-31 -1q-10 -28 -15 -60t-9 -64.5t-9.5 -64.5t-15.5 -61q0 -8 -3 -24.5t-6.5 -35t-6.5 -36t-3 -29.5q-14 2 -29 3.5t-31 1.5h-15.5t-15.5 -1q-24 -2 -46.5 -3 t-44.5 -1zM276 578h21q5 -6 35 -6q5 0 7 -1q28 -1 61 3q19 2 38 3.5t35 2.5t28 0.5t17 -2.5q0 18 -2.5 42.5t-7 50.5t-9.5 52t-10 47q-8 37 -9 78t-1 78q-10 28 -16 64t-11 74t-9.5 74t-10.5 64q-8 51 -14 101t-15 104h-10v-21l-4.5 4.5t-0.5 -0.5t-0.5 -2.5t-4.5 -1.5 q-14 -146 -33.5 -281t-42.5 -265q-8 -66 -19.5 -131t-11.5 -131z" />
<glyph unicode="B" horiz-adv-x="845" d="M66 46q0 4 0.5 7t1.5 7q2 12 2.5 25.5t-2.5 27.5q-4 44 -4 87.5t4 87.5t6 87t2 88q-2 19 -3 39t-2 42q0 66 2 130t13 129q0 8 -5 20.5t-5 18.5q8 29 4 61.5t-4 75.5q-3 12 -3.5 26t0.5 28t2 27.5t1 24.5q0 23 -1 44.5t-7 44.5q0 29 1 64.5t7 70.5v145q-3 18 -4.5 41 t-1.5 46.5t1.5 46t4.5 40.5h10q45 8 88 9t88 1q23 0 48.5 1t53.5 2l78 3h33q55 -2 103.5 -13t80.5 -40q15 -15 29 -33t25.5 -36t20 -35.5t11.5 -32.5q6 -18 9.5 -40t5.5 -44.5t2.5 -45t0.5 -42.5q0 -39 -4 -93t-12.5 -108.5t-23 -103.5t-35.5 -78q-10 -14 -21 -21t-23 -10.5 t-25 -6.5t-27 -9v-10h13q41 0 71.5 -19.5t52 -51.5t35 -72t21.5 -82t11 -81t4 -69v-10t1 -10q-2 -60 -6.5 -124t-18.5 -122q-4 -14 -11 -35t-15 -41.5t-16.5 -37t-16.5 -21.5q-25 -17 -58 -29.5t-71 -20.5t-80 -12t-84 -4q-54 0 -105 6h-184q-6 6 -20.5 0t-26.5 -6 q-7 0 -12 6q-10 21 -10 40zM252 735q14 -23 8 -53t2 -53q0 -66 4 -126t4 -126v-213q30 13 67 13h5q20 -1 38.5 -1t37.5 -2q8 -1 15 -1h14q27 0 51.5 4t44.5 24q23 16 31 41.5t8 56.5q4 22 5.5 50.5t5.5 64.5q1 7 1 13v13q0 61 -12 119q0 12 1.5 21.5t2.5 19.5t0.5 21 t-4.5 26q-14 23 -34 48.5t-34 39.5q-18 10 -50.5 13t-67 3.5t-66 0.5t-49.5 4q-8 -8 -14.5 -9.5t-14.5 -1.5v-10zM258 1368q0 -21 0.5 -42t2.5 -42q2 -24 3 -47.5t1 -46.5q0 -38 -3 -76q-8 -45 -8 -93t8 -99q18 0 48 -5t63 -7q13 -1 25 -1.5t23 -0.5h15q31 2 49 14 q25 14 40 50t23.5 79t11 85t2.5 66t-1.5 52t-4.5 56.5t-9 56t-15 48.5q-4 7 -9 11t-10 8.5t-10 10.5t-9 17q-12 -3 -27 -3.5t-31 1.5t-31 5.5t-26 9.5q-29 0 -58.5 -1t-58.5 -12q-2 -23 -3 -47t-1 -47z" />
<glyph unicode="C" horiz-adv-x="819" d="M47 557q6 59 8 112.5t13 110.5q3 47 3 97q-1 23 -1.5 46.5t-1.5 48.5q-2 34 -4 70q-1 15 0 31q0 20 1 40q1 16 1 31.5v31.5q2 85 17 167.5t52.5 148t102.5 106t165 40.5q36 0 70 -6h22t21 3q5 1 14 1q16 0 29 -4q20 -12 43 -28.5t44.5 -35t39.5 -39.5t29 -42 q6 -8 7 -20.5t1 -18.5q4 -15 11 -31t14.5 -32.5t14 -32.5t9.5 -31q11 -42 11 -83q0 -9 -0.5 -18t-1.5 -18q-3 -28 -3 -55q0 -15 1 -29t3 -28q-10 0 -38.5 -3t-59.5 -6t-56.5 -4.5t-29.5 2.5q-6 27 -6 56.5t0.5 60.5t-1 60.5t-11.5 56.5q0 3 -3.5 13.5t-6.5 22.5t-4 21.5 t3 9.5q-12 7 -19.5 14t-14.5 14.5t-14.5 15t-18.5 14.5q-8 0 -13.5 1t3.5 9q-23 6 -49.5 2t-49.5 -12q-49 -10 -73 -30q-24 -22 -32 -52q-8 -29 -8 -66l1 -20q0 -34 -2 -74q-3 -29 -6 -60.5t-7 -66.5q-5 -53 -9 -105t-4 -105q0 -45 3 -92.5t12 -92.5q0 -14 -0.5 -32.5 t-2.5 -41.5q-1 -8 -1 -15v-14q0 -14 1 -27t3 -26q3 -29 6 -77t7.5 -97t12.5 -89.5t23 -55.5q4 -7 12.5 -13.5t18.5 -12t20 -8.5t17 -3q23 0 43.5 -1t34.5 -9q39 10 63 31t38 49.5t21 62.5t13 70q4 24 0.5 51.5t-7 53t-3.5 46.5t10 31q30 -9 60 -9h15t14 2q22 5 45.5 6 t49.5 1q0 -65 3 -124v-18q0 -51 -13 -100q-12 -69 -29 -125q0 -7 -4 -17.5t-10 -22t-12.5 -22t-11.5 -16.5q-15 -18 -34.5 -36.5t-42 -36t-47.5 -31.5t-51 -21q-16 0 -35.5 5.5t-41.5 13.5q-23 6 -50.5 0.5t-56.5 -5.5q-9 0 -18 1t-19 4q-37 8 -73.5 31.5t-73.5 46.5 q-10 10 -23 37.5t-26 59.5t-23 61.5t-14 43.5q-6 29 -7 62t-1 55q0 13 -2.5 34.5t-5.5 45t-6.5 46t-6.5 38.5z" />
<glyph unicode="D" horiz-adv-x="817" d="M77 1059v19q2 87 15 151q-6 37 -7 67.5t-1 67.5q0 29 1 56.5t7 49.5q-6 43 -7 82t-1 82q15 0 32 -0.5t36 -1.5h8q34 0 59 13q40 0 96 -1t114 -7t110.5 -17.5t85.5 -32.5q25 -14 50 -53t45 -87q14 -38 23.5 -77.5t11.5 -80.5q0 -17 -3 -32q0 -25 1.5 -64t4.5 -82.5 t8.5 -86.5t13.5 -76q0 -14 -5 -37.5t-5 -40.5q0 -21 1 -41t3 -39q1 -6 1 -12.5v-13.5q0 -14 -1.5 -28t-3.5 -29q-3 -37 -3 -78v-21q1 -26 1 -51.5t1 -51.5q0 -26 0.5 -51.5t-0.5 -49.5q-1 -49 -9 -93q-4 -12 -9.5 -37.5t-9.5 -52.5q-3 -16 -5.5 -32t-4.5 -33 q-16 -23 -29.5 -43.5t-27.5 -42.5q-18 -22 -56 -36t-82.5 -21.5t-89 -10t-74.5 -2.5q-38 0 -76.5 2t-76.5 8q-11 0 -32 -1t-42 0t-37 5.5t-16 14.5q-6 23 -5 41.5t4 35.5t7 34t4 36q0 43 -5 86.5t-5 85.5q0 54 6 97.5t15 89.5q0 49 -6.5 97t-14.5 85q0 43 -1 97t-7 106 q-4 32 -5.5 66.5t-1.5 72.5zM268 948q3 -73 5 -141t4.5 -134t7 -131t12.5 -134q2 -23 -2 -57t-7.5 -68t-5 -63t4.5 -44h10q38 -16 91 -16q26 0 50 4t41 12q8 0 14.5 4t6.5 -4q51 54 67.5 131t17.5 165v20q-1 38 -2.5 77t-4.5 79q-2 29 -3.5 57t-0.5 54v27.5t1 26.5v117 q5 28 5 56t-4 58.5t-9 57.5q-6 54 -6 100q0 17 1 33t1 31q0 41 -6 77q-6 38 -28.5 62.5t-52.5 38.5t-65 20t-67 6q-14 -8 -31.5 -9t-25.5 -1h-11q8 -29 4 -61.5t-4 -55.5v-172q0 -45 -4 -101t-4 -122z" />
<glyph unicode="E" horiz-adv-x="708" d="M79 1407v18q0 17 1.5 33.5t3.5 30.5q0 18 -1 40.5t0 44.5t5 41t14 30q5 -2 22 -3.5t41.5 -3t55 -2t61.5 -0.5t61 0.5t54.5 2t41.5 3t22 3.5q19 -5 49.5 -7t63.5 -2q31 0 60.5 2t49.5 7q0 -43 1 -92.5t9 -92.5q-51 -8 -97 -9t-97 -1q-21 5 -47.5 6.5t-54.5 1.5 q-29 0 -57 -1.5t-54 -6.5q-9 0 -11 -8q8 -133 9.5 -258t1.5 -256q4 -8 14 -12t23.5 -6t28.5 -3t30 0q23 3 44 3q5 0 10.5 -0.5t10.5 -0.5q32 -2 64.5 -5t67.5 -3q36 0 75 6q1 -17 2 -38.5t3 -47.5q1 -8 1.5 -16t-0.5 -16q0 -30 -6 -56q-51 0 -95 -1t-89 -9q-51 0 -99 -5 t-85 -5q2 -24 3.5 -48.5t1.5 -50.5v-25.5t-1 -25.5q-2 -39 -3 -76.5t-1 -72.5q1 -30 -2 -59t-5 -57q-1 -10 -1.5 -19t-1.5 -18q0 -38 10 -71q35 -13 81 -13h10.5t11.5 1q29 4 56.5 6t53.5 6q45 0 93 -5t91 -5v-184h-125q-46 -4 -88.5 -5.5t-80.5 -1.5h-19q-42 1 -84.5 5 t-85.5 12q-22 0 -57 -3q-36 -3 -52 13q-3 7 -4.5 18.5t-2.5 24.5t-1 24.5v18.5v146q0 23 1 46t7 52q-6 87 -6 177v15q0 98 2 195.5t2 195t-6 191.5v176q0 17 -1 40t-3 52q-1 10 -1 19z" />
<glyph unicode="F" horiz-adv-x="696" d="M78 344q0 29 5 62.5t5 62.5v164q0 45 0.5 86.5t2.5 82.5q1 14 1 27.5v27.5q0 28 -1 56.5t-3 57.5q-2 19 -3 37.5t-1 36.5q0 16 0.5 30.5t2.5 28.5q2 17 3 33.5t1 33.5q0 29 -3 60q0 35 4 71.5t4 71.5q0 16 -4 40t-4 46v164q14 0 31.5 1t25.5 9q29 -8 68 -9t68 -1 q38 0 85.5 2.5t89.5 2.5q22 0 40.5 -1t33.5 -4q10 -4 27 -3t37 3t41 3t39 -3q0 -10 3 -39t5 -61q1 -11 1 -20.5v-18.5v-19q-2 -27 -9 -34h-393v-9q0 -16 4 -34.5t4 -32.5q-3 -36 -4.5 -76.5t-2.5 -82.5t-1 -82.5v-76.5q2 -8 1 -24.5t-1.5 -34t1 -33.5t7.5 -24 q4 -7 15.5 -10.5t25 -5.5t27 -3t20.5 0q29 0 67.5 -3t78.5 -4h75q37 2 57 7h11q-13 -33 -13 -70q1 -5 1 -15q4 -41 12 -79l-11 -10h-366q11 -24 11 -50q0 -13 -3 -27q-5 -21 -6.5 -42.5t-1.5 -44.5q3 -30 3 -66v-19q-1 -36 -2.5 -75.5t-3.5 -81t-3.5 -82.5t-1.5 -79 q-4 -15 -2.5 -37t4.5 -45t3.5 -45t-5.5 -37q-23 0 -44.5 -4t-43.5 -4q-15 0 -26.5 1t-23 2.5t-24.5 3t-31 1.5v96q0 66 -5 125.5t-5 124.5z" />
<glyph unicode="G" horiz-adv-x="808" d="M61 806q0 18 5 46q4 10 3.5 24t-2.5 30t-3 32t2 31q6 44 6 79q0 14 -1 27t-1 26q0 34 6 68q3 34 3.5 68t2.5 68t6.5 68.5t15.5 70.5q19 50 54 88.5t79 64.5t95 39.5t102 13.5q100 0 189 -46q52 -36 79 -81t39 -96t14.5 -105.5t6.5 -109.5q0 -25 3 -50t-3 -46h-49.5t-50 1 t-47 2.5t-40.5 4.5q-4 38 -5 76.5t-3 74.5t-7 67.5t-17 54.5q-5 11 -19 24.5t-34 25t-43.5 19.5t-47.5 8q-20 0 -41 -8q-43 -37 -55 -77q-12 -13 -18 -39.5t-8 -59.5q-1 -19 -1 -39v-29q2 -36 5 -66q1 -8 1 -14.5v-13.5q0 -25 -3 -45q-8 -83 -11 -165.5t-3 -166.5 q0 -55 1.5 -106t3.5 -100q6 -38 6.5 -87t2.5 -96.5t8.5 -88.5t23.5 -64q18 -26 54 -39.5t76 -13.5t75 13.5t51 39.5q20 38 20 102l-1 129v265h-168q-3 21 -6.5 40t-6 38.5t-4.5 42.5t-2 53q35 0 72 -4.5t72 -4.5q33 6 61.5 7.5t61.5 1.5q14 0 29 1l30 2t29 0.5t24 -3.5 q0 -111 -4 -215.5t-4 -214.5q-1 -19 -1.5 -38.5t-0.5 -39.5q0 -36 1.5 -72.5t5.5 -74.5q6 -66 6 -132q0 -47 -3 -94h-155v70q-4 -1 -7 0q-4 0 -4 8q-6 -18 -20 -32.5t-32 -25.5t-39 -17.5t-42 -8.5q-25 -10 -52.5 -12.5t-57.5 -8.5q-8 0 -23.5 3t-23.5 -3q-30 8 -61 24.5 t-59 38.5t-50 49t-35 56q-8 21 -12 45t-7 50.5t-6 53.5t-8 52q-3 38 -7 83t-9 99q-2 30 -3.5 59t-1.5 58q0 42 3 82q0 20 -1 37t-3 30q-1 5 -1 18z" />
<glyph unicode="H" horiz-adv-x="843" d="M76 770v13.5t1 14.5q3 44 3 72q3 7 3.5 22t0.5 34t-0.5 40.5t-1.5 40t-1.5 31.5t-0.5 17v418q-3 17 -3 33q0 22 4 42q3 18 3 34q0 19 -4 34q12 2 28.5 4t35.5 4.5t38.5 4t36.5 1.5q14 0 25.5 -1t19.5 -5q-2 -29 -3 -58.5t-1 -60.5v-31t1 -31q5 -96 9 -190.5t5 -185.5v-14 q0 -42 -3 -80t-8 -74q0 -10 10 -10q33 3 62 3h15q28 -1 54.5 -1.5t53.5 0.5t56 5t63 11q-16 18 -20 46t-2 59.5t6.5 63.5t4.5 57q0 29 1 52t10 44q-8 29 -9.5 52.5t-1.5 43.5v291q42 0 91.5 1t103.5 7v-8q-6 -18 -7 -33t0 -31t1 -34.5t-4 -44.5v-37t1 -42.5t3 -40t6 -28.5 v-229q1 -10 1 -20.5v-21.5v-23q-2 -53 -6.5 -111.5t-4.5 -108.5q0 -109 2 -234t16 -258q2 -14 2.5 -28t-0.5 -28v-27q-2 -40 -4.5 -79.5t-7.5 -79.5q-1 -7 -1 -13.5v-13.5q0 -27 3 -54h-49t-53.5 1t-50.5 3t-42 6q-9 32 -9 68q0 12 1 24q4 49 9 100q1 7 1 14v15 q0 10 -0.5 20t-1.5 21q-1 14 -1.5 28.5t-0.5 29.5v22.5t1 23.5q6 83 8 173q1 20 0 39q0 69 -7 131q-20 1 -39.5 1t-37.5 -1q-33 -2 -67 -4t-69 -2q-23 0 -45 1t-45 5q0 -27 1.5 -62.5t3.5 -73.5t3.5 -77.5t2.5 -74.5v-30v-27t-1 -24v-156q-2 -9 -1.5 -26.5t2.5 -38.5 t4.5 -43.5t3.5 -42t-1 -33.5t-8 -18q-16 -5 -42 -7h-48q-26 1 -51 4t-43 3q0 104 -5 192t-5 176q0 45 5 83.5t5 80.5q-4 16 -3.5 47t1 63.5t-0.5 59.5t-7 33q-4 19 -4 47z" />
<glyph unicode="I" horiz-adv-x="366" d="M67 284v28q0 26 0.5 54t2.5 57t6.5 57t11.5 52q-8 14 -9 27.5t-1 28.5q0 23 1 40t9 40q-8 29 -9 52t-1 52q-6 97 -6 199.5t6 199.5q7 35 7 78v9q-1 45 -5 90.5t-6 93.5v24q0 18 1 36.5t3 37.5q0 23 -3 48.5t3 47.5h49q9 -3 31 -5t47 -2t47 2t31 5q0 -93 2 -177.5 t6 -162.5t3.5 -155.5t-3.5 -155.5q0 -122 3 -250q1 -11 1 -22.5v-22.5q0 -103 -12 -207q-9 -64 -9 -129v-33.5t2 -32.5q5 -49 6 -97.5t1 -96.5q0 -23 3 -47t-3 -39q-26 0 -51 -1t-50 -3q-8 -1 -17 -1h-17q-17 0 -34.5 1.5t-35.5 3.5q-4 57 -7 130.5t-4 145.5z" />
<glyph unicode="J" horiz-adv-x="546" d="M18 14v193q30 -12 69 -12h8t9 1q33 2 65.5 13t59 31t43 48t16.5 64q0 5 0.5 9.5t-1.5 9.5q-4 13 -5 26.5t-1 29.5v11t1 12q1 5 1 11v12q0 37 -7 78q-3 27 -4 64t-1 75.5t1 75t4 63.5v144q-6 44 -9.5 107t-5.5 127.5t-2.5 123t-0.5 92.5q0 33 -1.5 59.5t-2.5 51.5 t-0.5 51.5t4.5 59.5h18q51 0 96.5 -1.5t96.5 -9.5q0 -43 -5 -92t-5 -98q0 -43 5 -86t5 -88q-7 -53 -10.5 -106.5t-3.5 -106.5q0 -26 1 -51.5t3 -51.5q9 -102 13 -199t6 -191v-45q0 -82 -4.5 -162.5t-14.5 -159.5l-8 -9q-8 -16 -15.5 -38.5t-13.5 -38.5q-8 -6 -15.5 -18.5 t-13.5 -20.5q-23 -18 -57 -31.5t-71.5 -21.5t-75.5 -12t-68 -4h-11q-26 1 -49 3.5t-43 7.5z" />
<glyph unicode="K" horiz-adv-x="823" d="M73 74v14q1 22 3 43t6 31v268q-5 43 -5 93v17q1 60 4 123.5t7 129t4 127.5q3 26 3 56v14q-2 57 -10 119.5t-11 117.5q6 43 7 79.5t1 73.5v86q0 43 1 81t9 81h193q2 -25 3 -58t1 -67.5t-1 -69t-3 -63.5q0 -66 -1 -125t-10 -125q0 -43 1 -94t10 -88h18q0 19 11 44.5 t26 52.5t29 52t20 43q21 39 37 77t29.5 75t27 73t31.5 72q15 21 30 44.5t28.5 49t23.5 52.5t14 55q22 5 48 6.5t53 1.5t53 -1.5t47 -6.5v-8q-10 -10 -23.5 -38t-27 -60.5t-25.5 -64t-20 -48.5q-23 -37 -37 -68.5t-29 -66.5q-23 -43 -39 -86t-39 -86q-12 -21 -25 -43t-24 -45 t-18.5 -49t-7.5 -56q18 -36 35.5 -76.5t34 -82t32.5 -82t31 -76.5q8 -21 14 -45.5t12 -50t13 -50t18 -45.5q8 -37 24.5 -72.5t24.5 -70.5q8 -29 14.5 -59.5t14.5 -65.5q14 -29 23.5 -56.5t23.5 -49.5h-8q-3 -3 -18 -6t-36.5 -5.5t-45 -4.5t-42.5 -2q-17 0 -27.5 1.5 t-12.5 5.5l-9 17q-3 6 -4.5 12t2.5 10q-33 43 -50.5 92.5t-32.5 100.5t-30.5 102t-39.5 99q0 16 -1 24t-10 25q-6 23 -13 46t-15 40q-11 11 -18.5 32t-15.5 41.5t-17.5 36t-24.5 15.5q-4 -15 -12.5 -28t-17.5 -25.5t-16.5 -25.5t-10.5 -28q-10 -26 -13 -58t-3 -60v-18 q1 -40 3 -79t2 -72q-3 -22 -3 -59v-19q1 -25 1 -49t1 -49q0 -24 0.5 -46t-0.5 -41q-2 -38 -9 -44q-6 1 -21.5 -0.5t-34.5 -3.5t-40.5 -4t-39.5 -2q-16 0 -28 2t-18 8q-6 14 -7.5 32t-1.5 34z" />
<glyph unicode="L" horiz-adv-x="696" d="M85 1461v13q0 13 1.5 26.5t3.5 27.5v94q43 0 80 5t72 5h39q13 -71 13 -140v-10q-1 -36 -2 -71.5t-5 -70.5t-6.5 -70.5t-4.5 -72.5q-1 -12 -1.5 -24.5t0.5 -25.5q0 -51 6 -105q2 -65 3 -131t1 -135v-69t-1 -71q-2 -108 -2 -215t-1 -216h65q29 0 57.5 -1t57.5 -7 q32 3 77.5 7.5t83.5 4.5q15 0 27.5 -1t20.5 -3q0 -43 1 -90t9 -90h-10q-23 0 -37.5 -5.5t-30.5 -5.5q-19 -4 -46 -4q-26 0 -57 4t-57 11q-37 -2 -74 -9q-11 -2 -23 -3.5t-25 -0.5q-9 0 -18.5 0.5t-20.5 1.5q-17 0 -46 -3q-14 -2 -27.5 -2.5t-27.5 -1.5q-14 0 -27 -0.5 t-24 0.5q-24 2 -31 7q-6 0 -7 9.5t-0.5 22l1 25t-1.5 19.5q-3 26 -3 48q0 6 0.5 12t0.5 12q4 51 10 102q3 27 3 51q0 22 -3 43q-6 72 -6 152t6 152q9 64 9 130q0 22 -1 44q-4 89 -9 180q-1 13 -1 25.5v25.5q0 17 0.5 35t1.5 35q-6 16 -7 24t-1 25v198q0 14 -1 30.5t-3 34.5 q-1 6 -1 12z" />
<glyph unicode="M" horiz-adv-x="1110" d="M61 559q6 37 7.5 73t1.5 73q-3 12 -3 26q0 8 1 17.5t4 19.5q4 13 4 31q0 20 -6 39q-2 22 -3 43t-1 41q0 52 5 104t11 104q-10 49 -11 95.5t-1 97.5v37q4 37 5 70.5t1.5 67.5t1 69t4.5 75q35 0 66.5 -6t66.5 -6q13 -2 25.5 -3t24.5 -1h12t12 1q17 2 35 2.5t36 0.5 q8 -49 15.5 -99t15.5 -101q13 -48 13 -101v-20q-1 -7 -1 -13v-13q0 -46 9 -87q29 -189 67.5 -378.5t73.5 -366.5h12l8 12q0 29 5 58t11.5 59t13 61t9.5 64q0 14 6.5 28.5t6.5 28.5q12 72 23 147.5t34 141.5q6 45 8 82.5t8 72.5q23 66 28 132.5t11 138.5q10 37 16.5 74 t12.5 79h12q7 -3 18 -4t26 -1q24 0 53.5 2t59 3.5t56.5 2t45 -2.5v-413q-7 -48 -8 -87.5t-1 -86.5q3 -82 9 -175q0 -45 1 -92t12 -92q1 -11 1 -22.5v-23.5v-24q-1 -27 -3 -55t-4.5 -55t-4.5 -52t-2 -46v-97q0 -45 1 -88.5t12 -97.5v-32.5t-1 -36t-4 -30.5t-8 -16 q-13 -8 -35.5 -11t-48 -3t-51.5 1t-47 1q0 60 -1 116.5t-7 116.5q0 69 1.5 148.5l3 159t2.5 155t1 137.5q0 57 -1 109.5t-7 103.5q0 8 1 18t2 20.5t0.5 20.5t-3.5 17l-6 -2q-4 -4 -4 -6q-8 -35 -14.5 -73t-6.5 -83q-37 -146 -62.5 -298.5t-54.5 -301.5q-6 -24 -9.5 -51 t-6 -53t-5 -51.5t-7.5 -46.5q-2 -13 -3.5 -27.5t-1.5 -31.5v-18q0 -38 -12 -59q0 -3 -26 -5t-58 -2.5t-60 -0.5h-32q-23 87 -39 167.5t-39 162.5q-14 78 -22 161.5t-17 155.5q-23 126 -47 243t-47 241h-12q8 -26 8 -52.5t-8 -52.5q-3 -22 -4.5 -48.5t-1.5 -54t1.5 -53.5 t4.5 -49q0 -29 -1 -62.5t-7 -61.5v-291q6 -57 7 -110.5t1 -110.5q7 -31 11.5 -62.5t4.5 -63.5q0 -14 -1 -28.5t-3 -30.5h-184q-8 28 -8 54t2 52.5t5 54.5t1 60q0 45 -1 92.5t-11 92.5q5 22 5 39q-1 10 -2 19t-3 18q-9 37 -9 64v5z" />
<glyph unicode="N" horiz-adv-x="833" d="M70 77q0 48 3.5 96.5t8.5 96.5q0 48 -2 89.5t-4 83.5q-1 14 -1 28.5v28.5v30q1 23 2.5 47.5t4.5 51.5q-6 14 -7 33.5t-1 33.5q3 15 2.5 31.5t-2 34.5t-2.5 36t2 36q6 35 13 76.5t7 78.5q0 6 -1 13.5t-11 13.5v207q9 63 9 132v35t-2 36q-5 54 -6 105t-1 99q37 0 66 -2.5 t61 -2.5q15 0 31.5 1t35.5 4q23 -97 45.5 -187.5t46.5 -179.5t50 -178t55 -184v-47q12 -45 22.5 -84t26.5 -82q2 -7 5.5 -20t8.5 -26t10.5 -22.5t11.5 -9.5t11 11q-8 14 -7 39t5 54t8.5 58t4.5 51q0 65 2 143q1 76 2 156q1 53 1 105q-1 26 -1 51q0 76 -4 137q-4 29 -3 60 t3 60.5t3 56t-3 46.5q4 0 12.5 -1t18 -2t19.5 -0.5t17 3.5q29 0 59.5 -4t67.5 -4v-20q-12 -52 -12 -113v-18q1 -36 1.5 -69t0.5 -62t-1 -58.5t-7 -58.5q-2 -15 -3.5 -31t-1.5 -33q0 -15 1 -31t3 -33q9 -70 9 -142q-1 -26 -1.5 -53t-0.5 -53v-40.5t1 -40.5q2 -48 2.5 -95 t1.5 -95t1 -96v-33q0 -32 -1 -64q-1 -48 -3.5 -95t-7.5 -95q0 -51 4 -101.5t4 -101.5q-32 -7 -71 -7q-10 0 -19.5 0.5t-19.5 1.5q-29 2 -52.5 3.5t-40.5 1.5q-10 29 -17 57.5t-22 57.5q-12 37 -22 75t-19.5 76.5t-20.5 76t-26 73.5q-10 23 -12 44t-8 44q-23 60 -39.5 118 t-38.5 115q-8 15 -15.5 50t-16.5 72.5t-19.5 68t-24.5 35.5q0 -16 4 -25.5t4 -26.5q0 -42 -4 -81.5t-4 -82.5q0 -29 -1 -59.5t-11 -64.5v-50t1 -58t3.5 -60.5t7.5 -57.5q0 -29 -1 -62.5t-11 -62.5q0 -23 6 -48t6 -42q2 -15 3 -32.5t1 -37.5v-55q0 -20 1 -37t3 -32h-8 q-15 4 -37 3t-47.5 -3.5t-52 -5.5t-49.5 -3v9q-2 23 -3 45.5t-1 45.5z" />
<glyph unicode="O" horiz-adv-x="841" d="M50 559v23t1 24q3 59 3 127v35q-1 72 -2 149v44q0 55 2 111q2 78 10 152t26 140.5t48 122t75 94.5q18 18 36.5 27.5t37.5 14.5t39 8t41 7q5 0 12.5 -2.5t15.5 -2.5q10 0 19 5q37 -4 75 -10t73.5 -17.5t66.5 -29.5t53 -47q21 -25 37.5 -63.5t28 -85t19.5 -97.5t13 -101 t7 -95t2 -80q0 -41 -3 -70v-201v-63.5t4 -59.5q1 -10 0 -19q0 -45 -14 -87q-6 -29 -3 -46t3 -40q-4 -40 -6.5 -80t-8.5 -77t-17.5 -70.5t-32.5 -59.5q-29 -36 -59.5 -60t-64.5 -40.5t-72 -26.5t-83 -16q-6 -4 -20.5 -4t-30.5 2t-31 5.5t-22 6.5q-25 6 -40.5 10.5t-28 9 t-24.5 11t-30 16.5l-23 23q-16 13 -16 6q-55 108 -85.5 232t-30.5 245zM242 885q8 -72 10 -139.5t10 -139.5q0 -14 -5 -26.5t-5 -20.5q-4 -22 -3 -61t4.5 -81t8 -79t8.5 -55q16 -29 36 -54.5t42 -42.5q14 -6 27.5 -8t27.5 -10q16 0 28.5 5t21.5 5q49 14 73.5 43t40.5 72 q6 6 8.5 19.5t10.5 27.5q0 78 5 162.5t5 171.5q-4 26 -5.5 53.5t-1.5 56.5v14q2 68 15 134q-6 29 -7 57.5t-1 57.5q-8 14 -3 32.5t11 34.5q-1 11 -1.5 22.5t-2.5 22.5q-2 18 -3 34.5t-1 25.5q3 15 3 31q0 25 -8.5 56.5t-23.5 61t-35 53.5t-43 35q-14 8 -27 9t-30 1 q-14 0 -27.5 -1t-27.5 -9q-8 -3 -18 -11t-19.5 -17.5t-18 -19.5t-12.5 -17q-13 -23 -20 -43.5t-11 -41t-7 -42t-9 -45.5q-4 -18 -6 -40.5t-3 -47t-1 -49.5v-46q0 -43 -1 -79.5t-9 -71.5z" />
<glyph unicode="P" horiz-adv-x="800" d="M66 311q0 19 2.5 39.5t7.5 42.5q4 33 4 69t-4 76q-4 39 -6 78.5t-2 79.5q0 66 0.5 135.5t2 140t5.5 139.5t10 132q3 30 3 55v12q-1 23 -3 45l-4 44t-4 46t-2 52q0 8 -1 29t-0.5 43.5t3 41.5t8.5 23h127q41 -10 90 -10h15l54 2t55 2q8 1 15.5 1.5t15.5 0.5q48 0 91 -7 t86 -30q14 -6 22.5 -18t16.5 -19q24 -23 38 -40t21 -34t9 -38t2 -52q0 -16 2 -35.5t6 -43.5q3 -33 6 -70t5 -79l3 -75q0 -46 -4 -97t-15 -101t-31 -95.5t-52 -80.5q-22 -22 -51 -36t-60 -23t-62.5 -15t-60.5 -14q-14 -2 -29 -2q-20 -1 -41 3q-37 6 -65 7q-22 0 -33 -8 q0 -59 -0.5 -118.5t-1.5 -122.5v-31q0 -106 12 -195q4 -19 4 -41q0 -20 -5 -43q-9 -39 -9 -92q-11 2 -33 2.5t-48.5 0t-54.5 -1.5t-50 -1q0 17 1 39.5t3 49.5q1 9 1 18v18q0 17 -1.5 34.5t-3.5 34.5q0 21 -3 45t-5 51q-1 9 -1.5 18t-0.5 19zM267 1129q0 -40 4 -80.5 t12 -79.5q2 -16 3.5 -32t1.5 -32q0 -11 -1 -21t-1 -20q0 -26 5 -51q30 0 65 0.5t67 4.5t57.5 11.5t35.5 22.5q9 11 16 35t12 55t9 66.5t6.5 69t3.5 62.5t1 48q0 50 -2.5 83.5t-12 60.5t-29 53.5t-53.5 62.5q-10 6 -27 7t-36 0.5l-38 -1t-34 3.5q-10 -5 -21 -5h-13.5 t-14.5 -5h-11q4 -29 6 -60.5t6 -65.5q1 -13 0 -25q0 -52 -12 -93q-2 -18 -3.5 -36.5t-1.5 -38.5z" />
<glyph unicode="Q" horiz-adv-x="841" d="M46 1019q0 50 4.5 116t14.5 133t27.5 128.5t42.5 102.5q15 29 38 49.5t50 36.5t57 28t60 23q23 6 38 8.5t38 8.5q98 0 162.5 -24.5t105.5 -70t63.5 -109.5t36.5 -144q8 -57 10.5 -114.5t8.5 -115.5q0 -16 -4 -30.5t-4 -30.5q5 -28 5 -59q0 -11 -1 -23t-1 -23q0 -31 5 -59 q2 -27 3.5 -55t1.5 -57q0 -60 -4 -122t-9 -122q-8 -30 -9 -56.5t-1 -52t-1.5 -51t-9.5 -53.5q-23 -51 -44 -103t-44 -112q-14 -14 -28.5 -17.5t-36.5 -11.5q2 0 6 -4t4 -6q10 -6 25.5 -19.5t31.5 -29t31.5 -31l25.5 -25.5h-8q-8 -39 -41 -72q-17 -17 -31.5 -33t-25.5 -32 q-4 3 -17.5 12t-31 22t-37 27.5t-36.5 27.5t-29 23.5t-15 14.5q-2 7 -10 18.5t-18 23.5t-20.5 22t-18.5 14q-15 7 -29.5 8t-29 0t-29 -1.5t-29.5 3.5q-21 7 -40.5 20.5t-37.5 30t-34.5 34t-31.5 32.5q-8 12 -10 21t-10 26q-28 72 -43 145.5t-15 150.5q0 39 3 81 q0 43 -6.5 87t-14.5 87q0 23 1 43t9 33q-8 8 -9 20t-1 20v107q-3 35 -3 81zM252 924q1 -28 3.5 -54t6.5 -49v-368q6 -43 10 -82t13 -73.5t25.5 -63.5t47.5 -52q6 -5 10.5 -9t9.5 -4q4 0 9 5q7 -4 15.5 -8.5t19.5 -9.5q12 -6 24 -6t21 4q42 18 68 45t40.5 62t19.5 78.5 t5 94.5q0 11 1 23t3 23q1 5 1 15q0 8 -1.5 16.5t-3.5 18.5q-3 21 -5 42t-2 43v11q1 48 2.5 96t6.5 97q1 8 1 16.5v16.5q0 33 -3 66q0 29 -1 62t-3 68q-1 11 -1 22.5v22.5q0 22 1.5 41.5t3.5 36.5q0 29 -6 61t-14 54q-6 37 -11 68t-18.5 54t-40 38.5t-74.5 21.5 q-8 -4 -18.5 -5t-22 -2t-23 -5t-22.5 -14q-24 -19 -36.5 -44t-19.5 -54.5t-11 -61t-11 -63.5q-8 -33 -13 -81t-7 -102v-56v-56z" />
<glyph unicode="R" horiz-adv-x="817" d="M67 1590q0 21 3 40q31 0 63.5 -3t61.5 3q20 -4 41.5 -6t44.5 -2h19q29 1 58.5 1.5t59.5 1.5h16q24 0 50 -1t51.5 -5t49.5 -12.5t44 -23.5q12 -12 25 -26t26 -30.5t25 -33.5t20 -35q7 -15 8 -30t0 -29.5t-1.5 -28.5t3.5 -29q4 -35 7 -69.5t6 -69.5q2 -23 3 -46t1 -46 q0 -34 -2.5 -70t-10 -71t-19.5 -67.5t-32 -61.5q-8 -12 -18.5 -19t-22 -13t-23.5 -11.5t-24 -14.5v-10q9 -7 16.5 -24t13.5 -40.5t10.5 -51t9 -54t9 -49.5t9.5 -39q37 -134 69.5 -256t55.5 -246q-29 0 -54.5 -2t-48.5 -6q-28 -5 -52 -5q-18 0 -38 3q-23 101 -46.5 191.5 t-46 177.5t-43 174t-38.5 180q-13 0 -44 -2t-61 -2q-15 0 -28 1t-21 3q-9 -19 -9 -44v-13.5t2 -13.5q5 -21 6 -44t1 -49q-3 -30 -3 -68v-20q1 -51 3 -106t3 -109v-21q0 -39 -3 -71q-4 -22 -3 -45t2 -43.5t0 -37.5t-9 -28q-36 -12 -77 -12h-12q-24 1 -45 1.5t-38 0.5v10 q-13 30 -13 63v12q3 38 3 89q5 20 5 40q0 7 -0.5 14t-1.5 15q-2 20 -5.5 39t-7.5 38q8 29 9 62.5t1 61.5q0 105 -3 232.5t-4 259.5q-1 66 -1 128v42q0 42 1 84q1 62 2.5 115.5t4.5 101.5q3 23 3 44q1 17 -1 34t-6 33q-8 35 -9 70zM262 1253q0 -26 10 -54q2 -7 3.5 -14.5 t0.5 -16.5q0 -8 -1 -18.5t-3 -21.5q-8 -57 -8 -119.5t8 -119.5h11q18 6 41.5 9t49.5 4t52.5 1t48.5 4q0 10 21 11q23 23 37 50t28 56q4 18 5 52v28v46q-2 40 -7 81.5t-12.5 79t-18.5 66t-24 40.5q-12 8 -27.5 12.5t-32 7t-33.5 4.5t-32 5h-107v-105q0 -23 -1 -44t-9 -44z " />
<glyph unicode="S" horiz-adv-x="765" d="M29 1323q0 66 20 129q23 45 57 84.5t70 62.5q20 12 44 20.5t50.5 13.5t52.5 7t49 2h32q32 -2 63.5 -7t60 -14t53 -21t40.5 -29q25 -27 41 -76t26.5 -104.5t16.5 -108.5t10 -88q-9 0 -24 -2t-33 -4t-37.5 -4t-37.5 -2q-19 0 -34.5 2.5t-26.5 9.5v27t-1.5 40.5t-3.5 47 t-6.5 47t-10.5 40.5t-15 27q-23 23 -59 29q-18 3 -37 3l-37 -3q-37 -6 -67.5 -23.5t-40.5 -42.5q-8 -16 -8 -38.5t8 -38.5v-49q14 -60 31.5 -104t54.5 -79q12 -15 22.5 -34t20.5 -38.5t20.5 -38.5t22.5 -34q37 -35 73.5 -66.5t73.5 -68.5q24 -21 46.5 -50.5t42 -63 t35.5 -68.5t28 -68q16 -45 18 -88t2 -86q0 -37 -1 -68t-7 -67q-10 -23 -16.5 -48.5t-12.5 -48.5q-27 -47 -69 -76.5t-92 -47.5t-105.5 -26.5t-109.5 -13.5q-3 -1 -11 -1q-13 0 -30 6q-15 7 -32 15.5t-32 15.5t-26 11t-15 1q-9 0 -23 13q-16 15 -16 7q-33 33 -55 80.5 t-32.5 100.5t-10.5 108.5t10 105.5q23 0 44.5 1t42.5 3q7 1 13.5 1.5t13.5 0.5q27 0 52 -6q0 -36 4 -78.5t14.5 -82.5t29.5 -72t48 -47h86q71 17 106.5 53.5t35.5 108.5v14q-1 22 -3 45t-4 49q-8 23 -19 44.5t-19 43.5q-12 18 -20 36t-16 35.5t-17.5 33.5t-24.5 30 q-35 43 -76 76t-78 68q-14 23 -28.5 44t-28.5 44q-18 26 -38 49.5t-39 48.5t-36.5 52.5t-32.5 60.5q-8 8 -4 16t4 25q0 3 -3 9.5t-6 14.5t-6 16.5t-3 16.5v49q-12 38 -12 80z" />
<glyph unicode="T" horiz-adv-x="698" d="M6 1444v12q6 19 7 42.5t-0.5 48.5t-4 48.5t-2.5 42.5h37q33 -5 66.5 -7.5t68.5 -2.5q15 0 30 0.5t30 1.5q50 2 104 2q8 0 16 1q46 0 93 -3q29 0 56.5 -1t53.5 -3q8 -1 17 -1h17q17 0 34.5 1.5t34.5 3.5q2 -16 7.5 -39.5t7.5 -50.5q1 -10 1.5 -20t0.5 -20v-12 q-2 -26 -9 -44h-230v-8q3 -5 4.5 -18.5t3.5 -35.5q2 -16 0 -33q0 -14 -0.5 -29.5t-1.5 -32.5l-2 -52t-2 -49t-1.5 -41t-0.5 -29q-4 -28 -7.5 -69t-4.5 -85v-26q0 -32 2 -62q2 -42 10 -75q-10 -23 -11 -49.5t-1 -49.5q10 -72 11 -140t1 -140q0 -37 5.5 -79t11.5 -87 q-6 -57 -7 -119.5t-1 -122.5q-23 0 -51.5 -4t-58.5 -9q-16 -2 -29.5 -3.5t-25.5 -3.5q-5 -1 -15 -1q-14 0 -23 3v338q-4 30 -8 58.5t-6 55.5q-1 11 -1.5 21t-0.5 21q0 37 6 77q0 23 -5.5 49.5t-5.5 55.5q17 76 17 174v6q0 49 -4.5 96t-12.5 94q-5 33 -5 59v9q1 30 4.5 57 t7.5 55t4 62q-4 12 -4 30q0 20 4 36q8 34 0 59q-4 0 -4.5 4.5t0.5 11t2.5 12.5t1.5 9q-26 5 -56.5 7.5t-61.5 2.5t-60 -2.5t-54 -7.5z" />
<glyph unicode="U" horiz-adv-x="827" d="M59 1437q1 8 1.5 15t1.5 14q2 20 6 41.5t5.5 43t-1 41.5t-11.5 38q35 6 71 8.5t75 10.5q14 -8 23.5 -9.5t23.5 -1.5q12 -106 12 -216v-23t-1 -24q-2 -67 -4.5 -134t-6.5 -135q-2 -40 -2 -80t2 -81q5 -81 8.5 -158.5t5.5 -149.5v-35q0 -26 -0.5 -50.5t-3.5 -47.5 q-6 -46 -6 -97v-26q1 -27 5.5 -55.5t14 -55.5t25.5 -50t39 -40q32 -22 75 -22h4q8 0 16.5 0.5t17.5 1.5q35 8 61.5 33.5t32.5 60.5q6 15 8.5 35t3 40.5t-0.5 39t-1 28.5q-2 17 -3 33.5t-1 32.5q0 30 3 55q2 16 3 32.5t1 33.5q0 30 -3 63q-8 85 -12.5 168.5t-4.5 168.5v34 q1 34 2.5 65t4.5 60q2 20 3.5 39.5t1.5 38.5q0 27 -3 52q-1 8 -1.5 16.5t-0.5 16.5q0 19 2.5 35.5t7.5 30.5q4 12 3.5 33.5t-3 48t-6 54.5t-6 53t-2.5 43.5t4 25.5q10 -4 41 -3t64 1q32 0 60.5 -1t35.5 -7q5 -14 7.5 -31.5t3.5 -37.5v-20q0 -16 -0.5 -31.5t-1.5 -31.5 q-2 -43 -9 -84t-11 -67q0 -25 -4 -52.5t-4 -56.5v-229q0 -35 5 -76t14 -84v-289q2 -24 3 -51t2 -57v-16q1 -26 -0.5 -51t-4.5 -51q-7 -58 -22 -112.5t-44 -97.5q-12 -12 -26 -19.5t-29.5 -13.5l-31 -12t-30.5 -14q-30 -21 -67 -37.5t-75 -16.5q-29 0 -58 7q-21 3 -43 10 t-43 16.5t-40 22t-34 26.5q-12 8 -24 12.5t-23.5 9t-22 10.5t-18.5 18q-18 35 -26 77t-11 85.5t-4 87t-6 81.5q-5 46 -7.5 90t-2.5 87q0 18 0.5 36t1.5 35q1 23 1.5 46.5t0.5 46.5q0 35 -1.5 69.5t-3.5 69.5q1 36 2 72.5t3 73.5q1 13 1.5 25t-0.5 25q0 49 -6 97 q0 12 3.5 25.5t7 27.5t7 26t3.5 21q0 20 -6 46t-15 48q-1 7 -1.5 13t-0.5 13z" />
<glyph unicode="V" horiz-adv-x="804" d="M0 1636q51 8 102 9.5t111 1.5q23 -99 36 -205t24 -211.5t23.5 -207.5t35.5 -194q6 -51 9 -90t19 -73q10 -30 14.5 -59.5t8.5 -59t9 -58t16 -57.5h10q8 43 20.5 87t18.5 87q0 35 4 71t4 64q0 16 1 25.5t11 24.5q0 23 1 50t7 56q6 33 13 70t12.5 73.5t9.5 70t4 58.5 q16 72 29.5 144.5t30.5 136.5q6 23 7.5 49.5t1.5 53t1.5 51t7.5 43.5q3 3 9 5.5t10 2.5q45 -6 88 -7t88 -1q-4 -43 -9.5 -79t-11.5 -69t-13 -65t-15 -68q-8 -39 -9 -74t-2 -63q-3 -6 -9 -30.5t-11.5 -53t-8.5 -52.5t1 -30q-4 -14 -10.5 -36.5t-12 -46.5t-8 -46.5t1.5 -36.5 q-14 -59 -28.5 -116.5t-30.5 -114.5q-23 -84 -23 -168q0 -43 -3 -86t-11 -86q-16 -75 -29.5 -141t-30.5 -132q-4 -8 -9 -17t-9 -20q-5 -9 -10 -22q-15 4 -43 3t-58 -1.5t-56.5 2.5t-37.5 14q-2 2 -7 18.5t-11.5 41t-13 53t-12.5 54t-9.5 45t-3.5 24.5q0 23 -5.5 43t-5.5 43 q-7 8 -12.5 30t-10.5 52t-9.5 65t-8.5 69t-8 64.5t-8 51.5q-18 66 -29 149t-20 173.5t-20 184.5t-29 181q-14 72 -34.5 140.5t-43.5 141.5z" />
<glyph unicode="W" horiz-adv-x="1214" d="M15 1548q0 41 3 84h19q8 0 33.5 1t54.5 1.5t54 0t32 -2.5q4 -8 4.5 -18.5t0.5 -21t1 -20.5t4 -18q7 -30 10 -62t4.5 -66.5t4.5 -70t10 -71.5q16 -112 25.5 -223.5t31.5 -222.5q0 -35 5 -78t5 -86q3 -15 4.5 -42.5t4 -60t5.5 -66.5t7.5 -62.5t11.5 -47.5t17 -22 q-2 13 -3 25.5t-1 24.5q0 31 6 56q5 23 11.5 48t14.5 51q6 21 6 47q0 11 -1 21t-1 18q0 28 7 49q10 29 10 66q0 8 -0.5 15.5t-1.5 15.5q-2 27 -2.5 53.5t2.5 51.5q8 47 14 88t12.5 79t14 75.5t18.5 77.5q3 15 2 29t-2 27.5t0 26t8 23.5q8 29 8 60t-1 60t1.5 54t12.5 48 q6 12 5.5 23t-1.5 22t1.5 22t12.5 21q51 -8 97.5 -10.5t97.5 -8.5q4 -40 9 -73.5t10 -64.5t10 -61t10 -63q2 -16 3.5 -31.5t1.5 -30.5v-15q0 -35 13 -68q3 -3 4 -23t1 -45.5t0.5 -52t4.5 -43.5q7 -48 11 -90.5t8 -83t8.5 -81t11.5 -83.5q7 -40 15.5 -77t15.5 -74.5 t11.5 -76.5t4.5 -83q8 0 10.5 -4.5t10.5 -4.5q0 9 10 9q-8 29 -8 74.5t8 91.5v57q14 72 18.5 138t18.5 132q23 111 27 226q2 57 10 109.5t22 100.5q0 23 1 53.5t10 53.5v39q6 35 8 77t10 76q19 0 38 1t39 3q7 1 13 1.5t12 0.5q24 0 43 -6q14 0 22.5 -4t16.5 -4q0 -37 -6 -83 t-14 -83q-6 -14 -7 -37.5t-1 -39.5q-16 -78 -25.5 -157.5t-24.5 -160.5q-8 -66 -15 -131t-13 -131q-18 -99 -31.5 -198t-24 -199.5t-20 -202t-20.5 -203.5q-27 0 -68 -2t-80 -3h-19h-26t-23 2q-28 4 -28 13q-18 37 -24 87.5t-7.5 106.5t-3.5 113.5t-12 108.5 q-23 124 -43.5 239.5t-34.5 233.5q-8 66 -10 131t-9 131h-10q0 -20 -20 -20q8 -14 4 -32.5t-4 -35.5q-6 -35 -4 -59.5t-4 -46.5q-4 -27 -8 -46t-7.5 -36t-7 -36t-6.5 -46q0 -43 -2.5 -100.5t-9 -118t-18 -117.5t-29.5 -100v-76q-7 -30 -11 -64t-8.5 -71t-10.5 -76.5 t-18 -79.5q-8 -4 -37.5 -6t-64.5 -2t-64.5 2t-37.5 6q-11 5 -17 27t-9.5 50t-6 55.5t-6.5 41.5q-6 29 -8.5 69t-10.5 77q-6 43 -11.5 92l-11 98t-12 94.5t-14.5 81.5q-12 26 -12 58v25q0 30 -6 52h-11q8 16 3 35t-11 35q2 10 0.5 29.5t-4.5 41t-7 41.5t-9 31q4 8 1 38.5 t-8 68t-11.5 73.5t-10.5 54q-17 96 -27 175q-3 23 -4.5 48t-0.5 51z" />
<glyph unicode="X" horiz-adv-x="811" d="M12 -2q15 56 34 110t40 107.5t42.5 105.5t39.5 103q17 56 32.5 109.5t27.5 105.5q24 105 73 192q-34 66 -51 152q-17 88 -45 166q-21 52 -43.5 109.5t-44.5 120t-41.5 129.5t-34.5 137q29 -4 54.5 -4t50.5 -0.5t49 -3.5t49 -13q0 -12 6.5 -34t15.5 -46t19 -47t16 -39 q14 -40 23 -86t19.5 -92t25 -89.5t39.5 -80.5q16 43 29.5 82t29.5 74q8 6 9 19t1 28q8 20 14 38.5t12.5 37t14 38.5t19.5 41q6 23 8.5 44.5t6 42t10.5 40t22 37.5q43 0 91.5 -4t102.5 -4q-29 -97 -59.5 -187t-69.5 -171q0 -29 -5 -53.5t-13 -53.5q-29 -88 -58.5 -167.5 t-66.5 -160.5q42 -133 86 -264t96 -260q15 -39 25.5 -78l21 -78t22.5 -77.5t29 -75.5h-184q-20 35 -31.5 78t-25.5 88q-35 94 -67 186.5t-70 188.5h-9q-8 -7 -12 -17.5t-7.5 -22.5t-7.5 -26t-12 -29q-16 -39 -30 -79.5t-29 -75.5q-14 -33 -23 -74t-18.5 -82t-22 -77 t-32.5 -58h-193z" />
<glyph unicode="Y" horiz-adv-x="837" d="M14 1651q29 -6 52.5 -7.5t46.5 -1.5h106q16 -72 33.5 -148.5t36 -152t37 -146.5t36.5 -132q6 -49 19.5 -93t28.5 -89v-47h10q0 8 8 8q0 40 6.5 80.5t16 80t21.5 76.5t24 70q11 29 19 60.5t10 64.5q2 32 9.5 61.5t18.5 55.5q29 60 50.5 121t27.5 118h192 q-6 -49 -20.5 -93.5t-36.5 -98.5q-6 -29 -14.5 -62t-14.5 -61q-16 -45 -29.5 -82t-27.5 -72q-8 -31 -15.5 -58.5t-13.5 -55.5q-45 -111 -77.5 -219.5t-67.5 -225.5q0 -29 5 -53.5t5 -52.5v-172q0 -16 -5 -28.5t-5 -21.5q0 -7 -0.5 -23t-1.5 -35.5t-1.5 -40t-0.5 -36.5t1 -24 t3 -4q8 -14 0 -43t0 -43q-9 0 -28.5 -2.5t-42.5 -5.5t-46.5 -5.5t-42.5 -2.5q-25 0 -33 5q0 29 -4 53.5t-4 53.5v346q4 11 7 27.5t5.5 34t3.5 34.5t1 29q-6 23 -18.5 44t-18.5 44q-8 21 -12.5 47.5t-8 53.5t-7 53t-9.5 47q-31 66 -53.5 130t-44.5 130q-23 57 -38.5 123.5 t-29.5 134.5t-31 133t-37 119z" />
<glyph unicode="Z" horiz-adv-x="712" d="M10 164.5q0 23.5 4 28.5q3 18 11 35.5t18 36t20 38.5t17 41q20 45 36.5 89.5t29.5 91.5t28.5 86.5t32.5 72.5q0 14 1 28.5t9 28.5q7 18 14 39t14 43t14 43t15 39q0 16 4.5 24.5t4.5 24.5q16 23 28.5 54.5t20.5 60.5q6 23 8 44.5t12 43.5q16 29 24.5 58.5t24.5 64.5 q0 -7 9 0q8 24 18 46.5t18.5 44t14.5 43t6 42.5l-8 8q-4 -5 -15.5 -6t-27 -1t-32.5 0.5t-32 -1.5q-17 -2 -40.5 -3.5t-49.5 -1.5q-28 0 -57.5 1t-58 3t-53 4t-42.5 5q0 14 -3 41t-5.5 55.5t-3 53.5t3.5 35h71.5t68 -2t61 -5.5t49.5 -11.5q12 -4 22.5 -3.5t21.5 2.5t21.5 3 t22.5 -2q32 -6 62 -6h16q39 2 75.5 5.5t72.5 8.5q18 2 36.5 2t36.5 -2v-135q0 -8 -4 -15t4 -24q-8 -29 -20.5 -50t-26.5 -44q-16 -37 -29.5 -73.5t-30.5 -73.5q-23 -49 -39 -93.5t-38 -89.5q0 -23 -5.5 -46t-13.5 -31q0 -14 -1 -23.5t-9 -24.5q-12 -18 -20.5 -39t-15.5 -42 t-12 -40.5t-9 -33.5v-8q-2 -5 -8.5 -22t-15 -40.5t-17.5 -50t-17 -50t-13.5 -40.5t-6.5 -21q-8 -14 -15.5 -33.5t-13.5 -41.5q-2 -4 -6.5 -16.5t-10 -30.5t-12 -39.5t-12.5 -44.5t-12 -45t-10 -39.5t-5.5 -29.5t1.5 -15q16 2 30 4t27 4q23 4 47.5 7t40.5 3q65 -6 123 -6h46 q62 0 120 -12q-5 -20 -5 -40q0 -13 2 -27q6 -32 13 -64q5 -24 0 -44q-23 -4 -54.5 -6t-66.5 -2q-33 0 -64.5 2t-56.5 6q-15 4 -40 4q-24 0 -53 -4t-52 -10h-270q-4 14 -7.5 44t-4.5 60q-1 29 -1 52.5z" />
<glyph unicode="[" horiz-adv-x="413" d="M55 -336v1970h334v-168h-141v-1642h141v-160h-334z" />
<glyph unicode="\" horiz-adv-x="370" d="M-6 1636h127l297 -1966h-125z" />
<glyph unicode="]" horiz-adv-x="415" d="M27 -176h141v1644h-141v166h333v-1970h-333v160z" />
<glyph unicode="^" horiz-adv-x="831" d="M27 1272l297 364h184l297 -364l-125 -117l-268 324l-262 -324z" />
<glyph unicode="_" horiz-adv-x="602" d="M0 -100h602v-179h-602v179z" />
<glyph unicode="`" d="M135 1464h215l133 -264h-190z" />
<glyph unicode="a" horiz-adv-x="684" d="M29 259.5q0 21.5 0.5 43t1 41.5t0.5 35q2 57 17 102t47.5 79.5t83.5 60t126 43.5q37 10 72 16t69 10v180q-5 92 -94 93q-35 0 -61.5 -17.5t-34.5 -60.5q-6 -35 -7 -73.5t-1 -80.5h-185q0 24 1 52.5t3 58t5 58t8 52.5q18 87 88 139t188 52q74 0 126 -16t85.5 -46 t49.5 -72.5t18 -95.5q0 -40 -0.5 -94.5t-0.5 -112t-0.5 -111.5t-0.5 -93v-334q0 -10 1 -35t2.5 -52t3.5 -50.5t5 -30.5h-184q-1 0 -2.5 7t-2.5 17.5t-2 23t-1 24.5q-35 -42 -84.5 -61t-122.5 -19q-41 0 -79 9t-67.5 30.5t-48 57t-20.5 87.5v18.5t-1 23.5q-1 20 -1 41.5z M221 307q0 -16 0.5 -31t1.5 -27.5t2 -21.5q4 -35 32 -54t67 -19t68.5 20t43.5 62q9 38 9 81v42v34.5t1 36.5v107q-18 -4 -37.5 -8t-37.5 -9q-27 -8 -54.5 -17t-52.5 -34q-26 -26 -34.5 -61t-8.5 -71v-30z" />
<glyph unicode="b" horiz-adv-x="716" d="M57 0v1636h193v-616q7 27 25 49t44 38t58.5 25t68.5 9q81 0 134 -40t73 -128q18 -78 22.5 -172t4.5 -217q0 -62 -2 -123.5t-6.5 -115.5t-9.5 -96t-9 -65q-20 -94 -77.5 -141t-135.5 -47q-148 0 -194 82l-25 -78h-164zM248 571q0 -78 1 -129t2.5 -85.5t3 -58t3.5 -46.5 q5 -18 13 -33.5t20.5 -27t31 -18.5t44.5 -7q85 0 100 92q4 23 6.5 58.5t4 78.5t2.5 89t1 89v84t-1 81.5t-3.5 75t-7.5 63.5q-6 33 -31 54t-67 21q-54 0 -80.5 -26.5t-34.5 -77.5q-8 -49 -8 -122v-155z" />
<glyph unicode="c" horiz-adv-x="667" d="M37 563q0 52 2 105.5t7.5 104.5t13.5 97.5t20 85.5q27 88 93 136.5t171 48.5q132 0 193 -55q62 -55 84 -138q8 -26 11.5 -61t4.5 -70q1 -23 1 -45v-21q0 -31 -1 -49h-186q0 25 -1 66t-6 80q-6 49 -28 78.5t-70 29.5q-84 0 -98 -102q-9 -70 -12 -147t-3 -146 q0 -28 0.5 -70t2.5 -86.5t5 -84.5t9 -66q10 -51 32.5 -71.5t65.5 -20.5t67.5 25.5t28.5 68.5q6 54 7.5 95.5t1.5 64.5h182q0 -42 -0.5 -75t-3 -61.5t-6.5 -54.5t-11 -53q-13 -51 -39 -86t-61 -57t-78 -31.5t-90 -9.5q-103 0 -169 42t-95 115q-13 35 -22 81.5t-14 101 t-7 114.5t-2 121z" />
<glyph unicode="d" horiz-adv-x="708" d="M37 553q0 132 8 242.5t31 179.5q26 78 84.5 119t134.5 41q60 0 101.5 -22.5t64.5 -70.5v594h196q-1 -183 -1.5 -350t-0.5 -321v-830q0 -67 9 -135h-164l-21 90q-35 -54 -81 -76t-103 -22q-35 0 -67.5 7.5t-60.5 25t-49.5 44.5t-33.5 66q-23 69 -35 177.5t-12 240.5z M231 553q0 -87 4.5 -168.5t14.5 -144.5q6 -35 29.5 -58.5t66.5 -23.5q48 0 73 25t30 73q2 23 4.5 55.5t4.5 71.5t3.5 82t1.5 86q0 78 -0.5 129t-1.5 87t-3.5 62.5t-6.5 55.5q-4 35 -31.5 52t-69.5 17q-82 0 -100 -80q-4 -27 -7.5 -64t-6 -79.5t-4 -88t-1.5 -89.5z" />
<glyph unicode="e" horiz-adv-x="673" d="M37 555q0 83 1.5 147.5t6 113.5t12 85t19.5 62q35 86 99.5 132t176.5 46q56 0 98 -12t73.5 -34t52 -51.5t32.5 -64.5q12 -38 19.5 -82t11.5 -101.5t5 -133.5t1 -179h-418q0 -27 1.5 -59.5t4 -66t6.5 -65.5t9 -59q10 -43 36.5 -58t61.5 -15q33 0 59.5 14t36.5 47 q5 18 8 37.5t5 37t3 31.5t1 21h182q0 -21 -0.5 -46.5t-3.5 -53.5t-10.5 -57.5t-22.5 -59.5q-33 -70 -93 -107.5t-165 -37.5q-46 0 -87.5 8.5t-76 27.5t-60 49.5t-40.5 73.5q-10 33 -18.5 67t-14.5 80t-9 109t-3 154zM227 651h230q0 41 -1 79t-3.5 69.5t-5 55.5t-5.5 36 q-18 72 -98 72q-35 0 -60.5 -14t-39.5 -56q-12 -35 -14.5 -99.5t-2.5 -142.5z" />
<glyph unicode="f" horiz-adv-x="454" d="M10 946v180h101v281q0 103 50 171q49 67 171 67q46 0 79.5 -1.5t53.5 -5.5v-174q-5 0 -15 0.5t-22 0.5t-23.5 0.5t-19.5 0.5q-42 0 -61 -25.5t-19 -58.5v-256h144v-180h-142v-946h-196v946h-101z" />
<glyph unicode="g" horiz-adv-x="714" d="M6 -43q0 49 10.5 84t30.5 60t50 41t69 28q-45 10 -74 26t-46 36t-23.5 44.5t-6.5 51.5q0 55 27 92t72 53q-23 16 -39.5 58t-18.5 102q-2 20 -2 58t0.5 78.5t1 76.5t0.5 51q0 48 18 92.5t54 79t90.5 55.5t128.5 21q46 0 80.5 -6.5t60 -17t42.5 -24t28 -28.5q27 35 69 48.5 t85 13.5h9t9 -1v-124q-3 0 -21 -0.5t-39 -1t-39.5 -2.5t-21.5 -5q6 -12 11.5 -29.5t10 -38t7 -42.5t2.5 -43v-43v-62.5t-1 -66.5t-3 -54q-12 -114 -84.5 -173.5t-196.5 -59.5q-48 0 -85.5 10.5t-55.5 24.5q-10 -4 -22.5 -12.5t-12.5 -28.5q0 -31 49 -47.5t148 -28.5 q79 -10 143 -26.5t109 -47.5t69.5 -80.5t24.5 -125.5q0 -148 -95 -226t-278 -78q-156 0 -250 55t-94 183zM174 -4q0 -57 43 -93t137 -36q102 0 146.5 33.5t44.5 105.5q0 32 -14 53t-39 34t-60 20.5t-76 13.5q-15 3 -24.5 5t-17 3.5t-14.5 2.5t-17 3q-61 -16 -85 -55t-24 -90 zM246 806q0 -50 1 -94.5t1 -66.5q0 -48 24 -77t78 -29q57 0 80 29t27 77q0 12 1 42t2 65v35v33q-1 33 -3 52q-2 48 -28 75.5t-75 27.5q-51 0 -77.5 -27t-28.5 -78q-1 -16 -1.5 -31.5t-0.5 -32.5z" />
<glyph unicode="h" horiz-adv-x="696" d="M57 0v1636h195v-616q16 57 64.5 89t121.5 32q88 0 146 -49q57 -49 57 -183v-313t-0.5 -231t-0.5 -162v-105.5t0.5 -61t1.5 -28.5l1 -8h-194v1q0 3 -1 4q-2 5 -2 30.5v79.5v745q0 41 -18 66.5t-68 25.5q-48 0 -77 -32.5t-29 -104.5v-815h-197z" />
<glyph unicode="i" horiz-adv-x="323" d="M55 1194v225h213v-225h-213zM61 61v1065h201v-1056q0 -35 3 -51.5t3 -18.5h-196q-4 2 -7.5 15.5t-3.5 45.5z" />
<glyph unicode="j" horiz-adv-x="327" d="M-74 -199q14 -2 25.5 -2h28.5q45 0 67.5 18t22.5 66v1243h200v-1247q0 -129 -53 -191.5t-170 -62.5q-15 0 -32.5 0.5t-34 1.5t-31 2.5t-23.5 3.5v168zM63 1194v225h211v-225h-211z" />
<glyph unicode="k" horiz-adv-x="679" d="M57 0v1636h197v-944l227 434h193l-217 -415l227 -711h-205l-160 512l-65 -123v-389h-197z" />
<glyph unicode="l" horiz-adv-x="321" d="M59 1636h197q2 -4 3 -23.5t1 -43.5v-1483q0 -42 2 -62t6 -24h-98h-36t-32 -1h-16q-14 0 -14 1q-4 4 -6.5 23.5t-2.5 48.5v1468v28.5t-0.5 28t-1.5 24t-2 15.5z" />
<glyph unicode="m" horiz-adv-x="1040" d="M57 0v1126h193v-106q16 54 63.5 87.5t122.5 33.5q60 0 105 -33t65 -90q20 61 69.5 92t119.5 31q43 0 78 -15.5t59.5 -43.5t37.5 -67t12 -85v-306v-230v-165v-111t1 -68t1.5 -35t1 -13t1.5 -2h-188v1q0 3 -1 4q-2 5 -3 21t-1 52.5v97v154t0.5 224.5t0.5 308 q0 18 -3.5 35.5t-12.5 31t-24.5 21.5t-39.5 8q-22 0 -39.5 -10t-29.5 -26.5t-18.5 -36.5t-6.5 -41v-844h-191v870q0 39 -19 63.5t-61 24.5q-22 0 -40 -10.5t-30.5 -28t-19 -39.5t-6.5 -46v-834h-197z" />
<glyph unicode="n" horiz-adv-x="696" d="M57 0v1126h191v-110q9 33 28 56.5t44.5 39t56 22.5t63.5 7q104 0 152.5 -60t48.5 -166v-366v-253v-161t0.5 -89t1.5 -38t2 -8h-192q-1 0 -2.5 5.5t-2 31.5t-1 79t-1 148t-0.5 239v351q0 54 -20 76t-66 22q-22 0 -41.5 -8t-34 -25.5t-22.5 -46t-8 -69.5v-803h-197z" />
<glyph unicode="o" horiz-adv-x="700" d="M37 563q0 51 1.5 103t6 101.5t11.5 93.5t18 79q15 47 37.5 84t55.5 63t78.5 40t106.5 14q62 0 109 -14.5t81.5 -41t56.5 -63.5t34 -82q6 -28 11.5 -73t10 -96.5t7 -105.5t2.5 -102q0 -46 -2.5 -98.5t-7 -103t-11 -95.5t-14.5 -76q-24 -97 -92.5 -149.5t-186.5 -52.5 q-63 0 -110 14t-80.5 40t-55 62.5t-32.5 81.5q-6 30 -12.5 73.5t-11.5 93.5t-8 104t-3 106zM231 561q0 -37 1 -82t3.5 -88.5t5.5 -80.5t7 -60q18 -86 102 -86t103 88q4 23 7 60t5 79.5t3 87.5t1 82t-0.5 82.5t-2 89t-4.5 80.5t-7 57q-10 48 -35 68t-70 20q-85 0 -102 -92 q-4 -22 -7 -59t-5.5 -79.5t-3.5 -86.5t-1 -80z" />
<glyph unicode="p" horiz-adv-x="714" d="M57 -334v1460h189l2 -96q23 57 69.5 84t112.5 27q72 0 128 -35t81 -117q20 -66 29.5 -172t9.5 -233q0 -126 -5.5 -231t-29.5 -187q-12 -40 -32.5 -71.5t-48.5 -53.5t-61.5 -33.5t-70.5 -11.5q-69 0 -115.5 22.5t-62.5 57.5v-410h-195zM250 575q0 -80 0.5 -131t2.5 -86.5 t5.5 -63.5t9.5 -61q2 -15 9.5 -29t20 -25t29.5 -18t38 -7q42 0 67 26.5t33 69.5q4 24 6.5 61t4 81t2.5 91.5t1 91.5q0 43 1 87v21q0 32 -2 63q-1 41 -5 78.5t-12 68.5t-30 50.5t-64 19.5q-80 0 -97 -89q-8 -43 -12.5 -79t-6 -70.5t-1.5 -70.5v-79z" />
<glyph unicode="q" horiz-adv-x="712" d="M39 511v44q0 80 1.5 140.5t6 108.5t12 86.5t19.5 74.5q29 82 88 127t135 45q61 0 100 -20.5t68 -69.5v81h186v-1300v-84.5v-48t1 -22t3 -7.5h-190l-6 8v404q-20 -37 -60.5 -61.5t-101.5 -24.5q-38 0 -73.5 10.5t-65 31t-51.5 51t-33 71.5q-23 87 -31 176t-8 179zM233 569 q0 -28 1 -72.5t2.5 -91.5t4.5 -91t7 -72q10 -88 100 -88q43 0 66.5 27t34.5 69q12 57 14 138.5t2 184.5q0 49 -0.5 95.5t-2 86t-4.5 70t-7 47.5q-10 42 -36 64t-71 22q-42 0 -62 -25t-30 -79q-6 -34 -9.5 -72.5t-5.5 -77t-3 -73.5t-1 -62z" />
<glyph unicode="r" horiz-adv-x="522" d="M57 0v1126h195v-125q6 32 23.5 58t42 44t55 28t61.5 10q61 0 88 -8v-207q-20 6 -52 9t-69 3q-34 0 -61 -11.5t-45.5 -37t-28.5 -67t-10 -101.5v-721h-199z" />
<glyph unicode="s" horiz-adv-x="636" d="M23 344h186v-15v-25.5t0.5 -31.5t1.5 -34q2 -35 27 -57.5t79 -22.5q48 0 76.5 33t28.5 96q0 35 -6.5 60t-19.5 44.5t-33 36t-48 35.5q-15 10 -28 19t-27.5 18.5t-32 22t-41.5 28.5q-41 29 -70.5 58.5t-48 66t-27.5 84t-9 110.5q0 60 18.5 110.5t54 86.5t88 56t119.5 20 q60 0 108.5 -15.5t83 -43t55 -65t26.5 -81.5q0 -6 1.5 -29.5t3 -50.5t3 -51.5t0.5 -32.5h-184q0 4 -0.5 19.5t-0.5 33.5t-0.5 33.5t-0.5 20.5q-4 35 -24 58.5t-69 23.5q-94 0 -94 -111q0 -30 6.5 -52.5t19 -41.5t30.5 -35t42 -33q31 -23 57.5 -40t63.5 -40 q42 -27 74.5 -56.5t54.5 -67t33.5 -84.5t11.5 -107q0 -154 -77.5 -230.5t-212.5 -76.5q-134 0 -205 51t-86 154q-5 38 -6.5 75.5t-1.5 75.5z" />
<glyph unicode="t" horiz-adv-x="460" d="M4 946v180h88q0 1 0.5 10t1 22.5t1 30t1.5 34.5q1 20 1.5 44t0.5 50l193 6v-197h155v-180h-151v-19t-0.5 -40t-0.5 -74t-0.5 -121.5t-0.5 -182v-255.5q0 -27 5 -43t15.5 -24.5t25.5 -11.5t34 -3q33 0 67 8v-174q-8 -4 -24 -7t-36 -4.5t-43 -2t-44 -0.5q-37 0 -73 10 t-64 34.5t-45 65t-17 101.5v743h-90z" />
<glyph unicode="u" horiz-adv-x="694" d="M53 980.5v105.5v40h195v-13t0.5 -17t0.5 -24q1 -42 1 -110q2 -66 2 -146v-81v-84q0 -85 -0.5 -160.5t-1 -135t-0.5 -89.5q0 -54 23 -77t65 -23q55 0 79.5 32.5t24.5 104.5v823h197v-989q0 -48 1 -86.5t3 -50.5h-186l-8 84q-25 -49 -71 -70.5t-112 -21.5q-48 0 -87 12.5 t-66.5 38.5t-42.5 66.5t-15 97.5v159v160.5t-0.5 154.5t-0.5 142q-1 91 -1 157.5z" />
<glyph unicode="v" horiz-adv-x="690" d="M2 1126h201l145 -868l146 868h194l-217 -1126h-248z" />
<glyph unicode="w" horiz-adv-x="1069" d="M2 1126h203l117 -833l110 833h209l121 -833l106 833h197l-197 -1126h-221q-19 116 -39 219q-8 45 -15.5 89.5t-15.5 89.5t-14 79.5t-10 59.5q-2 9 -3.5 23.5t-2.5 31.5t-2.5 35.5t-3.5 36.5q-4 41 -6 90q-1 -25 -3 -47.5t-4 -42.5q-2 -18 -3.5 -36.5t-2.5 -35.5t-2 -31 t-2 -22q-20 -136 -44 -270t-50 -269h-221z" />
<glyph unicode="x" horiz-adv-x="655" d="M2 0l211 582l-199 544h203l115 -346l117 346h194l-205 -540l213 -586h-202l-130 377l-124 -377h-193z" />
<glyph unicode="y" horiz-adv-x="690" d="M2 1126h201q19 -85 35.5 -164t31.5 -153q12 -63 26 -128t25 -123t18 -106.5t11 -78.5q2 29 9 77t17.5 106.5t23 124t24.5 128.5q14 74 30.5 153t34.5 164h197l-330 -1460h-198l90 375z" />
<glyph unicode="z" horiz-adv-x="591" d="M20 0v166l338 780h-327v180h536v-174l-342 -778h348v-174h-553z" />
<glyph unicode="{" horiz-adv-x="563" d="M35 657v172q51 0 83.5 16.5t51.5 44.5t26 64t7 76q0 45 -6.5 86t-15 84.5t-15 90.5t-6.5 104q0 47 13.5 90t42 76t72 53t103.5 20h137v-166q-53 2 -89 -4.5t-57.5 -24.5t-30.5 -48.5t-9 -77.5q2 -25 8.5 -65t14 -85t13 -90.5t5.5 -81.5q0 -44 -8 -85.5t-27 -75t-50.5 -57 t-78.5 -30.5q49 -6 81 -32t50.5 -63.5t25.5 -82t7 -86.5q0 -58 -6 -118.5t-13.5 -123t-14 -127.5t-7.5 -133q-2 -89 38 -117q39 -28 148 -26v-168h-131q-66 0 -111.5 21.5t-73.5 57.5t-40 83.5t-12 99.5q0 61 6.5 126t14 130.5t14 131t6.5 126.5q0 44 -8 83.5t-27 68.5 t-51 46t-80 17z" />
<glyph unicode="|" horiz-adv-x="415" d="M127 -410v2048h162v-2048h-162z" />
<glyph unicode="}" horiz-adv-x="563" d="M29 -166q111 -2 150 26q41 28 36 117q-1 68 -7.5 132.5t-13.5 127.5t-12.5 123.5t-5.5 118.5q0 42 6.5 86.5t24.5 82t50 63.5t83 32q-47 6 -78.5 29t-50.5 57.5t-27 76.5t-8 85q0 36 6 81.5t13.5 90.5t13.5 85t6 65q2 48 -6.5 79t-30.5 49t-58.5 24t-90.5 3v166h137 q59 0 103 -20t73 -53t43 -76t14 -90q0 -56 -6.5 -103.5t-15 -91t-15 -85t-6.5 -85.5q0 -40 6.5 -76t25 -64t51 -44.5t83.5 -16.5v-172q-49 0 -80.5 -17t-50 -46t-26 -68.5t-7.5 -83.5q0 -62 6 -127t13.5 -130.5t13.5 -130.5t6 -126q0 -52 -12 -99.5t-39.5 -83.5t-73 -57.5 t-112.5 -21.5h-131v168z" />
<glyph unicode="~" horiz-adv-x="753" d="M4 713q23 127 83 188.5t146 61.5q54 0 96 -24t85 -73q14 -15 26.5 -29.5t26 -26t29 -18t34.5 -6.5q39 0 61.5 34.5t31.5 88.5l127 -59q-23 -106 -77.5 -166.5t-142.5 -60.5q-25 0 -47 4t-43 13.5t-41.5 26.5t-44.5 42q-18 18 -31.5 33.5t-27 27t-28 18.5t-34.5 7 q-44 0 -63 -43q-20 -44 -27 -88z" />
<glyph unicode="&#xa1;" horiz-adv-x="376" d="M80 0l22 1237h174l21 -1237h-217zM86 1337v299h207v-299h-207z" />
<glyph unicode="&#xa2;" horiz-adv-x="694" d="M47 803q0 50 1.5 95.5t5 90t11 89.5t19.5 93q20 81 72 130t139 63v141h129v-139q51 -6 88.5 -22t64 -40.5t43.5 -56t27 -67.5q4 -17 7.5 -51.5t6.5 -71.5t5 -70t2 -47h-187q0 27 -1 63.5t-3 69.5q-4 108 -74 125v-790q55 18 70 106q2 8 3.5 27t2.5 41t1.5 42t0.5 31h187 q0 -15 -1 -46t-3.5 -67t-7.5 -71t-13 -57q-23 -75 -77 -119.5t-142 -54.5v-156h-129v156q-87 12 -138 54t-75 120q-8 31 -14.5 74t-11 93.5t-7 107t-2.5 114.5zM254 803q0 -30 1 -68.5t3 -77.5t4 -75.5t4 -63.5q4 -42 16.5 -66t32.5 -36v770q-37 -31 -45 -96q-4 -28 -7 -63 t-5 -73.5t-3 -77t-1 -73.5z" />
<glyph unicode="&#xa3;" horiz-adv-x="722" d="M41 12q4 18 4.5 40t-0.5 46.5t-2.5 49.5t-1.5 47q43 18 85 52.5t72.5 79t44 96.5t-0.5 105q-4 11 -4.5 27t-1.5 32.5t-3 30t-10 17.5q-11 6 -25 8.5t-31 2.5q-22 0 -45 -3t-44 -8q-14 35 -14.5 81t14.5 91q23 0 48.5 2t37.5 18q-15 15 -26 37t-19.5 48.5t-16 56 t-14.5 57.5q-5 35 -9.5 77t-7 88t-2 93.5t6.5 92.5t18.5 87t33.5 76.5t51 60t71 37.5q15 7 33.5 9.5t36.5 3t33 -0.5t24 -1q28 -6 56 -9t53.5 -7t46.5 -10.5t34 -20.5q23 -23 51.5 -54.5t45.5 -60.5q6 -29 6 -69t-6 -75q0 -72 1 -143t7 -143q-15 4 -38 3t-49 -4t-51.5 -6 t-44.5 -3q-4 29 -2.5 72t2 91.5t-2 97t-13.5 87.5t-33.5 63.5t-61.5 24.5q-17 0 -40 -6q-33 -10 -50.5 -37t-25 -61.5t-7 -72t4.5 -69.5q8 -109 26.5 -215.5t59.5 -214.5q23 0 44.5 -2.5t41.5 -2.5q10 0 19.5 1t19.5 4q18 -4 39 -9t41 -8.5t38.5 -5t33.5 1.5v-141 q-20 0 -50 -3t-61.5 -6t-61 -4t-47.5 3q0 -10 -10 -10q8 -16 9 -30.5t1 -37.5q12 -57 8 -109t-19.5 -97t-41.5 -82t-59 -66v-8q53 0 101.5 1t95 1t92 -2.5t92.5 -10.5v-161q0 -9 -8 -11q-22 5 -55 5q-38 0 -79.5 -4.5t-66.5 -10.5q-11 -3 -23 -4t-24 -1q-28 0 -57.5 4.5 t-59.5 10.5q-66 -8 -124 -9t-124 -1z" />
<glyph unicode="&#xa4;" horiz-adv-x="798" d="M18 639v145h76v60h-76v143h76q1 51 2 101.5t3 98t5 90t7 77.5q6 62 26 115t58 93t96 62.5t139 22.5t138 -22.5t94.5 -62.5t58 -93t27.5 -115q6 -66 7 -128t3 -122h-203q-2 54 -2.5 106t-3.5 101q-4 66 -32.5 102.5t-88.5 36.5q-59 0 -87.5 -40t-31.5 -101 q-4 -72 -5 -156.5t-3 -165.5h223v-143h-223v-60h223v-145h-221q1 -44 2 -89t2 -88t2.5 -82.5t3.5 -72.5q4 -61 33.5 -98t83.5 -37q59 0 86.5 37t32.5 98q2 25 3 77t3 118h203q-4 -57 -5 -108.5t-5 -90.5q-20 -162 -96.5 -239.5t-221.5 -77.5q-75 0 -130 19t-92.5 58.5 t-60 99t-32.5 140.5q-4 25 -7 62.5t-5 82t-3.5 93.5t-3.5 98h-78z" />
<glyph unicode="&#xa5;" horiz-adv-x="845" d="M0 1634h223q26 -96 50.5 -182.5t45.5 -165.5l36 -134t32.5 -123.5t23.5 -96.5t9 -55q0 15 9.5 55.5t24.5 96.5t33.5 122.5t36.5 134.5q23 79 48.5 165.5t54.5 182.5h221l-326 -1007v-84h271v-144h-271v-59h271v-145h-271v-195h-215v195h-260v145h260v59h-260v144h260v78z " />
<glyph unicode="&#xa6;" horiz-adv-x="415" d="M127 -410v865h162v-865h-162zM127 733v905h162v-905h-162z" />
<glyph unicode="&#xa7;" horiz-adv-x="616" d="M38 864q-1 25 1 44.5t6 33.5q5 41 17 71t28 52t34 35.5t34 21.5q-45 35 -65.5 80t-20.5 111v119q2 52 19.5 91t48.5 64.5t74 38t95 12.5q100 0 167 -46q68 -46 75 -171v-127h-141v99q-4 100 -88 100q-45 0 -69 -20t-28 -74v-78q1 -27 6 -46.5t16.5 -35.5t30 -29.5 t46.5 -27.5q7 -5 20.5 -12.5t29.5 -16t32.5 -17.5t29.5 -18q60 -40 89.5 -87t39.5 -101q10 -32 7 -87q-3 -57 -13 -87q-6 -40 -18.5 -68.5t-28.5 -48.5t-35 -32.5t-39 -20.5q69 -42 106.5 -98t41.5 -134v-137q-8 -237 -262 -235q-112 0 -189 50q-76 49 -88 183 q0 6 -0.5 25.5t-0.5 41t-0.5 41t-0.5 25.5h172v-106q2 -53 25.5 -81t79.5 -28q54 0 77 25.5t25 85.5v98q-2 27 -9 48.5t-19.5 39.5t-32 33.5t-46.5 30.5q-7 6 -26 17.5t-42 26t-47 28.5t-42 24q-39 28 -62.5 58t-36.5 63.5t-17.5 71.5t-5.5 81zM189.5 835.5 q1.5 -34.5 11.5 -51.5q20 -33 61 -62.5t90 -55.5q27 2 46.5 36.5t23.5 85.5q2 9 2 26t-1.5 34.5t-4 33.5t-6.5 23q-16 42 -53 70.5t-91 56.5q-13 -1 -26 -10t-23 -22.5t-17 -30t-9 -33.5q-1 -13 -3 -35q-2 -31 -0.5 -65.5z" />
<glyph unicode="&#xa8;" d="M109 1198v219h165v-219h-165zM387 1198v219h168v-219h-168z" />
<glyph unicode="&#xa9;" horiz-adv-x="937" d="M35 1069q0 37 0.5 78t1.5 82q2 108 33.5 186.5t88 128.5t135.5 74t175 24q95 0 173.5 -23t135 -73t89 -128t36.5 -189v-281q-4 -224 -114 -334t-316 -110q-102 0 -182.5 27.5t-136.5 83t-86 139t-31 194.5q-1 21 -1.5 52.5t-0.5 68.5zM119 981q2 -105 26 -180t68.5 -122 t109 -69t146.5 -22q89 0 154 21.5t108 68.5t64 122t22 181v254q-4 165 -92.5 242t-255.5 77q-162 0 -254 -77.5t-96 -239.5v-256zM260 1047v56t1 57t2 48.5t3 30.5q3 39 20.5 68.5t46 49.5t65.5 30t79 10q49 0 85.5 -12.5t60.5 -34.5t36.5 -52.5t14.5 -66.5q2 -20 3 -50 t1 -63h-125q0 25 1 50.5t-3 41.5q-7 59 -78 60q-76 0 -82 -74q0 -9 -0.5 -27.5t-0.5 -39.5t-0.5 -42.5t-0.5 -37.5q0 -15 0.5 -36t1.5 -41t1.5 -36t0.5 -23q4 -47 22.5 -64.5t59.5 -17.5q35 0 54.5 15.5t23.5 60.5q2 25 2 52.5v37.5h123q0 -10 -0.5 -28.5t-1.5 -39t-1.5 -38 t-0.5 -25.5q-3 -36 -19 -64.5t-43 -48t-63.5 -30t-79.5 -10.5q-94 0 -145.5 39.5t-57.5 111.5q-4 47 -5 87t-1 96z" />
<glyph unicode="&#xaa;" horiz-adv-x="669" d="M25 818.5q0 22.5 1 47.5t3 49q8 105 70 170.5t186 104.5q31 10 69.5 16t67.5 11v32.5v43.5t-0.5 44.5t-1.5 36.5q0 90 -76 90q-39 0 -63 -16.5t-29 -61.5q-2 -16 -3.5 -27t-2.5 -23.5t-1.5 -29t-0.5 -42.5h-185q0 30 1 54t3 46t5 43t8 45q8 41 28 75.5t52.5 59.5t78 39 t105.5 14q74 0 124.5 -16t82.5 -45.5t46.5 -71t16.5 -92.5q0 -40 -0.5 -90t-0.5 -101.5t-0.5 -101t-0.5 -88.5v-297q0 -26 0.5 -51t1.5 -51q1 -50 8 -66h-186q-1 9 -1.5 18t-2.5 17q-2 14 -3 27.5t-1 21.5q-29 -45 -74 -68.5t-117 -23.5q-30 0 -65 9.5t-66 31t-52 57.5 t-23 89q-1 12 -1.5 30t-0.5 40.5zM31 358v154h606v-154h-606zM222 860q1 -24 1 -47q0 -48 20 -67t62 -19q79 0 98 84q16 54 19 143v113q-17 -1 -34 -3.5t-34 -6.5q-33 -4 -55.5 -14.5t-38.5 -26.5q-23 -20 -29 -47t-8 -62q-2 -23 -1 -47z" />
<glyph unicode="&#xab;" horiz-adv-x="729" d="M35 637v145l327 385v-237l-167 -219l167 -217v-240zM369 637v145l327 385v-237l-170 -219l170 -217v-240z" />
<glyph unicode="&#xac;" horiz-adv-x="724" d="M10 10v187h318v401q-79 14 -131 66q-10 4 -18.5 14t-10.5 20q-37 55 -37 125q0 69 37 121q2 12 10 24.5t21 16.5q52 52 131 66v409h-320v168h705v-168h-324l2 -409q69 -7 125 -62q14 -2 24.5 -15t12.5 -28q16 -29 25.5 -58.5t9.5 -64.5t-10.5 -65.5t-26.5 -57.5 q-7 -25 -27 -34q-56 -58 -135 -68l-2 -401h326v-187h-705zM184 823q0 -45 23 -86q18 4 42.5 11.5t45.5 13.5q-12 -16 -27.5 -33.5t-25.5 -34.5q39 -36 86 -43v97l30 67l31 -67v-97q50 11 90 43q-12 16 -26.5 33.5t-26.5 34.5q20 -6 44 -13.5t44 -11.5q23 41 23 86 q0 47 -27 90q-18 -4 -42 -10t-42 -12q12 16 25.5 31.5t25.5 31.5q-39 36 -86 43v-96l-33 -70l-28 70v96q-49 -7 -88 -45q12 -16 26.5 -32.5t26.5 -32.5q-20 6 -44 12t-44 10q-23 -40 -23 -86z" />
<glyph unicode="&#xad;" horiz-adv-x="548" d="M18 702v211h512v-211h-512z" />
<glyph unicode="&#xae;" horiz-adv-x="937" d="M35 1069q0 78 2 160q3 109 34 186.5t87.5 128.5t135.5 74.5t175 23.5q94 0 173 -23.5t135.5 -72.5t89 -128t36.5 -189v-281q-4 -223 -114.5 -333.5t-315.5 -110.5t-319.5 110.5t-116.5 333.5q-2 43 -2 121zM119 981q2 -209 95 -301t255 -92q178 0 262 91t86 302v254 q-4 164 -93 241.5t-255 77.5q-162 0 -254 -77.5t-96 -239.5v-256zM252 733v641h246q59 0 95 -13t69 -48q25 -29 32.5 -65t7.5 -60q0 -25 -7 -65t-23 -62q-35 -43 -80 -53l108 -275h-137l-94 252h-78v-252h-139zM391 1092q43 0 79 1t58 11q18 10 24.5 28.5t6.5 47.5 q0 45 -37 61q-23 10 -54.5 10h-76.5v-159z" />
<glyph unicode="&#xaf;" d="M100 1225v135h461v-135h-461z" />
<glyph unicode="&#xb0;" horiz-adv-x="464" d="M25 1329q0 45 16.5 84t45 68.5t66 46t80.5 16.5q44 0 82.5 -16.5t66.5 -46t44 -68.5t16 -84q0 -43 -16 -82t-44 -68t-66.5 -46t-82.5 -17q-43 0 -80.5 17t-66 46t-45 68t-16.5 82zM139 1329q0 -18 7.5 -34.5t20.5 -29t30 -19.5t36 -7q39 0 65 26.5t26 63.5q0 42 -26 68 t-65 26t-66.5 -26t-27.5 -68z" />
<glyph unicode="&#xb1;" horiz-adv-x="657" d="M25 831v138h223v182h162v-182h225v-138h-225v-172h-162v172h-223zM29 475v137h602v-137h-602z" />
<glyph unicode="&#xb2;" horiz-adv-x="591" d="M63 795v102q18 48 48.5 90.5t65 82t70.5 77t64.5 76t47 79.5t18.5 87v51q0 53 -21.5 72.5t-64.5 19.5q-37 0 -55.5 -18t-22.5 -66q-1 -7 -1.5 -19t-0.5 -26v-28.5v-26.5h-141v54.5t2 51.5q5 42 20 76.5t42.5 58.5t70 37.5t100.5 13.5q121 0 169 -52q47 -52 52 -132 q0 -3 -0.5 -15t-0.5 -26t-0.5 -26.5t-0.5 -16.5q0 -44 -15 -83.5t-39.5 -76.5t-54.5 -72.5t-60.5 -72t-57.5 -75.5t-45 -83h274v-114h-463z" />
<glyph unicode="&#xb3;" horiz-adv-x="598" d="M63 1049h146v-107q0 -35 24.5 -47t69.5 -12q51 0 69.5 20.5t20.5 59.5v94q-1 30 -10.5 48t-25.5 27t-38 12.5t-49 4.5h-45q-10 0 -21 0.5t-22 1.5v111q11 0 22 0.5t21 1.5q16 0 29.5 1t15.5 1q32 4 53 10.5t33.5 18.5t17.5 32.5t5 52.5q0 35 1 52.5t-1 35.5q0 66 -76 66 q-77 0 -82 -66q0 -15 0.5 -30.5t0.5 -29t0.5 -22.5t0.5 -10h-141q2 27 4 54.5t2 54.5q4 70 58 112.5t159 42.5q123 0 170 -47q48 -48 49 -116v-80q0 -40 -8 -71t-28 -53t-54.5 -36t-87.5 -20q62 -2 100.5 -15.5t59.5 -34t29 -44t10 -46.5q5 -49 0 -108q-6 -102 -69.5 -145.5 t-174.5 -43.5q-105 0 -168 39.5t-67 120.5q0 20 -0.5 39t-1 34t-1 25t-0.5 11z" />
<glyph unicode="&#xb4;" d="M201 1200l131 264h213l-158 -264h-186z" />
<glyph unicode="&#xb6;" horiz-adv-x="694" d="M27 1042q0 94 1 158t4 109t6 79.5t9 69.5q14 84 69.5 133t141.5 49q55 0 104.5 -18t69.5 -59l25 71h190v-1845h-82v1694h-49v-1694h-88v741q-25 -35 -69 -55t-99 -20q-186 0 -215 182q-10 72 -14 174t-4 231zM246 1049q0 -27 1 -71t2 -92t3 -92t6 -73q6 -41 28.5 -59.5 t57.5 -18.5q80 0 86 96q0 12 1 44t1 76v97.5v106.5v291q-2 49 -26.5 71.5t-55.5 22.5q-41 0 -60.5 -22.5t-27.5 -82.5q-4 -37 -7 -78.5t-5 -81.5t-3 -75t-1 -59z" />
<glyph unicode="&#xb7;" horiz-adv-x="399" d="M80 651v307h239v-307h-239z" />
<glyph unicode="&#xb8;" d="M199 -264q39 -6 71 -6q54 0 82.5 18t28.5 55q0 20 -10.5 34.5t-25 27t-29.5 23.5t-23 24q-23 29 -29 48.5t-4 39.5h131q0 -16 3 -29.5t22 -36.5q13 -11 35 -23t43.5 -29t37 -42.5t15.5 -64.5q0 -44 -21 -74.5t-53.5 -49.5t-72 -27t-76.5 -8q-28 0 -59 3.5t-66 9.5v107z " />
<glyph unicode="&#xb9;" horiz-adv-x="522" d="M47 1427v101q43 2 78 12t61.5 24.5t44 33t25.5 36.5h104v-839h-143v645z" />
<glyph unicode="&#xba;" horiz-adv-x="671" d="M31 348v164h616v-164h-616zM35 1108q0 46 2 93t6 91t10 82.5t15 67.5q10 42 30 78t52 62.5t77.5 42t106.5 15.5q62 0 108 -14.5t79 -41.5t54 -64.5t31 -83.5q5 -27 9.5 -64.5t8 -80.5t5.5 -90t2 -93q0 -47 -2 -94.5t-5.5 -92t-9.5 -84t-14 -71.5q-9 -46 -30 -84 t-54.5 -65t-79 -41.5t-104.5 -14.5q-125 0 -187 59q-32 30 -52.5 65t-29.5 77q-8 39 -13.5 83t-8.5 89t-4.5 89.5t-1.5 84.5zM225 1104q0 -40 1.5 -81.5t4 -80t6.5 -72t9 -57.5q13 -76 88 -76q74 0 86 78q7 30 10.5 67t5 76t2 77t0.5 69q0 39 -0.5 78.5t-2 75.5t-4.5 66.5 t-7 51.5q-13 84 -92 84q-69 0 -92 -84q-4 -24 -7 -54.5t-4.5 -66t-2.5 -74t-1 -77.5z" />
<glyph unicode="&#xbb;" horiz-adv-x="729" d="M37 262v242l168 217l-168 217v238l328 -383v-146zM371 262v242l168 217l-168 217v238l327 -383v-146z" />
<glyph unicode="&#xbc;" horiz-adv-x="1042" d="M12 1427v101q43 2 78 12t61.5 24.5t44 33t25.5 36.5h105v-839h-144v645zM203 0q63 217 123 432t120 432q15 55 33 118.5t36.5 129t36.5 129.5t34 121q19 69 37.5 136.5t38.5 135.5h90q-22 -74 -43 -147t-41 -148q-18 -63 -38.5 -132.5t-40.5 -140.5t-39.5 -139.5 t-35.5 -129.5q-16 -57 -34 -122.5t-36.5 -133t-37 -134t-35.5 -124.5q-20 -72 -39 -142.5t-39 -140.5h-90zM487 223v113l273 502h158v-506h90v-111h-90v-221h-140v223h-291zM618 332h160v313z" />
<glyph unicode="&#xbd;" horiz-adv-x="1036" d="M10 1427v101q43 2 78 12t61.5 24.5t44 33t25.5 36.5h107v-839h-146v645zM168 0q23 76 44.5 152t43.5 153q75 266 149 528.5t148 528.5q19 69 37.5 136.5t38.5 135.5h90q-22 -74 -43.5 -147t-42.5 -148l-38 -133t-40 -140.5t-39.5 -139t-36.5 -129.5q-16 -57 -34 -122.5 t-36.5 -133t-36.5 -134t-34 -124.5q-20 -72 -39 -142.5t-39 -140.5h-92zM532 0v102q18 48 48 90.5t65 82t70 77t64 76.5t47 80t18 86v51q0 53 -21.5 72.5t-64.5 19.5q-35 0 -53.5 -18t-22.5 -66q-1 -7 -1.5 -19t-0.5 -26v-28.5v-26.5h-143q0 23 1 54.5t3 51.5q3 42 18 76.5 t43 59t71 38t101 13.5q119 0 167 -52q47 -52 52 -132v-15v-26t-0.5 -26.5t-1.5 -16.5q-2 -68 -33.5 -124.5t-75.5 -109.5q-22 -27 -45.5 -53.5t-45 -55t-40.5 -58t-32 -62.5h272v-115h-459z" />
<glyph unicode="&#xbe;" horiz-adv-x="1140" d="M23 1049h145v-107q0 -35 23.5 -47t68.5 -12q53 0 71.5 20.5t18.5 59.5q1 15 1.5 24.5t0.5 19.5t-0.5 21t-1.5 29q0 21 -4.5 37.5t-18 28t-37.5 18t-63 8.5h-45q-10 0 -21 0.5t-22 1.5v111q11 0 22 0.5t21 1.5q16 0 30.5 1t16.5 1q32 4 53 10.5t33.5 18.5t17.5 32.5 t5 52.5q0 35 1 52.5t-1 35.5q0 66 -78 66q-75 0 -80 -66v-92h-141q2 27 4 54.5t2 54.5q4 70 59 112.5t160 42.5q120 0 169 -47q48 -47 50 -116v-80q0 -40 -8 -70.5t-28.5 -53t-55 -36.5t-88.5 -20q62 -2 100.5 -15.5t60 -34t30 -44t10.5 -46.5q2 -25 2 -52.5t-4 -55.5 q-6 -102 -69.5 -145.5t-172.5 -43.5q-105 0 -168 39.5t-67 120.5q0 20 -0.5 39t-0.5 34t-0.5 25t-0.5 11zM311 0q22 76 43 152t43 153q18 64 38.5 135.5t41.5 145t41 144.5t37 134q15 55 33 118.5t36.5 129t36.5 129.5t33 121q19 69 38.5 136.5t39.5 135.5h88 q-22 -74 -43 -147t-41 -148q-18 -63 -38 -132.5t-40.5 -140.5t-39.5 -139.5t-35 -129.5q-16 -57 -34 -122.5t-37 -133t-37.5 -134t-35.5 -124.5q-20 -72 -39 -142.5t-39 -140.5h-90zM590 223v113l274 502h160v-506h88v-111h-88v-221h-141v223h-293zM725 332h158v315z" />
<glyph unicode="&#xbf;" horiz-adv-x="690" d="M36.5 285q-0.5 26 0 52t1.5 51t3 44q4 100 46 179q41 78 91 164t87 193q38 109 34 269h172q3 -93 -4 -167t-21 -133.5t-33.5 -107.5t-42.5 -90q-22 -40 -43.5 -78t-38.5 -77t-27.5 -80.5t-10.5 -89.5q-5 -68 0 -119q2 -60 26.5 -90.5t81.5 -30.5q54 0 80.5 29.5 t30.5 81.5q0 9 0.5 28.5t0.5 41.5t0.5 41.5t0.5 27.5h193q0 -25 -0.5 -54.5t-1 -57t-2 -50t-3.5 -35.5q-10 -114 -89.5 -176.5t-223.5 -62.5q-147 0 -220.5 62.5t-84.5 187.5q-2 21 -2.5 47zM279 1335v299h208v-299h-208z" />
<glyph unicode="&#xc0;" horiz-adv-x="796" d="M0 0l268 1634h291l236 -1634h-215l-48 393h-266l-53 -393h-213zM178 1966h215l133 -264h-190zM293 582h213q-10 75 -19.5 142.5t-17.5 127.5q-6 51 -13 101.5t-13.5 92t-10.5 70t-4 35.5q-2 9 -3.5 25t-3.5 35.5t-3.5 41.5t-3.5 43q-2 26 -4 53t-4 56q-2 -29 -4.5 -56 t-4.5 -53q-2 -21 -3.5 -43t-3 -41.5t-3 -35.5t-2.5 -25q0 -6 -4 -34.5t-11 -70.5t-15.5 -92.5t-16.5 -101.5q-19 -121 -45 -270z" />
<glyph unicode="&#xc1;" horiz-adv-x="796" d="M0 0l268 1634h291l236 -1634h-215l-48 393h-266l-53 -393h-213zM293 582h213q-10 75 -19.5 142.5t-17.5 127.5q-6 51 -13 101.5t-13.5 92t-10.5 70t-4 35.5q-2 9 -3.5 25t-3.5 35.5t-3.5 41.5t-3.5 43q-2 26 -4 53t-4 56q-2 -29 -4.5 -56t-4.5 -53q-2 -21 -3.5 -43 t-3 -41.5t-3 -35.5t-2.5 -25q0 -6 -4 -34.5t-11 -70.5t-15.5 -92.5t-16.5 -101.5q-19 -121 -45 -270zM309 1702l131 264h213l-157 -264h-187z" />
<glyph unicode="&#xc2;" horiz-adv-x="796" d="M0 0l268 1634h291l236 -1634h-215l-48 393h-266l-53 -393h-213zM166 1702l141 268h213l139 -268h-165l-82 147l-82 -147h-164zM293 582h213q-10 75 -19.5 142.5t-17.5 127.5q-6 51 -13 101.5t-13.5 92t-10.5 70t-4 35.5q-2 9 -3.5 25t-3.5 35.5t-3.5 41.5t-3.5 43 q-2 26 -4 53t-4 56q-2 -29 -4.5 -56t-4.5 -53q-2 -21 -3.5 -43t-3 -41.5t-3 -35.5t-2.5 -25q0 -6 -4 -34.5t-11 -70.5t-15.5 -92.5t-16.5 -101.5q-19 -121 -45 -270z" />
<glyph unicode="&#xc3;" horiz-adv-x="796" d="M0 0l268 1634h291l236 -1634h-215l-48 393h-266l-53 -393h-213zM139 1716q6 102 47 162.5t111 60.5q39 0 68 -10.5t59 -44.5q18 -20 30.5 -32.5t32.5 -10.5q49 1 58 92l125 -8q-4 -112 -45 -168.5t-113 -56.5q-15 0 -28 1t-26 5t-27 13.5t-32 25.5q-23 23 -38 33t-37 10 q-23 0 -37.5 -16.5t-18.5 -63.5zM293 582h213q-10 75 -19.5 142.5t-17.5 127.5q-6 51 -13 101.5t-13.5 92t-10.5 70t-4 35.5q-2 9 -3.5 25t-3.5 35.5t-3.5 41.5t-3.5 43q-2 26 -4 53t-4 56q-2 -29 -4.5 -56t-4.5 -53q-2 -21 -3.5 -43t-3 -41.5t-3 -35.5t-2.5 -25 q0 -6 -4 -34.5t-11 -70.5t-15.5 -92.5t-16.5 -101.5q-19 -121 -45 -270z" />
<glyph unicode="&#xc4;" horiz-adv-x="796" d="M0 0l268 1634h291l236 -1634h-215l-48 393h-266l-53 -393h-213zM182 1700v219h166v-219h-166zM293 582h213q-10 75 -19.5 142.5t-17.5 127.5q-6 51 -13 101.5t-13.5 92t-10.5 70t-4 35.5q-2 9 -3.5 25t-3.5 35.5t-3.5 41.5t-3.5 43q-2 26 -4 53t-4 56q-2 -29 -4.5 -56 t-4.5 -53q-2 -21 -3.5 -43t-3 -41.5t-3 -35.5t-2.5 -25q0 -6 -4 -34.5t-11 -70.5t-15.5 -92.5t-16.5 -101.5q-19 -121 -45 -270zM461 1700v219h168v-219h-168z" />
<glyph unicode="&#xc5;" horiz-adv-x="796" d="M0 0l264 1614q-35 47 -35 110q0 39 13.5 73.5t38 59.5t58 39.5t73.5 14.5t74 -14.5t58.5 -39.5t38 -59t13.5 -74q0 -61 -35 -108l234 -1616h-215l-48 393h-266l-53 -393h-213zM293 582h213q-10 78 -19.5 146.5t-17.5 131.5q-6 53 -13 104.5t-13.5 94.5t-10.5 71.5 t-4 34.5q-2 9 -3.5 28.5t-3.5 45t-3.5 55.5t-3.5 60q-2 34 -4 71t-4 78q-2 -42 -4.5 -78.5t-4.5 -70.5q-2 -30 -3.5 -59.5t-3 -55t-3 -45.5t-2.5 -29q0 -6 -4 -34.5t-11 -71.5t-15.5 -95t-16.5 -104q-10 -63 -21 -132t-24 -146zM348 1724q0 -27 18.5 -47t45.5 -20 q29 0 48 20.5t19 46.5q0 29 -19 50.5t-48 21.5q-27 0 -45.5 -21.5t-18.5 -50.5z" />
<glyph unicode="&#xc6;" horiz-adv-x="1048" d="M-2 0l328 1634h710v-204h-366v-506h331v-203h-331v-516h366v-205h-573v375h-184l-68 -375h-213zM309 567h152v838q-1 -4 -3.5 -20t-6 -38t-7 -47t-6.5 -47t-6 -37t-4 -18z" />
<glyph unicode="&#xc7;" horiz-adv-x="819" d="M45 825v134.5t3 135t10 138.5t22 143q27 138 116.5 203.5t241.5 65.5t233.5 -80t100.5 -228q10 -78 12 -142.5t2 -129.5h-211q0 68 -3 133.5t-17 142.5q-10 49 -43 72t-82 23q-60 0 -93.5 -28.5t-43.5 -76.5q-10 -50 -15.5 -115.5t-7.5 -134.5t-2 -135.5v-118.5 q0 -64 1.5 -137.5t4 -144t7 -132.5t10.5 -102q6 -37 19.5 -62t32.5 -40t41 -21t46 -6t46.5 6.5t41 22.5t32 41.5t17.5 64.5q4 35 6.5 72t4 71t2 61t0.5 42h208v-56.5t-1.5 -75t-5 -84.5t-9.5 -85q-8 -55 -30.5 -102t-58.5 -82.5t-85 -58.5t-109 -31q0 -12 4.5 -24.5 t20.5 -29.5q13 -11 35 -23t43.5 -29t37 -42.5t15.5 -64.5q0 -44 -21 -74.5t-53.5 -49.5t-72 -27t-76.5 -8q-28 0 -59 3.5t-66 9.5v107q39 -6 71 -6q54 0 82.5 18t28.5 55q0 20 -10.5 34.5t-25 27t-29 23.5t-23.5 24q-18 23 -25.5 41.5t-7.5 34.5q-114 16 -178.5 77 t-89.5 154q-14 54 -23 129.5t-14 158.5t-6.5 166t-1.5 152z" />
<glyph unicode="&#xc8;" horiz-adv-x="708" d="M74 0v1634h608v-204h-397v-506h366v-203h-366v-516h401v-205h-612zM178 1966h215l133 -264h-190z" />
<glyph unicode="&#xc9;" horiz-adv-x="708" d="M74 0v1634h608v-204h-397v-506h366v-203h-366v-516h401v-205h-612zM260 1702l131 264h213l-158 -264h-186z" />
<glyph unicode="&#xca;" horiz-adv-x="708" d="M74 0v1634h608v-204h-397v-506h366v-203h-366v-516h401v-205h-612zM137 1702l142 268h213l139 -268h-166l-82 147l-82 -147h-164z" />
<glyph unicode="&#xcb;" horiz-adv-x="708" d="M74 0v1634h608v-204h-397v-506h366v-203h-366v-516h401v-205h-612zM166 1700v219h166v-219h-166zM444 1700v219h168v-219h-168z" />
<glyph unicode="&#xcc;" horiz-adv-x="366" d="M-53 1966h215l133 -264h-191zM74 0v1634h221v-1634h-221z" />
<glyph unicode="&#xcd;" horiz-adv-x="366" d="M74 0v1634h221v-1634h-221zM84 1702l131 264h213l-158 -264h-186z" />
<glyph unicode="&#xce;" horiz-adv-x="366" d="M-63 1702l141 268h213l139 -268h-166l-82 147l-82 -147h-163zM74 0v1634h221v-1634h-221z" />
<glyph unicode="&#xcf;" horiz-adv-x="366" d="M-39 1702v219h166v-219h-166zM74 0v1634h221v-1634h-221zM240 1702v219h168v-219h-168z" />
<glyph unicode="&#xd0;" horiz-adv-x="819" d="M18 715v209h58v710h352q121 0 191.5 -41t103.5 -120q12 -22 20.5 -61.5t14.5 -90.5t10 -110.5t6 -121.5t3 -123t1 -114q0 -99 -1.5 -204.5t-7 -201t-16 -170.5t-28.5 -112q-31 -70 -90 -117q-61 -47 -178 -47h-381v715h-58zM291 176h147q45 0 75 20t42 68q4 18 7 62 t5 101.5t3 123t2 125t1 106.5v70v44t-1 60.5t-1.5 71.5t-2.5 76q-1 38 -3 74t-4 66.5t-4.5 53t-5.5 33.5q-19 115 -127 115h-133v-522h131v-209h-131v-539z" />
<glyph unicode="&#xd1;" horiz-adv-x="833" d="M74 0v1634h211l278 -1011v1011h199v-1634h-209l-283 958v-958h-196zM170 1716q6 102 47 162.5t111 60.5q39 0 68 -10.5t59 -44.5q18 -20 30.5 -32.5t32.5 -10.5q49 1 57 92l125 -8q-4 -112 -44.5 -168.5t-112.5 -56.5q-15 0 -28 1t-26 5t-27 13.5t-32 25.5q-23 23 -38 33 t-38 10t-37 -16.5t-18 -63.5z" />
<glyph unicode="&#xd2;" horiz-adv-x="841" d="M45 821q0 116 2 215t10.5 183t24.5 152t43 120q21 38 47.5 66.5t62 48t81.5 29.5t104 10q115 0 186.5 -39t112.5 -117q27 -51 42.5 -117.5t23.5 -149t10 -181t2 -214.5q0 -121 -2.5 -223t-11 -186.5t-23.5 -152t-41 -120.5q-41 -82 -111.5 -121.5t-187.5 -39.5 t-186.5 39.5t-110.5 119.5q-25 51 -40.5 118t-24 151.5t-11 186.5t-2.5 222zM197 1966h215l133 -264h-191zM264 813q0 -121 2 -213.5t6 -159.5q8 -135 37 -192q16 -37 43.5 -52.5t69.5 -15.5q43 0 71.5 15.5t45.5 52.5q29 63 35 196q6 134 6 375q0 117 -0.5 208.5t-4 161 t-12 118t-24.5 79.5t-45.5 44.5t-71.5 13.5q-78 0 -111 -60q-17 -31 -26.5 -80t-14 -119t-5.5 -162t-1 -210z" />
<glyph unicode="&#xd3;" horiz-adv-x="841" d="M45 821q0 116 2 215t10.5 183t24.5 152t43 120q21 38 47.5 66.5t62 48t81.5 29.5t104 10q115 0 186.5 -39t112.5 -117q27 -51 42.5 -117.5t23.5 -149t10 -181t2 -214.5q0 -121 -2.5 -223t-11 -186.5t-23.5 -152t-41 -120.5q-41 -82 -111.5 -121.5t-187.5 -39.5 t-186.5 39.5t-110.5 119.5q-25 51 -40.5 118t-24 151.5t-11 186.5t-2.5 222zM264 813q0 -121 2 -213.5t6 -159.5q8 -135 37 -192q16 -37 43.5 -52.5t69.5 -15.5q43 0 71.5 15.5t45.5 52.5q29 63 35 196q6 134 6 375q0 117 -0.5 208.5t-4 161t-12 118t-24.5 79.5t-45.5 44.5 t-71.5 13.5q-78 0 -111 -60q-17 -31 -26.5 -80t-14 -119t-5.5 -162t-1 -210zM324 1702l131 264h213l-158 -264h-186z" />
<glyph unicode="&#xd4;" horiz-adv-x="841" d="M45 821q0 116 2 215t10.5 183t24.5 152t43 120q21 38 47.5 66.5t62 48t81.5 29.5t104 10q115 0 186.5 -39t112.5 -117q27 -51 42.5 -117.5t23.5 -149t10 -181t2 -214.5q0 -121 -2.5 -223t-11 -186.5t-23.5 -152t-41 -120.5q-41 -82 -111.5 -121.5t-187.5 -39.5 t-186.5 39.5t-110.5 119.5q-25 51 -40.5 118t-24 151.5t-11 186.5t-2.5 222zM178 1702l141 268h213l140 -268h-166l-82 147l-82 -147h-164zM264 813q0 -121 2 -213.5t6 -159.5q8 -135 37 -192q16 -37 43.5 -52.5t69.5 -15.5q43 0 71.5 15.5t45.5 52.5q29 63 35 196 q6 134 6 375q0 117 -0.5 208.5t-4 161t-12 118t-24.5 79.5t-45.5 44.5t-71.5 13.5q-78 0 -111 -60q-17 -31 -26.5 -80t-14 -119t-5.5 -162t-1 -210z" />
<glyph unicode="&#xd5;" horiz-adv-x="841" d="M45 821q0 116 2 215t10.5 183t24.5 152t43 120q21 38 47.5 66.5t62 48t81.5 29.5t104 10q115 0 186.5 -39t112.5 -117q27 -51 42.5 -117.5t23.5 -149t10 -181t2 -214.5q0 -121 -2.5 -223t-11 -186.5t-23.5 -152t-41 -120.5q-41 -82 -111.5 -121.5t-187.5 -39.5 t-186.5 39.5t-110.5 119.5q-25 51 -40.5 118t-24 151.5t-11 186.5t-2.5 222zM160 1716q6 102 47 162.5t110 60.5q39 0 68 -11t59 -44q18 -20 30.5 -32.5t33.5 -10.5q49 1 57 92l125 -8q-4 -112 -45 -168.5t-113 -56.5q-15 0 -28 1t-25.5 5t-26.5 13.5t-32 25.5 q-23 23 -38 33t-38 10t-37 -16.5t-18 -63.5zM264 813q0 -121 2 -213.5t6 -159.5q8 -135 37 -192q16 -37 43.5 -52.5t69.5 -15.5q43 0 71.5 15.5t45.5 52.5q29 63 35 196q6 134 6 375q0 117 -0.5 208.5t-4 161t-12 118t-24.5 79.5t-45.5 44.5t-71.5 13.5q-78 0 -111 -60 q-17 -31 -26.5 -80t-14 -119t-5.5 -162t-1 -210z" />
<glyph unicode="&#xd6;" horiz-adv-x="841" d="M45 821q0 116 2 215t10.5 183t24.5 152t43 120q21 38 47.5 66.5t62 48t81.5 29.5t104 10q115 0 186.5 -39t112.5 -117q27 -51 42.5 -117.5t23.5 -149t10 -181t2 -214.5q0 -121 -2.5 -223t-11 -186.5t-23.5 -152t-41 -120.5q-41 -82 -111.5 -121.5t-187.5 -39.5 t-186.5 39.5t-110.5 119.5q-25 51 -40.5 118t-24 151.5t-11 186.5t-2.5 222zM197 1700v219h165v-219h-165zM264 813q0 -121 2 -213.5t6 -159.5q8 -135 37 -192q16 -37 43.5 -52.5t69.5 -15.5q43 0 71.5 15.5t45.5 52.5q29 63 35 196q6 134 6 375q0 117 -0.5 208.5t-4 161 t-12 118t-24.5 79.5t-45.5 44.5t-71.5 13.5q-78 0 -111 -60q-17 -31 -26.5 -80t-14 -119t-5.5 -162t-1 -210zM475 1700v219h168v-219h-168z" />
<glyph unicode="&#xd7;" horiz-adv-x="626" d="M68 641l143 143l-143 144l104 108l141 -143l144 143l104 -108l-143 -144l143 -143l-104 -109l-144 146l-141 -146z" />
<glyph unicode="&#xd8;" horiz-adv-x="841" d="M45 821q0 65 0.5 133t2.5 136.5t8 135.5t16 128q10 63 35.5 116.5t68 92.5t103 60.5t141.5 21.5q107 0 184 -37l14 51h91l-29 -103q72 -72 90 -192q12 -70 17.5 -137t7.5 -133t2 -132v-135q0 -74 -2 -150.5t-6 -150t-10.5 -140t-14.5 -120.5q-23 -139 -106 -210.5 t-238 -71.5q-105 0 -178 32l-27 -94h-94l43 150q-33 33 -55 80t-35 108q-10 47 -15.5 115.5t-8.5 146t-4 155.5t-1 144zM266 813q0 -90 1.5 -178.5t6.5 -177.5l265 921q-16 35 -42.5 50.5t-74.5 15.5q-33 0 -56 -8.5t-38 -25t-23.5 -40t-13.5 -53.5q-10 -58 -15 -125.5 t-7 -135t-2.5 -130.5t-0.5 -113zM307 248q16 -33 42.5 -49.5t74.5 -16.5q59 0 88 31t43 78q5 17 9 52.5t7 82t5 100t3.5 106.5t2 101.5t0.5 85.5q0 32 -1 74.5t-2.5 90t-3.5 97.5t-4 95z" />
<glyph unicode="&#xd9;" horiz-adv-x="827" d="M61 311v1323h213v-1294q0 -156 140 -156q133 0 133 154v1296h215v-1325q0 -77 -23.5 -137t-68.5 -101.5t-109 -63t-145 -21.5q-155 0 -256 81q-99 80 -99 244zM188 1968h215l134 -264h-191z" />
<glyph unicode="&#xda;" horiz-adv-x="827" d="M61 311v1323h213v-1294q0 -156 140 -156q133 0 133 154v1296h215v-1325q0 -77 -23.5 -137t-68.5 -101.5t-109 -63t-145 -21.5q-155 0 -256 81q-99 80 -99 244zM303 1702l131 264h213l-158 -264h-186z" />
<glyph unicode="&#xdb;" horiz-adv-x="827" d="M61 311v1323h213v-1294q0 -156 140 -156q133 0 133 154v1296h215v-1325q0 -77 -23.5 -137t-68.5 -101.5t-109 -63t-145 -21.5q-155 0 -256 81q-99 80 -99 244zM160 1704l141 268h213l139 -268h-166l-81 147l-82 -147h-164z" />
<glyph unicode="&#xdc;" horiz-adv-x="827" d="M61 311v1323h213v-1294q0 -156 140 -156q133 0 133 154v1296h215v-1325q0 -77 -23.5 -137t-68.5 -101.5t-109 -63t-145 -21.5q-155 0 -256 81q-99 80 -99 244zM193 1700v219h165v-219h-165zM471 1700v219h168v-219h-168z" />
<glyph unicode="&#xdd;" horiz-adv-x="837" d="M0 1634h225q26 -100 49.5 -189.5t44.5 -170.5q18 -69 35.5 -138t31 -126t22 -97t8.5 -53q0 14 9.5 54.5t24.5 97t33.5 124.5t36.5 138q23 81 48.5 170.5t54.5 189.5h215l-318 -1032v-602h-219v596zM293 1702l131 264h213l-158 -264h-186z" />
<glyph unicode="&#xde;" horiz-adv-x="800" d="M72 0v1634h223v-299h162q106 0 175.5 -49t92.5 -162q12 -24 20.5 -58.5t14 -73t8 -78t2.5 -74.5q0 -36 -2.5 -76.5t-8 -80t-14 -74t-20.5 -58.5q-29 -103 -95 -152t-169 -53h-170v-346h-219zM291 530h125q63 0 93 44t36 122q2 8 3 25.5t1 38v40v31.5v24.5v34.5t-1 34.5 t-3 25.5q-2 33 -6.5 66t-17 59.5t-36.5 43t-65 16.5h-129v-605z" />
<glyph unicode="&#xdf;" horiz-adv-x="1017" d="M10 956v170h101v234q0 141 84 213t233 72q62 0 114.5 -17.5t91.5 -51.5t61 -83.5t22 -114.5q0 -46 -11 -84.5t-27.5 -72.5t-35.5 -66t-35.5 -66.5t-27.5 -73t-11 -85.5q0 -48 8.5 -76.5t25 -47.5t40 -34.5t53.5 -38.5q18 -13 32.5 -24.5t29 -22l29 -21t30.5 -22.5 q48 -36 81.5 -73.5t54.5 -80t30.5 -91.5t9.5 -109q0 -69 -20.5 -125t-59 -95.5t-95 -61t-128.5 -21.5q-144 0 -219.5 55t-85.5 158q-4 48 -4 87.5v73.5h201v-18v-31t0.5 -38t1.5 -40q2 -45 29 -68.5t75 -23.5q55 0 81 28.5t26 100.5q0 41 -7.5 72.5t-21.5 57.5t-35 48 t-47 44q-16 14 -29 23.5t-24.5 18.5t-24 18t-28.5 21q-47 35 -85 65t-64.5 66.5t-41 86t-14.5 122.5q0 51 10 92t25.5 76t33 66t33 61.5t25.5 61.5t10 67q0 30 -4.5 54t-15 41t-29 26.5t-47.5 9.5q-59 0 -81 -36.5t-22 -102.5v-1329h-200v956h-101z" />
<glyph unicode="&#xe0;" horiz-adv-x="684" d="M29 259.5q0 21.5 0.5 43t1 41.5t0.5 35q2 57 17 102t47.5 79.5t83.5 60t126 43.5q37 10 72 16t69 10v180q-5 92 -94 93q-35 0 -61.5 -17.5t-34.5 -60.5q-6 -35 -7 -73.5t-1 -80.5h-185q0 24 1 52.5t3 58t5 58t8 52.5q18 87 88 139t188 52q74 0 126 -16t85.5 -46 t49.5 -72.5t18 -95.5q0 -40 -0.5 -94.5t-0.5 -112t-0.5 -111.5t-0.5 -93v-334q0 -10 1 -35t2.5 -52t3.5 -50.5t5 -30.5h-184q-1 0 -2.5 7t-2.5 17.5t-2 23t-1 24.5q-35 -42 -84.5 -61t-122.5 -19q-41 0 -79 9t-67.5 30.5t-48 57t-20.5 87.5v18.5t-1 23.5q-1 20 -1 41.5z M123 1464h215l133 -264h-190zM221 307q0 -16 0.5 -31t1.5 -27.5t2 -21.5q4 -35 32 -54t67 -19t68.5 20t43.5 62q10 42 9 90.5t1 103.5v107q-18 -4 -37.5 -8t-37.5 -9q-27 -8 -54.5 -17t-52.5 -34q-26 -26 -34.5 -61t-8.5 -71v-30z" />
<glyph unicode="&#xe1;" horiz-adv-x="684" d="M29 259.5q0 21.5 0.5 43t1 41.5t0.5 35q2 57 17 102t47.5 79.5t83.5 60t126 43.5q37 10 72 16t69 10v180q-5 92 -94 93q-35 0 -61.5 -17.5t-34.5 -60.5q-6 -35 -7 -73.5t-1 -80.5h-185q0 24 1 52.5t3 58t5 58t8 52.5q18 87 88 139t188 52q74 0 126 -16t85.5 -46 t49.5 -72.5t18 -95.5q0 -40 -0.5 -94.5t-0.5 -112t-0.5 -111.5t-0.5 -93v-334q0 -10 1 -35t2.5 -52t3.5 -50.5t5 -30.5h-184q-1 0 -2.5 7t-2.5 17.5t-2 23t-1 24.5q-35 -42 -84.5 -61t-122.5 -19q-41 0 -79 9t-67.5 30.5t-48 57t-20.5 87.5v18.5t-1 23.5q-1 20 -1 41.5z M221 307q0 -16 0.5 -31t1.5 -27.5t2 -21.5q4 -35 32 -54t67 -19t68.5 20t43.5 62q10 42 9 90.5t1 103.5v107q-18 -4 -37.5 -8t-37.5 -9q-27 -8 -54.5 -17t-52.5 -34q-26 -26 -34.5 -61t-8.5 -71v-30zM242 1200l131 264h213l-158 -264h-186z" />
<glyph unicode="&#xe2;" horiz-adv-x="684" d="M29 259.5q0 21.5 0.5 43t1 41.5t0.5 35q2 57 17 102t47.5 79.5t83.5 60t126 43.5q37 10 72 16t69 10v180q-5 92 -94 93q-35 0 -61.5 -17.5t-34.5 -60.5q-6 -35 -7 -73.5t-1 -80.5h-185q0 24 1 52.5t3 58t5 58t8 52.5q18 87 88 139t188 52q74 0 126 -16t85.5 -46 t49.5 -72.5t18 -95.5q0 -40 -0.5 -94.5t-0.5 -112t-0.5 -111.5t-0.5 -93v-334q0 -10 1 -35t2.5 -52t3.5 -50.5t5 -30.5h-184q-1 0 -2.5 7t-2.5 17.5t-2 23t-1 24.5q-35 -42 -84.5 -61t-122.5 -19q-41 0 -79 9t-67.5 30.5t-48 57t-20.5 87.5v18.5t-1 23.5q-1 20 -1 41.5z M109 1200l141 268h213l139 -268h-166l-82 148l-82 -148h-163zM221 307q0 -16 0.5 -31t1.5 -27.5t2 -21.5q4 -35 32 -54t67 -19t68.5 20t43.5 62q10 42 9 90.5t1 103.5v107q-18 -4 -37.5 -8t-37.5 -9q-27 -8 -54.5 -17t-52.5 -34q-26 -26 -34.5 -61t-8.5 -71v-30z" />
<glyph unicode="&#xe3;" horiz-adv-x="684" d="M29 259.5q0 21.5 0.5 43t1 41.5t0.5 35q2 57 17 102t47.5 79.5t83.5 60t126 43.5q37 10 72 16t69 10v180q-5 92 -94 93q-35 0 -61.5 -17.5t-34.5 -60.5q-6 -35 -7 -73.5t-1 -80.5h-185q0 24 1 52.5t3 58t5 58t8 52.5q18 87 88 139t188 52q74 0 126 -16t85.5 -46 t49.5 -72.5t18 -95.5q0 -40 -0.5 -94.5t-0.5 -112t-0.5 -111.5t-0.5 -93v-334q0 -10 1 -35t2.5 -52t3.5 -50.5t5 -30.5h-184q-1 0 -2.5 7t-2.5 17.5t-2 23t-1 24.5q-35 -42 -84.5 -61t-122.5 -19q-41 0 -79 9t-67.5 30.5t-48 57t-20.5 87.5v18.5t-1 23.5q-1 20 -1 41.5z M94 1214q6 102 47 163t111 61q39 0 68 -11t59 -45q18 -20 30.5 -32.5t32.5 -10.5q49 1 58 93l125 -9q-4 -112 -45 -168.5t-113 -56.5q-15 0 -28 1t-26 5t-27 13.5t-32 25.5q-23 23 -38 33t-37 10q-23 0 -37.5 -16.5t-18.5 -63.5zM221 307q0 -16 0.5 -31t1.5 -27.5t2 -21.5 q4 -35 32 -54t67 -19t68.5 20t43.5 62q10 42 9 90.5t1 103.5v107q-18 -4 -37.5 -8t-37.5 -9q-27 -8 -54.5 -17t-52.5 -34q-26 -26 -34.5 -61t-8.5 -71v-30z" />
<glyph unicode="&#xe4;" horiz-adv-x="684" d="M29 273.5q0 29.5 1 57t1 48.5q4 113 64.5 181.5t209.5 103.5q37 10 72 16t69 10v38v50.5v51v40.5q-4 92 -94 93q-35 0 -61.5 -17.5t-34.5 -60.5q-6 -35 -7 -74t-1 -80h-185q0 47 3.5 110.5t13.5 110.5q18 86 88 138.5t188 52.5q147 0 211 -62.5t68 -167.5v-95v-111.5 t-1 -111.5t-1 -93v-85v-92v-88v-69q2 -51 5 -103.5t7 -64.5h-184q-2 0 -5 24.5t-3 47.5q-35 -41 -84.5 -60.5t-122.5 -19.5q-41 0 -79 9t-67.5 30.5t-48 56.5t-20.5 88q0 16 -1 42t-1 55.5zM133 1198v219h166v-219h-166zM221 296.5q0 -20.5 1 -39.5t3 -30q6 -35 33 -54 t66 -19t68.5 20.5t43.5 61.5q9 37 9 81v15v27q0 34 1 71v23.5v31v30v22.5q-18 -4 -37.5 -7.5t-37.5 -9.5q-27 -9 -54.5 -17.5t-52.5 -33.5q-23 -23 -30 -44.5t-11 -55.5q-2 -12 -2 -32v-40.5zM412 1198v219h168v-219h-168z" />
<glyph unicode="&#xe5;" horiz-adv-x="684" d="M29 259.5q0 21.5 0.5 43t1 41.5t0.5 35q2 57 17 102t47.5 79.5t83.5 60t126 43.5q37 10 72 16t69 10v180q-5 92 -94 93q-35 0 -61.5 -17.5t-34.5 -60.5q-6 -35 -7 -73.5t-1 -80.5h-185q0 24 1 52.5t3 58t5 58t8 52.5q18 87 88 139t188 52q74 0 126 -16t85.5 -46 t49.5 -72.5t18 -95.5q0 -40 -0.5 -94.5t-0.5 -112t-0.5 -111.5t-0.5 -93v-334q0 -10 1 -35t2.5 -52t3.5 -50.5t5 -30.5h-184q-1 0 -2.5 7t-2.5 17.5t-2 23t-1 24.5q-35 -42 -84.5 -61t-122.5 -19q-41 0 -79 9t-67.5 30.5t-48 57t-20.5 87.5v18.5t-1 23.5q-1 20 -1 41.5z M195 1360q0 35 12.5 66t34.5 54t52 36.5t66 13.5t67 -13t53.5 -36t35 -54t12.5 -67t-13 -66.5t-35.5 -53t-53 -35.5t-66.5 -13q-35 0 -65.5 13t-52.5 36t-34.5 53.5t-12.5 65.5zM221 307q0 -16 0.5 -31t1.5 -27.5t2 -21.5q4 -35 32 -54t67 -19t68.5 20t43.5 62q10 42 9 90.5 t1 103.5v107q-18 -4 -37.5 -8t-37.5 -9q-27 -8 -54.5 -17t-52.5 -34q-26 -26 -34.5 -61t-8.5 -71v-30zM297 1360q0 -27 18.5 -47.5t44.5 -20.5q29 0 48.5 20.5t19.5 47.5q0 29 -19.5 50.5t-48.5 21.5q-27 0 -45 -21.5t-18 -50.5z" />
<glyph unicode="&#xe6;" horiz-adv-x="1077" d="M30 232v50.5v52.5t1 44q2 57 17 102t47.5 79.5t83.5 60t126 43.5q37 10 72 16t69 10v180q-5 92 -94 93q-35 0 -61.5 -17.5t-34.5 -60.5q-6 -35 -7 -73.5t-1 -80.5h-185q0 24 1 52.5t3 58t5 58t8 52.5q18 87 88 139t188 52q45 0 77.5 -5.5t57 -15t42 -21.5t32.5 -26 q23 27 74 46.5t117 19.5q56 0 98 -12t73 -34t52 -51.5t33 -64.5q12 -38 19.5 -82t11.5 -101.5t5 -133.5t1 -179h-418q0 -62 4.5 -126t15.5 -124q10 -43 37 -58t62 -15q33 0 59.5 14t36.5 47q5 18 8 37.5t5 37t2.5 31.5t0.5 21h182q0 -21 -0.5 -46.5t-3.5 -53.5t-10.5 -57.5 t-21.5 -59.5q-33 -70 -93.5 -107.5t-164.5 -37.5q-93 0 -152 33.5t-82 93.5q-20 -37 -51 -60.5t-68 -37t-76 -18.5t-75 -5q-83 0 -145 46q-64 46 -70 155q-1 15 -1 39zM221 307q0 -16 0.5 -31t1.5 -27.5t2 -21.5q4 -35 32 -54t67 -19t68.5 20t43.5 62q10 42 9 90.5t1 103.5 v107q-18 -4 -37.5 -8t-37.5 -9q-27 -8 -54.5 -17t-52.5 -34q-26 -26 -34.5 -61t-8.5 -71v-30zM631 651h229q0 41 -1 79t-3 69.5t-4.5 55.5t-5.5 36q-18 72 -98 72q-35 0 -61 -14t-40 -56q-12 -35 -14 -99.5t-2 -142.5z" />
<glyph unicode="&#xe7;" horiz-adv-x="667" d="M37 563q0 52 2.5 105.5t7.5 104.5t13 97.5t20 85.5q27 88 93 136.5t171 48.5q132 0 193 -55q62 -55 84 -138q8 -26 11.5 -61t4.5 -70t0.5 -66t-0.5 -49h-186q0 25 -1 66t-6 80q-6 49 -28 78.5t-70 29.5q-84 0 -98 -102q-9 -70 -12 -147t-3 -146q0 -28 0.5 -70t2.5 -86.5 t5 -84.5t9 -66q10 -51 32.5 -71.5t65.5 -20.5t67.5 25.5t28.5 68.5q6 54 7.5 95.5t1.5 64.5h182q0 -46 -1 -93.5t-7.5 -92.5t-21 -85t-40.5 -71.5t-66.5 -53t-99.5 -28.5q2 -10 6.5 -21.5t18.5 -27.5q13 -11 35 -23t43.5 -29.5t37 -43t15.5 -64.5q0 -44 -20.5 -74.5t-53 -49 t-71.5 -27t-76 -8.5q-54 0 -127 14v106q39 -6 71 -6q54 0 82.5 18.5t28.5 55.5q0 19 -10.5 34t-25 27t-29 23t-23.5 24q-18 23 -25.5 41.5t-7.5 34.5q-139 28 -186 149q-13 35 -22 81.5t-14 101t-7 114.5t-2 121z" />
<glyph unicode="&#xe8;" horiz-adv-x="673" d="M37 555q0 83 1.5 147.5t6 113.5t12 85t19.5 62q35 86 99.5 132t176.5 46q56 0 98 -12t73.5 -34t52 -51.5t32.5 -64.5q12 -38 19.5 -82t11.5 -101.5t5 -133.5t1 -179h-418q0 -27 1.5 -59.5t4 -66t6.5 -65.5t9 -59q10 -43 36.5 -58t61.5 -15q33 0 59.5 14t36.5 47 q5 18 8 37.5t5 37t3 31.5t1 21h182q0 -21 -0.5 -46.5t-3.5 -53.5t-10.5 -57.5t-22.5 -59.5q-33 -70 -93 -107.5t-165 -37.5q-46 0 -87.5 8.5t-76 27.5t-60 49.5t-40.5 73.5q-10 33 -18.5 67t-14.5 80t-9 109t-3 154zM102 1464h215l134 -264h-191zM227 651h230q0 41 -1 79 t-3.5 69.5t-5 55.5t-5.5 36q-18 72 -98 72q-35 0 -60.5 -14t-39.5 -56q-12 -35 -14.5 -99.5t-2.5 -142.5z" />
<glyph unicode="&#xe9;" horiz-adv-x="673" d="M37 555q0 83 1.5 147.5t6 113.5t12 85t19.5 62q35 86 99.5 132t176.5 46q56 0 98 -12t73.5 -34t52 -51.5t32.5 -64.5q12 -38 19.5 -82t11.5 -101.5t5 -133.5t1 -179h-418q0 -27 1.5 -59.5t4 -66t6.5 -65.5t9 -59q10 -43 36.5 -58t61.5 -15q33 0 59.5 14t36.5 47 q5 18 8 37.5t5 37t3 31.5t1 21h182q0 -21 -0.5 -46.5t-3.5 -53.5t-10.5 -57.5t-22.5 -59.5q-33 -70 -93 -107.5t-165 -37.5q-46 0 -87.5 8.5t-76 27.5t-60 49.5t-40.5 73.5q-10 33 -18.5 67t-14.5 80t-9 109t-3 154zM227 651h230q0 41 -1 79t-3.5 69.5t-5 55.5t-5.5 36 q-18 72 -98 72q-35 0 -60.5 -14t-39.5 -56q-12 -35 -14.5 -99.5t-2.5 -142.5zM238 1200l131 264h213l-158 -264h-186z" />
<glyph unicode="&#xea;" horiz-adv-x="673" d="M37 555q0 83 1.5 147.5t6 113.5t12 85t19.5 62q35 86 99.5 132t176.5 46q56 0 98 -12t73.5 -34t52 -51.5t32.5 -64.5q12 -38 19.5 -82t11.5 -101.5t5 -133.5t1 -179h-418q0 -27 1.5 -59.5t4 -66t6.5 -65.5t9 -59q10 -43 36.5 -58t61.5 -15q33 0 59.5 14t36.5 47 q5 18 8 37.5t5 37t3 31.5t1 21h182q0 -21 -0.5 -46.5t-3.5 -53.5t-10.5 -57.5t-22.5 -59.5q-33 -70 -93 -107.5t-165 -37.5q-46 0 -87.5 8.5t-76 27.5t-60 49.5t-40.5 73.5q-10 33 -18.5 67t-14.5 80t-9 109t-3 154zM100 1200l142 268h213l139 -268h-166l-82 148l-82 -148 h-164zM227 651h230q0 41 -1 79t-3.5 69.5t-5 55.5t-5.5 36q-18 72 -98 72q-35 0 -60.5 -14t-39.5 -56q-12 -35 -14.5 -99.5t-2.5 -142.5z" />
<glyph unicode="&#xeb;" horiz-adv-x="673" d="M37 555q0 83 1.5 147.5t6 113.5t12 85t19.5 62q35 86 99.5 132t176.5 46q56 0 98 -12t73.5 -34t52 -51.5t32.5 -64.5q12 -38 19.5 -82t11.5 -101.5t5 -133.5t1 -179h-418q0 -27 1.5 -59.5t4 -66t6.5 -65.5t9 -59q10 -43 36.5 -58t61.5 -15q33 0 59.5 14t36.5 47 q5 18 8 37.5t5 37t3 31.5t1 21h182q0 -21 -0.5 -46.5t-3.5 -53.5t-10.5 -57.5t-22.5 -59.5q-33 -70 -93 -107.5t-165 -37.5q-46 0 -87.5 8.5t-76 27.5t-60 49.5t-40.5 73.5q-10 33 -18.5 67t-14.5 80t-9 109t-3 154zM121 1198v219h166v-219h-166zM227 651h230q0 41 -1 79 t-3.5 69.5t-5 55.5t-5.5 36q-18 72 -98 72q-35 0 -60.5 -14t-39.5 -56q-12 -35 -14.5 -99.5t-2.5 -142.5zM399 1198v219h168v-219h-168z" />
<glyph unicode="&#xec;" horiz-adv-x="323" d="M-70 1464h215l134 -264h-191zM61 82v1044h201v-1036q0 -35 3 -61.5t3 -28.5h-196q-4 2 -7.5 25.5t-3.5 56.5z" />
<glyph unicode="&#xed;" horiz-adv-x="323" d="M51 1200l131 264h213l-157 -264h-187zM61 82v1044h201v-1036q0 -35 3 -61.5t3 -28.5h-196q-4 2 -7.5 25.5t-3.5 56.5z" />
<glyph unicode="&#xee;" horiz-adv-x="323" d="M-84 1200l141 268h213l140 -268h-166l-82 148l-82 -148h-164zM61 82v1044h201v-1036q0 -35 3 -61.5t3 -28.5h-196q-4 2 -7.5 25.5t-3.5 56.5z" />
<glyph unicode="&#xef;" horiz-adv-x="323" d="M-57 1198v219h166v-219h-166zM61 82v1044h201v-1036q0 -35 3 -61.5t3 -28.5h-196q-4 2 -7.5 25.5t-3.5 56.5zM221 1198v219h168v-219h-168z" />
<glyph unicode="&#xf0;" horiz-adv-x="722" d="M39 536.5q0 71.5 2 138.5t7 123t13 91q23 72 82.5 119t157.5 47q33 0 58.5 -5t46.5 -15.5t39 -26.5t36 -39v30.5t-1 47t-2 57t-3 61.5q-31 -12 -57 -12q-51 0 -90 33.5t-56 99.5l78 31q17 -74 68 -74q25 0 53 19q-2 31 -3 54t-3 34q-6 70 -31.5 105.5t-79.5 35.5 q-51 0 -71.5 -19.5t-24.5 -64.5q-2 -10 -2 -23.5v-21.5h-195q0 5 0.5 15t2 22.5t3 25.5t3.5 25q6 38 25.5 73.5t54 63t85.5 44t119 16.5t118.5 -18t86.5 -51t57 -78.5t29 -100.5q4 -16 5 -31.5t5 -34.5q16 10 28.5 12.5t29.5 2.5q57 0 92 -36t51 -93l-74 -39q-6 33 -22.5 55 t-44.5 22q-16 0 -26.5 -5t-20.5 -13q2 -34 4.5 -77t5 -88t4.5 -89.5t2 -81.5v-65t-1 -82.5t-1.5 -93.5t-2.5 -99q-1 -50 -3.5 -98.5t-6 -92t-8 -80t-10.5 -61.5q-15 -60 -37.5 -106t-57 -77t-83.5 -46.5t-117 -15.5q-63 0 -111.5 12t-84.5 37t-60 64.5t-39 93.5 q-8 31 -13 85t-7 121q-2 66 -2 137.5zM244.5 448q0.5 -44 1 -80.5t2 -63.5t2.5 -38q10 -63 34.5 -87.5t73.5 -24.5q55 0 83 26.5t34 98.5q0 13 0.5 48t2 81.5t2.5 100.5t2.5 103.5t2 90.5t0.5 63q-4 20 -12 42.5t-22.5 41t-36 31t-52.5 12.5q-27 0 -45.5 -7t-31 -19t-20 -28 t-11.5 -34q-1 -11 -2.5 -37.5t-2.5 -63t-2 -80t-2 -87.5q-1 -45 -0.5 -89z" />
<glyph unicode="&#xf1;" horiz-adv-x="696" d="M57 0v1126h191v-110q9 33 28 56.5t44.5 39t56 22.5t63.5 7q104 0 152.5 -60t48.5 -166v-366v-253v-161t0.5 -89t1.5 -38t2 -8h-192q-1 0 -2.5 5.5t-2 31.5t-1 79t-1 148t-0.5 239v351q0 54 -20 76t-66 22q-22 0 -41.5 -8t-34 -25.5t-22.5 -46t-8 -69.5v-803h-197z M90 1214q6 102 47 163t111 61q39 0 68 -11t59 -45q18 -20 30.5 -32.5t32.5 -10.5q49 1 58 93l125 -9q-4 -112 -45 -168.5t-113 -56.5q-15 0 -28 1t-26 5t-27 13.5t-32 25.5q-23 23 -38 33t-38 10t-37 -16.5t-18 -63.5z" />
<glyph unicode="&#xf2;" horiz-adv-x="700" d="M37 563q0 51 1.5 103t6 101.5t11.5 93.5t18 79q15 47 37.5 84t55.5 63t78.5 40t106.5 14q62 0 109 -14.5t81.5 -41t56.5 -63.5t34 -82q6 -28 11.5 -73t10 -96.5t7 -105.5t2.5 -102q0 -46 -2.5 -98.5t-7 -103t-11 -95.5t-14.5 -76q-24 -97 -92.5 -149.5t-186.5 -52.5 q-63 0 -110 14t-80.5 40t-55 62.5t-32.5 81.5q-6 30 -12.5 73.5t-11.5 93.5t-8 104t-3 106zM119 1464h215l133 -264h-191zM231 561q0 -37 1 -82t3.5 -88.5t5.5 -80.5t7 -60q18 -86 102 -86t103 88q4 23 7 60t5 79.5t3 87.5t1 82t-0.5 82.5t-2 89t-4.5 80.5t-7 57 q-10 48 -35 68t-70 20q-85 0 -102 -92q-4 -22 -7 -59t-5.5 -79.5t-3.5 -86.5t-1 -80z" />
<glyph unicode="&#xf3;" horiz-adv-x="700" d="M37 563q0 51 1.5 103t6 101.5t11.5 93.5t18 79q15 47 37.5 84t55.5 63t78.5 40t106.5 14q62 0 109 -14.5t81.5 -41t56.5 -63.5t34 -82q6 -28 11.5 -73t10 -96.5t7 -105.5t2.5 -102q0 -46 -2.5 -98.5t-7 -103t-11 -95.5t-14.5 -76q-24 -97 -92.5 -149.5t-186.5 -52.5 q-63 0 -110 14t-80.5 40t-55 62.5t-32.5 81.5q-6 30 -12.5 73.5t-11.5 93.5t-8 104t-3 106zM231 561q0 -37 1 -82t3.5 -88.5t5.5 -80.5t7 -60q18 -86 102 -86t103 88q4 23 7 60t5 79.5t3 87.5t1 82t-0.5 82.5t-2 89t-4.5 80.5t-7 57q-10 48 -35 68t-70 20q-85 0 -102 -92 q-4 -22 -7 -59t-5.5 -79.5t-3.5 -86.5t-1 -80zM258 1200l131 264h213l-158 -264h-186z" />
<glyph unicode="&#xf4;" horiz-adv-x="700" d="M37 563q0 51 1.5 103t6 101.5t11.5 93.5t18 79q15 47 37.5 84t55.5 63t78.5 40t106.5 14q62 0 109 -14.5t81.5 -41t56.5 -63.5t34 -82q6 -28 11.5 -73t10 -96.5t7 -105.5t2.5 -102q0 -46 -2.5 -98.5t-7 -103t-11 -95.5t-14.5 -76q-24 -97 -92.5 -149.5t-186.5 -52.5 q-63 0 -110 14t-80.5 40t-55 62.5t-32.5 81.5q-6 30 -12.5 73.5t-11.5 93.5t-8 104t-3 106zM104 1200l142 268h213l139 -268h-166l-82 148l-82 -148h-164zM231 561q0 -37 1 -82t3.5 -88.5t5.5 -80.5t7 -60q18 -86 102 -86t103 88q4 23 7 60t5 79.5t3 87.5t1 82t-0.5 82.5 t-2 89t-4.5 80.5t-7 57q-10 48 -35 68t-70 20q-85 0 -102 -92q-4 -22 -7 -59t-5.5 -79.5t-3.5 -86.5t-1 -80z" />
<glyph unicode="&#xf5;" horiz-adv-x="700" d="M37 563q0 51 1.5 103t6 101.5t11.5 93.5t18 79q15 47 37.5 84t55.5 63t78.5 40t106.5 14q62 0 109 -14.5t81.5 -41t56.5 -63.5t34 -82q6 -28 11.5 -73t10 -96.5t7 -105.5t2.5 -102q0 -46 -2.5 -98.5t-7 -103t-11 -95.5t-14.5 -76q-24 -97 -92.5 -149.5t-186.5 -52.5 q-63 0 -110 14t-80.5 40t-55 62.5t-32.5 81.5q-6 30 -12.5 73.5t-11.5 93.5t-8 104t-3 106zM96 1214q6 102 47 163t111 61q39 0 68 -11t59 -45q18 -20 30.5 -32.5t32.5 -10.5q49 1 58 93l125 -9q-4 -112 -45 -168.5t-113 -56.5q-15 0 -28 1t-26 5t-27 13.5t-32 25.5 q-23 23 -38 33t-37 10q-23 0 -37.5 -16.5t-18.5 -63.5zM231 561q0 -37 1 -82t3.5 -88.5t5.5 -80.5t7 -60q18 -86 102 -86t103 88q4 23 7 60t5 79.5t3 87.5t1 82t-0.5 82.5t-2 89t-4.5 80.5t-7 57q-10 48 -35 68t-70 20q-85 0 -102 -92q-4 -22 -7 -59t-5.5 -79.5t-3.5 -86.5 t-1 -80z" />
<glyph unicode="&#xf6;" horiz-adv-x="700" d="M37 563q0 51 1.5 103t6 101.5t11.5 93.5t18 79q15 47 37.5 84t55.5 63t78.5 40t106.5 14q62 0 109 -14.5t81.5 -41t56.5 -63.5t34 -82q6 -28 11.5 -73t10 -96.5t7 -105.5t2.5 -102q0 -46 -2.5 -98.5t-7 -103t-11 -95.5t-14.5 -76q-24 -97 -92.5 -149.5t-186.5 -52.5 q-63 0 -110 14t-80.5 40t-55 62.5t-32.5 81.5q-6 30 -12.5 73.5t-11.5 93.5t-8 104t-3 106zM129 1198v219h166v-219h-166zM231 561q0 -37 1 -82t3.5 -88.5t5.5 -80.5t7 -60q18 -86 102 -86t103 88q4 23 7 60t5 79.5t3 87.5t1 82t-0.5 82.5t-2 89t-4.5 80.5t-7 57 q-10 48 -35 68t-70 20q-85 0 -102 -92q-4 -22 -7 -59t-5.5 -79.5t-3.5 -86.5t-1 -80zM408 1198v219h167v-219h-167z" />
<glyph unicode="&#xf7;" d="M25 737v158h612v-158h-612zM244 475v162h174v-162h-174zM244 995v162h174v-162h-174z" />
<glyph unicode="&#xf8;" horiz-adv-x="700" d="M37 563q0 51 1.5 103t6 101.5t11.5 93.5t18 79q15 47 37.5 84t55.5 63t78.5 40t106.5 14q75 0 133 -23l19 58h76q-1 -6 -3.5 -12.5t-5.5 -14.5q-5 -14 -10.5 -31t-11.5 -37q62 -52 84 -141q6 -28 11.5 -73t10 -96.5t7 -105.5t2.5 -102q0 -46 -2.5 -98.5t-7 -103 t-11 -95.5t-14.5 -76q-24 -97 -92.5 -149.5t-186.5 -52.5q-79 0 -135 22q-4 -14 -7 -25.5t-7 -19.5l-6 -18h-76l33 102q-58 50 -80 137q-6 30 -12.5 73.5t-11.5 93.5t-8 104t-3 106zM227 561q0 -51 3 -114.5t8 -118.5l190 608q-23 29 -78 29q-85 0 -102 -93q-4 -23 -8 -60.5 t-7 -81t-4.5 -88.5t-1.5 -81zM270 190q27 -34 80 -32q84 0 103 88q4 22 7.5 60t6.5 82t4.5 90t1.5 83q0 27 -1 58t-2.5 63t-3 63t-3.5 58l-15 -45q-9 -28 -22 -69.5t-28.5 -90t-31.5 -100t-31.5 -100.5t-28.5 -91t-22 -71z" />
<glyph unicode="&#xf9;" horiz-adv-x="694" d="M53 980.5v105.5v40h195v-13t0.5 -17t0.5 -24q1 -42 1.5 -109.5t1 -147t0 -164.5t-0.5 -160.5t-0.5 -135t-0.5 -89.5q0 -54 23 -77t65 -23q55 0 79.5 32.5t24.5 104.5v823h197v-989q0 -48 1 -86.5t3 -50.5h-186l-8 84q-25 -49 -71 -70.5t-112 -21.5q-48 0 -87 12.5 t-66.5 38.5t-42.5 66.5t-15 97.5v159v160.5t-0.5 154.5t-0.5 142q-1 91 -1 157.5zM131 1464h215l133 -264h-190z" />
<glyph unicode="&#xfa;" horiz-adv-x="694" d="M53 980.5v105.5v40h195v-13t0.5 -17t0.5 -24q1 -42 1.5 -109.5t1 -147t0 -164.5t-0.5 -160.5t-0.5 -135t-0.5 -89.5q0 -54 23 -77t65 -23q55 0 79.5 32.5t24.5 104.5v823h197v-989q0 -48 1 -86.5t3 -50.5h-186l-8 84q-25 -49 -71 -70.5t-112 -21.5q-48 0 -87 12.5 t-66.5 38.5t-42.5 66.5t-15 97.5v159v160.5t-0.5 154.5t-0.5 142q-1 91 -1 157.5zM246 1200l131 264h213l-158 -264h-186z" />
<glyph unicode="&#xfb;" horiz-adv-x="694" d="M53 980.5v105.5v40h195v-13t0.5 -17t0.5 -24q1 -42 1.5 -109.5t1 -147t0 -164.5t-0.5 -160.5t-0.5 -135t-0.5 -89.5q0 -54 23 -77t65 -23q55 0 79.5 32.5t24.5 104.5v823h197v-989q0 -48 1 -86.5t3 -50.5h-186l-8 84q-25 -49 -71 -70.5t-112 -21.5q-48 0 -87 12.5 t-66.5 38.5t-42.5 66.5t-15 97.5v159v160.5t-0.5 154.5t-0.5 142q-1 91 -1 157.5zM98 1200l142 268h213l139 -268h-166l-82 148l-82 -148h-164z" />
<glyph unicode="&#xfc;" horiz-adv-x="694" d="M53 980.5v105.5v40h195v-13t0.5 -17t0.5 -24q1 -42 1.5 -109.5t1 -147t0 -164.5t-0.5 -160.5t-0.5 -135t-0.5 -89.5q0 -54 23 -77t65 -23q55 0 79.5 32.5t24.5 104.5v823h197v-989q0 -48 1 -86.5t3 -50.5h-186l-8 84q-25 -49 -71 -70.5t-112 -21.5q-48 0 -87 12.5 t-66.5 38.5t-42.5 66.5t-15 97.5v159v160.5t-0.5 154.5t-0.5 142q-1 91 -1 157.5zM127 1198v219h166v-219h-166zM406 1198v219h167v-219h-167z" />
<glyph unicode="&#xfd;" horiz-adv-x="690" d="M2 1126h201q19 -85 35.5 -164t31.5 -153q12 -63 26 -128t25 -123t18 -106.5t11 -78.5q2 29 9 77t17.5 106.5t23 124t24.5 128.5q14 74 30.5 153t34.5 164h197l-330 -1460h-198l90 375zM219 1200l131 264h213l-157 -264h-187z" />
<glyph unicode="&#xfe;" horiz-adv-x="710" d="M57 -334v1970h191v-598q20 49 69.5 76t118.5 27q78 0 128 -35t75 -117q20 -66 29.5 -172t9.5 -233q0 -65 -2.5 -128t-7 -118.5t-11 -99.5t-14.5 -72q-20 -81 -75 -125.5t-140 -44.5q-66 0 -110 18.5t-66 46.5v-395h-195zM250 575q0 -80 1.5 -135t4 -94.5t5.5 -67t7 -51.5 q8 -29 31 -48t66 -19q85 0 100 84q4 23 7 61.5t4.5 84t2 94t0.5 91.5t-1 89.5t-3.5 90t-6 81t-9.5 61.5q-16 70 -92 70q-43 0 -64.5 -23t-32.5 -65q-10 -72 -15 -144.5t-5 -159.5z" />
<glyph unicode="&#xff;" horiz-adv-x="690" d="M2 1126h201q19 -85 35.5 -164t31.5 -153q12 -63 26 -128t25 -123t18 -106.5t11 -78.5q2 29 9 77t17.5 106.5t23 124t24.5 128.5q14 74 30.5 153t34.5 164h197l-330 -1460h-198l90 375zM125 1198v219h166v-219h-166zM403 1198v219h168v-219h-168z" />
<glyph unicode="&#x152;" horiz-adv-x="1179" d="M45 821q0 41 0.5 92t2 104.5t3 106.5t3.5 97.5t4 78t5 48.5q15 71 41.5 126t68.5 93t101 58t138 20q72 0 131 -17.5t90 -52.5v59h530v-204h-393v-506h360v-203h-360v-516h393v-205h-532v57q-25 -29 -82 -51t-135 -22q-298 0 -344 292q-4 16 -7 51t-6 82t-5 102t-3.5 110 t-2.5 107t-1 93zM266 813q0 -33 0.5 -78.5t1 -96.5t2 -103t3.5 -98t5 -82t7 -54q16 -60 46 -93.5t93 -33.5q30 0 52.5 8.5t38 22.5t25 33.5t13.5 40.5q1 13 2 48.5t1.5 84.5t1 106t1 112.5t0.5 105v83.5v75.5v97.5v105.5t-0.5 100t-1.5 81t-2 48.5q-10 63 -39 94t-92 31 q-35 0 -58.5 -9t-39 -26.5t-24.5 -43t-15 -58.5q-4 -17 -7 -51.5t-5.5 -79.5t-4 -96.5t-2.5 -101.5t-1.5 -95.5t-0.5 -77.5z" />
<glyph unicode="&#x153;" horiz-adv-x="1099" d="M37 563q0 51 1.5 103t6 101.5t11.5 93.5t18 79q15 47 37.5 84t55.5 63t78.5 40t106.5 14q47 0 81.5 -10.5t60 -27t42.5 -37t29 -40.5q17 38 71 76q54 39 146 39q56 0 98 -12t73.5 -34t52 -51.5t32.5 -64.5q12 -38 19.5 -82t11.5 -101.5t5 -133.5t1 -179h-418 q0 -23 1.5 -55t4.5 -66t7 -67t8 -59q10 -43 36.5 -59.5t61.5 -16.5q33 0 59.5 14t36.5 47q5 18 8 37.5t5 37t3 31.5t1 21h182q0 -21 -0.5 -46.5t-3.5 -53.5t-10.5 -57.5t-22.5 -59.5q-33 -70 -93 -107.5t-165 -37.5q-86 0 -138 31.5t-79 74.5q-12 -21 -30 -39.5t-43 -33 t-58.5 -23t-77.5 -8.5q-63 0 -110 14t-80.5 40t-55 62.5t-32.5 81.5q-6 30 -12.5 73.5t-11.5 93.5t-8 104t-3 106zM231 561q0 -37 1 -82t3.5 -88.5t5.5 -80.5t7 -60q18 -86 102 -86t103 88q4 23 7 60t5 79.5t3 87.5t1 82t-0.5 82.5t-2 89t-4.5 80.5t-7 57q-10 48 -35 68 t-70 20q-85 0 -102 -92q-4 -22 -7 -59t-5.5 -79.5t-3.5 -86.5t-1 -80zM657 651h230q0 41 -1 79t-3.5 69.5t-5 55.5t-5.5 36q-18 72 -98 72q-35 0 -60.5 -14t-39.5 -56q-12 -35 -14.5 -99.5t-2.5 -142.5z" />
<glyph unicode="&#x178;" horiz-adv-x="837" d="M0 1634h225q26 -100 49.5 -189.5t44.5 -170.5q18 -69 35.5 -138t31 -126t22 -97t8.5 -53q0 14 9.5 54.5t24.5 97t33.5 124.5t36.5 138q23 81 48.5 170.5t54.5 189.5h215l-318 -1032v-602h-219v596zM201 1700v219h166v-219h-166zM479 1700v219h168v-219h-168z" />
<glyph unicode="&#x2c6;" d="M84 1200l141 268h213l140 -268h-166l-82 148l-82 -148h-164z" />
<glyph unicode="&#x2dc;" d="M63 1214q6 102 47.5 163t110.5 61q39 0 68 -11t59 -45q18 -20 30.5 -32.5t33.5 -10.5q50 2 57 93l125 -9q-4 -112 -45 -168.5t-113 -56.5q-15 0 -28 1t-25.5 5t-26.5 13.5t-32 25.5q-23 23 -38.5 33t-37.5 10q-23 0 -37 -16.5t-18 -63.5z" />
<glyph unicode="&#x2000;" horiz-adv-x="986" />
<glyph unicode="&#x2001;" horiz-adv-x="1972" />
<glyph unicode="&#x2002;" horiz-adv-x="986" />
<glyph unicode="&#x2003;" horiz-adv-x="1972" />
<glyph unicode="&#x2004;" horiz-adv-x="657" />
<glyph unicode="&#x2005;" horiz-adv-x="493" />
<glyph unicode="&#x2006;" horiz-adv-x="328" />
<glyph unicode="&#x2007;" horiz-adv-x="328" />
<glyph unicode="&#x2008;" horiz-adv-x="246" />
<glyph unicode="&#x2009;" horiz-adv-x="394" />
<glyph unicode="&#x200a;" horiz-adv-x="109" />
<glyph unicode="&#x2010;" horiz-adv-x="548" d="M18 702v211h512v-211h-512z" />
<glyph unicode="&#x2011;" horiz-adv-x="548" d="M18 702v211h512v-211h-512z" />
<glyph unicode="&#x2012;" horiz-adv-x="548" d="M18 702v211h512v-211h-512z" />
<glyph unicode="&#x2013;" horiz-adv-x="600" d="M27 625v192h546v-192h-546z" />
<glyph unicode="&#x2014;" horiz-adv-x="968" d="M100 625v192h768v-192h-768z" />
<glyph unicode="&#x2018;" horiz-adv-x="311" d="M39 1434q0 3 10 19t25.5 38.5t34.5 48t36.5 48t31.5 38.5t20 19q14 -16 35.5 -32t35.5 -30q-14 -33 -26.5 -70t-34.5 -79v-9h51q-6 -48 -7 -87t-1 -81q6 -23 8 -53t10 -61h-209v188q-8 23 -10 47.5t-10 55.5z" />
<glyph unicode="&#x2019;" horiz-adv-x="311" d="M39 1208q12 20 18.5 39t12.5 37t13 35.5t19 32.5v20q-16 -7 -25 -7t-18 7v154q0 33 -5 58t-5 56h197q0 -48 5 -91.5t5 -82.5q0 -33 5 -57.5t5 -46.5q0 -5 -9.5 -22t-23.5 -39t-31.5 -47.5t-33.5 -47.5t-29 -39t-18 -22q-23 16 -41.5 31.5t-40.5 31.5z" />
<glyph unicode="&#x201a;" horiz-adv-x="311" d="M31 -145l69 137l-4 8h-51v285h225v-299l-141 -189z" />
<glyph unicode="&#x201c;" horiz-adv-x="593" d="M47 1434q37 54 76 101t76 101q16 -16 37.5 -28.5t44.5 -22.5q-3 0 -7 -3.5t-4 -6.5q-7 -18 -17.5 -35l-21 -34t-19.5 -34.5t-13 -37.5l10 -11h51v-264q0 -8 -8 -8h-20.5t-26.5 -1t-26.5 -3.5t-20.5 -7.5q-8 4 -20 5t-26 1.5l-28 1t-27 4.5q0 75 -5 144.5t-5 138.5z M342 1434q0 5 9 21.5t23 38.5t31 47t32.5 47t28 38.5t17.5 20.5q23 -14 41.5 -29.5t40.5 -32.5q-16 -37 -27.5 -73.5t-33.5 -69.5v-19q14 7 24 7q11 0 15 -7v-151q0 -31 6 -60.5t6 -52.5h-195q0 39 -5 82.5t-5 91.5q0 23 -4 50.5t-4 50.5z" />
<glyph unicode="&#x201d;" horiz-adv-x="593" d="M33 1196q12 21 18.5 40t12.5 37t12.5 35t17.5 33v21q-16 -7 -24 -7t-15 7v156q0 31 -6 56t-6 58h197q0 -48 6 -92.5t6 -83.5q0 -31 4 -56.5t4 -47.5q0 -5 -9.5 -22t-24 -39.5t-31.5 -47.5t-33 -47.5t-28.5 -39.5t-16.5 -23q-23 16 -42.5 32.5t-41.5 30.5zM324 1196 q8 0 9 1t1 11q8 18 18.5 35.5t21 34.5t19.5 35t15 39h-64v280q3 0 6.5 4t3.5 6q11 0 29.5 -2.5t36.5 -2.5q8 0 16 1t13 4q23 0 51 -1t51 -9q0 -70 6 -139t16 -141q-48 -54 -87.5 -106.5t-77.5 -100.5q-16 8 -39 25.5t-45 25.5z" />
<glyph unicode="&#x201e;" horiz-adv-x="593" d="M35 -150l69 142l-4 8h-49v281h219v-295l-141 -193zM313 -150l70 142l-4 8h-47v281h219v-295l-141 -193z" />
<glyph unicode="&#x2022;" horiz-adv-x="630" d="M109 748q0 45 16.5 83.5t44.5 67.5t65.5 45.5t79.5 16.5q43 0 81 -16.5t66.5 -45.5t45 -67.5t16.5 -83.5q0 -44 -16.5 -83t-45 -68.5t-66.5 -47t-81 -17.5q-42 0 -79.5 17.5t-65.5 47t-44.5 68.5t-16.5 83z" />
<glyph unicode="&#x2026;" horiz-adv-x="1200" d="M82 0v307h235v-307h-235zM481 0v307h236v-307h-236zM881 0v307h235v-307h-235z" />
<glyph unicode="&#x202f;" horiz-adv-x="394" />
<glyph unicode="&#x2039;" horiz-adv-x="374" d="M25 647v146l327 383v-238l-178 -217l178 -217v-242z" />
<glyph unicode="&#x203a;" horiz-adv-x="374" d="M25 262v242l178 217l-178 217v238l327 -383v-146z" />
<glyph unicode="&#x205f;" horiz-adv-x="493" />
<glyph unicode="&#x20ac;" horiz-adv-x="798" d="M18 639v145h76v60h-76v143h76q1 51 2 101.5t3 98t5 90t7 77.5q6 62 26 115t58 93t96 62.5t139 22.5t138 -22.5t94.5 -62.5t58 -93t27.5 -115q6 -66 7 -128t3 -122h-203q-2 54 -2.5 106t-3.5 101q-4 66 -32.5 102.5t-88.5 36.5q-59 0 -87.5 -40t-31.5 -101 q-4 -72 -5 -156.5t-3 -165.5h223v-143h-223v-60h223v-145h-221q1 -44 2 -89t2 -88t2.5 -82.5t3.5 -72.5q4 -61 33.5 -98t83.5 -37q59 0 86.5 37t32.5 98q2 25 3 77t3 118h203q-4 -57 -5 -108.5t-5 -90.5q-20 -162 -96.5 -239.5t-221.5 -77.5q-75 0 -130 19t-92.5 58.5 t-60 99t-32.5 140.5q-4 25 -7 62.5t-5 82t-3.5 93.5t-3.5 98h-78z" />
<glyph unicode="&#x2122;" horiz-adv-x="1157" d="M6 1499v137h395v-137h-137v-248q0 -63 62 -63h28.5t24.5 2v-127q-18 -4 -49 -5t-60 -1q-31 0 -59 7.5t-48 23t-32 40.5t-12 60v311h-113zM444 1061v575h144v-90q10 49 47 75t88 26q55 0 83 -28.5t38 -70.5q16 54 54.5 76.5t86.5 22.5q41 0 68 -14t42.5 -36.5t22 -50.5 t6.5 -55v-430h-147v373q0 29 -11.5 49t-43.5 20q-16 0 -28.5 -8.5t-20 -22t-11.5 -30.5t-4 -35v-346h-145v377q0 67 -54 65q-33 0 -51 -31t-18 -79v-332h-146z" />
<glyph unicode="&#x25fc;" horiz-adv-x="1125" d="M0 0v1125h1125v-1125h-1125z" />
<glyph unicode="&#xfb01;" horiz-adv-x="782" d="M10 946v180h101v281q0 52 13 95.5t41 74.5t73 48t108 17q45 0 67.5 -1t43.5 -5v-172q-12 0 -31.5 2t-36.5 2q-42 0 -63 -26t-21 -68v-248h412v-1036q0 -15 1 -30.5t2.5 -28.5t3.5 -21.5t3 -9.5h-197q-4 4 -9 27.5t-5 54.5v866h-209v-948h-196v946h-101z" />
<glyph unicode="&#xfb02;" horiz-adv-x="774" d="M10 946v180h94v281q0 52 12 95.5t38.5 74.5t69.5 48t104 17q45 0 69.5 -1t42.5 -5v-172q-12 2 -31.5 3t-35.5 1q-39 0 -55.5 -21.5t-16.5 -55.5v-265h129v-180h-127v-946h-199v946h-94zM512 1636h197q0 -4 1 -23.5t1 -43.5v-1483q0 -76 10 -86h-96q-18 0 -35.5 -0.5 t-31 -0.5h-22t-8.5 1q-8 4 -10 25.5t-2 46.5v1468v28.5t-0.5 28t-1.5 24t-2 15.5z" />
<glyph unicode="&#xfb03;" horiz-adv-x="1173" d="M10 946v180h94v281q0 52 12 95.5t38.5 74.5t69 48t102.5 17q47 0 70.5 -1t43.5 -5v-172q-5 0 -14 0.5t-18.5 1.5t-19 1.5t-15.5 0.5q-41 -2 -56.5 -26.5t-15.5 -59.5v-256h201v265q0 51 11.5 97t38 80t68 54t101.5 20q45 0 68.5 -1t44.5 -5v-172q-14 0 -32 2t-38 2 q-37 -2 -52.5 -22.5t-15.5 -54.5v-265h410v-1036q0 -15 1.5 -30.5t3.5 -28.5t4 -21.5t3 -9.5h-196q-6 2 -11.5 26.5t-5.5 55.5v868h-209v-950h-194v950h-201v-950h-197v946h-94z" />
<glyph unicode="&#xfb04;" horiz-adv-x="1169" d="M10 946v180h94v281q0 52 12 95.5t38.5 74.5t69 48t102.5 17q47 0 70.5 -1t43.5 -5v-172q-5 0 -14 0.5t-18.5 1.5t-19 1.5t-15.5 0.5q-41 -2 -56.5 -26.5t-15.5 -59.5v-256h201v265q0 51 11.5 97t38 80t68 54t101.5 20q45 0 68.5 -1t44.5 -5v-172q-10 2 -30 3t-40 1 q-37 -2 -52.5 -22.5t-15.5 -54.5v-265h127v-180h-127v-946h-194v946h-201v-946h-197v946h-94zM905 1636h197q0 -4 2 -23.5t2 -43.5v-1483q0 -79 10 -86h-98q-18 0 -36 -0.5t-31.5 -0.5h-22t-8.5 1q-4 4 -7.5 25.5t-3.5 46.5v1468v28.5t-0.5 28t-1.5 24t-2 15.5z" />
</font>
</defs>
</svg>
